<?xml version="1.0" encoding="UTF-8" standalone="no"?>
<!-- Created with Inkscape (http://www.inkscape.org/) -->

<svg
   width="64"
   height="64"
   viewBox="0 0 64 64"
   version="1.1"
   id="svg5"
   inkscape:version="1.2 (dc2aedaf03, 2022-05-15)"
   sodipodi:docname="Bear.svg"
   xmlns:inkscape="http://www.inkscape.org/namespaces/inkscape"
   xmlns:sodipodi="http://sodipodi.sourceforge.net/DTD/sodipodi-0.dtd"
   xmlns="http://www.w3.org/2000/svg"
   xmlns:svg="http://www.w3.org/2000/svg">
  <sodipodi:namedview
     id="namedview7"
     pagecolor="#ffffff"
     bordercolor="#000000"
     borderopacity="0.25"
     inkscape:showpageshadow="2"
     inkscape:pageopacity="0.0"
     inkscape:pagecheckerboard="true"
     inkscape:deskcolor="#d1d1d1"
     inkscape:document-units="px"
     showgrid="true"
     inkscape:zoom="12.56038"
     inkscape:cx="-31.957983"
     inkscape:cy="96.007207"
     inkscape:window-width="1920"
     inkscape:window-height="1009"
     inkscape:window-x="-8"
     inkscape:window-y="-8"
     inkscape:window-maximized="1"
     inkscape:current-layer="svg5">
    <inkscape:grid
       type="xygrid"
       id="grid132"
       spacingx="8"
       spacingy="8"
       empspacing="8" />
    <inkscape:page
       x="0"
       y="0"
       width="64"
       height="64"
       id="page1898"
       inkscape:export-filename="Bear Idle 1.png"
       inkscape:export-xdpi="96"
       inkscape:export-ydpi="96" />
    <inkscape:page
       x="64.013337"
       y="0.27121112"
       width="64.115201"
       height="64.013248"
       id="page1900"
       inkscape:export-filename="Fire Bear 1.png"
       inkscape:export-xdpi="96"
       inkscape:export-ydpi="96" />
    <inkscape:page
       x="0.13960265"
       y="63.912655"
       width="64.050346"
       height="64.132111"
       id="page2419"
       inkscape:export-filename="Bear Idle 2.png"
       inkscape:export-xdpi="96"
       inkscape:export-ydpi="96" />
    <inkscape:page
       x="-64.032971"
       y="0.25864518"
       width="64.051618"
       height="63.892738"
       id="page2471"
       inkscape:export-filename="Bear Walking 1.png"
       inkscape:export-xdpi="96"
       inkscape:export-ydpi="96" />
    <inkscape:page
       x="-63.993138"
       y="63.912655"
       width="64.132737"
       height="64.17003"
       id="page2473"
       inkscape:export-filename="Page 5.png"
       inkscape:export-xdpi="96"
       inkscape:export-ydpi="96" />
  </sodipodi:namedview>
  <defs
     id="defs2" />
  <g
     id="g1076"
     inkscape:label="Fire Bear"
     transform="translate(64)"
     sodipodi:insensitive="true">
    <g
       id="g2318"
       inkscape:label="Fire"
       transform="translate(-64)">
      <path
         style="fill:#ff0000;stroke:#000000;stroke-width:0.2"
         d="m 106.56734,42.2932 c 0.35317,-0.07836 0.53864,-0.421971 0.84344,-0.571933 0.13631,-0.06707 0.30032,-0.0568 0.44161,-0.112636 0.6851,-0.270729 1.27127,-0.674003 1.85469,-1.121796 0.14651,-0.112446 0.57327,-0.411553 0.67563,-0.594004 0.14205,-0.253182 0.16821,-0.629812 0.20535,-0.911929 0.0221,-0.167813 0.11201,-0.340502 0.0661,-0.503449 -0.17703,-0.629528 -0.69144,-1.115428 -0.88111,-1.737683 -0.0944,-0.309662 -0.10385,-0.878469 -0.0972,-1.207797 0.008,-0.394076 0.0824,-1.244917 0.21008,-1.59417 0.18488,-0.507347 0.18181,-0.268948 0.42391,-0.627111 0.1518,-0.224563 0.20394,-0.458281 0.42392,-0.627109 0.45924,-0.35249 1.2159,-0.752238 1.37332,-1.355821 0.11701,-0.448583 0.14526,-1.085192 0.0308,-1.532388 -0.0407,-0.159391 -0.1499,-0.294899 -0.19654,-0.452638 -0.066,-0.223078 -0.0354,-0.464927 -0.0795,-0.693323 -0.0914,-0.472763 -0.15628,-0.392496 -0.14137,-0.872171 0.01,-0.315274 0.11986,-1.495243 0.23147,-1.762072 0.19482,-0.464644 0.71563,-1.00189 1.11057,-1.305019 0.1119,-0.08588 0.27012,-0.106738 0.36874,-0.207578 0.15021,-0.153595 0.20865,-0.376252 0.32897,-0.554239 0.15039,-0.222492 0.1798,-0.607631 0.0264,-0.850105 -0.0753,-0.1192 -0.20939,-0.189932 -0.30251,-0.295862 -0.47812,-0.543817 -0.95364,-1.083828 -1.50157,-1.563211 -0.0949,-0.08307 -0.21861,-0.128885 -0.31355,-0.211954 -0.18411,-0.161073 -0.33707,-0.511577 -0.41516,-0.737466 -0.0184,-0.05332 0.0564,-0.123059 0.0221,-0.167812 -0.0172,-0.02238 -0.0562,-0.01643 -0.0839,-0.01103 -0.46627,0.09015 -0.53953,0.147985 -0.98918,0.38205 -1.26154,0.656699 -1.63176,0.724761 -1.83034,2.23465 -0.031,0.235493 -0.0862,0.445605 -0.004,0.682292 0.31178,0.90178 1.60237,1.566512 1.27419,2.64296 -0.26973,0.884741 -1.38089,0.970346 -2.06665,1.435351 -0.11673,0.07917 -0.18397,0.21664 -0.29586,0.30252 -0.39462,0.302891 -0.46364,0.235888 -0.61379,0.772852 -0.0624,0.223209 -0.12431,0.624668 -0.0264,0.850105 0.0318,0.07319 0.11052,0.118292 0.14575,0.189885 0.23832,0.484396 -0.0251,0.244691 0.34228,0.642521 0.069,0.07475 0.17528,0.114965 0.22965,0.20092 0.0675,0.106628 0.0713,0.24291 0.12367,0.357697 0.0181,0.0398 0.26004,0.407107 0.26941,0.547579 0.006,0.08444 -0.0455,0.168017 -0.0331,0.251725 0.0186,0.124791 0.0952,0.234804 0.12368,0.357697 0.0599,0.258081 0.0484,0.598109 0.0575,0.861135 0.0179,0.519593 -0.11633,0.645068 -0.39518,1.057679 -0.10918,0.161513 -0.19377,0.466101 -0.2561,0.64918 -0.0763,0.224024 -0.0686,1.555001 -0.12581,1.605253 -0.16886,0.148463 -1.18419,0.229984 -1.3248,0.337909 -0.0494,0.03791 -0.0347,0.264691 -0.0438,0.335674"
         id="path2219" />
      <path
         style="fill:#ff0000;stroke:#000000;stroke-width:0.2"
         d="m 103.72606,29.411155 c 0.59886,-1.514395 2.12894,-2.452218 2.67516,-3.989058 0.0377,-0.106327 0.10619,-0.20637 0.11301,-0.319097 0.0426,-0.67502 -0.84148,-1.876564 -0.6985,-2.583443 0.0559,-0.276512 0.18865,-0.53172 0.28297,-0.79758 0.35436,-0.998075 0.80529,-1.477672 1.8302,-1.864353 0.52464,-0.197938 2.02332,-0.610355 2.4009,-0.943003 0.19514,-0.171927 0.29774,-0.428631 0.41456,-0.660998 0.50932,-1.013088 0.19321,-1.251716 -0.52124,-2.07137 -1.53054,-1.755937 0.67492,0.794402 -0.86131,-1.114455 -0.11866,-0.147427 -0.28882,-0.251592 -0.39343,-0.409274 -0.1778,-0.267948 -0.11744,-0.979877 0.0777,-1.229762 0.0627,-0.08013 0.16109,-0.124356 0.24452,-0.182545 0.2752,-0.191967 0.72059,-0.361991 0.67683,-0.388152 -0.12105,-0.07238 -0.26579,-0.09451 -0.39872,-0.141673 -0.95699,-0.340165 -2.24078,-0.670348 -3.02828,0.181138 -0.93035,1.00596 -0.92532,2.127953 -0.95109,3.434205 -0.0113,0.570303 0.0794,1.119959 -0.06,1.685155 -0.16949,0.687058 -0.4077,0.654419 -0.82382,1.054432 -0.40745,0.391668 -1.01172,1.078352 -1.05056,1.69237 -0.023,0.36045 0.4449,1.108247 0.56012,1.456487 0.1216,0.367462 0.16516,0.847376 0.18977,1.23504 0.0453,0.713406 -0.75368,2.238784 -1.25951,2.785704 -0.069,0.07469 -0.18543,0.09975 -0.2445,0.182547 -0.27836,0.390065 0.0268,0.219121 -0.19799,0.558339 -0.0223,0.03317 -0.0761,0.02754 -0.1081,0.05139 -0.31978,0.238742 -0.3362,0.308196 -0.75659,0.359811"
         id="path2221" />
      <path
         style="fill:#ff0000;stroke:#000000;stroke-width:0.2"
         d="m 100.05035,13.176427 c 0.40034,-0.711296 1.5039,-1.027888 1.95813,-1.646775 0.81218,-1.106594 0.19856,-2.3377537 -0.37355,-3.3580983 -0.71672,-1.2782615 -1.59269,-2.1189621 -1.00232,-3.622999 0.0188,-0.049131 0.31049,-0.6144781 0.3693,-0.6873107 0.17071,-0.2114124 0.88423,-0.8494832 0.7742,-1.1887657 -0.24129,-0.7439449 -0.57397,-0.7293892 -1.05119,-1.2629771 -0.12041,-0.1346386 -0.17756,-0.3239999 -0.3156,-0.44050373 -0.13113,-0.1106746 -0.32385,-0.1227037 -0.465848,-0.2190428 -0.08417,-0.057105 -0.117859,-0.16976763 -0.198528,-0.2317166 C 99.626023,0.42691447 99.04405,0.26715 98.930309,0.2889387 c -0.07836,0.0150121 -0.135308,0.0859688 -0.208787,0.11706713 -0.09367,0.0396437 -0.213011,0.0279602 -0.29025,0.094137 -0.04709,0.0403481 -0.364549,0.67847567 -0.369296,0.68731117 -0.177792,0.3308887 -0.220978,0.3055419 -0.287834,0.710241 -0.01896,0.1147561 -0.0038,0.232654 -0.01026,0.3487835 -0.008,0.1436191 -0.07348,0.2921874 -0.03319,0.4302461 0.03955,0.1353882 0.19772,0.2081528 0.257064,0.3361101 0.02759,0.059482 0.20059,0.7568472 0.200947,0.8478206 7.02e-4,0.1782922 -0.169159,0.835651 -0.275196,0.9775512 -0.303569,0.4064095 -0.848559,0.7335932 -1.12298,1.1785092 -0.04442,0.072031 -0.03032,0.1690067 -0.06875,0.2444012 -0.06939,0.1360056 -0.283183,0.2267211 -0.359039,0.3385274 -0.119927,0.1767539 -0.168648,0.4666866 -0.369298,0.687311 -0.336108,0.3695656 -0.836788,0.7383686 -1.041516,1.2014393 -0.05961,0.1348267 -0.158448,0.5483011 -0.101979,0.6746356 0.05149,0.1151783 0.201042,0.1562504 0.279993,0.2546465 0.0749,0.093346 0.117067,0.2087875 0.175601,0.3131808 0.139998,0.1273217 0.300164,0.2355057 0.41999,0.3819695 0.101047,0.123513 0.139428,0.289138 0.234134,0.417573 0.200208,0.271512 0.788882,0.816312 0.806796,1.194188 0.0098,0.207554 -0.163924,0.381326 -0.241976,0.547313 -0.170952,0.363581 -0.1089,0.266878 -0.486364,0.478524"
         id="path2223" />
      <path
         style="fill:#ff0000;stroke:#000000;stroke-width:0.2"
         d="M 91.286346,12.621219 C 90.521617,10.354118 90.113746,9.0456448 88.021114,7.4759672 87.562147,7.1316972 86.830084,6.9899976 86.497621,6.4856721 86.19977,6.0338509 86.464714,4.9985119 86.515489,4.447613 86.536202,4.2228881 86.629041,3.9931808 86.577627,3.7734382 86.554454,3.6744014 86.46933,3.5998525 86.432385,3.5050883 86.399981,3.4219744 86.421992,3.3179882 86.371415,3.2445055 86.291443,3.128319 86.155844,3.0618556 86.057629,2.9606211 85.97429,2.8747209 85.923356,2.7569833 85.828114,2.684504 85.213558,2.2168227 84.255945,2.0296736 83.515106,1.9613918 c -0.45084,-0.041558 -0.993596,-0.1804171 -1.44039,-0.047771 -0.223576,0.066377 -0.407187,0.1993704 -0.620971,0.2827173 -0.200165,0.078037 -0.41848,0.107683 -0.613204,0.1984453 -0.649768,0.3028598 -2.263866,1.5958831 -2.010493,2.4493168 0.08673,0.2921337 0.390096,0.5483708 0.612038,0.7363123 0.882429,0.7472431 1.869998,1.3298392 2.886211,1.880784 0.936185,0.5075578 0.107744,-0.1262251 0.796115,0.583303 0.07082,0.073001 0.18398,0.105219 0.237282,0.1918453 0.02957,0.048052 -0.02147,0.1124382 -0.01553,0.1685437 0.0747,0.7055476 -0.145277,1.4075306 -0.109906,2.1145645 0.03934,0.786383 1.29484,1.510454 1.391451,2.422917 0.03367,0.317999 -0.125243,0.939147 -0.200779,1.25631 -0.08646,0.363061 -0.222402,0.173831 -0.146406,0.666408 0.0155,0.100517 0.113925,0.171579 0.145242,0.26835 0.03581,0.110661 0.005,0.238998 0.0532,0.344855 0.13509,0.296717 0.59774,0.80597 0.841552,1.012429 0.277688,0.235147 1.138219,0.559939 1.094366,1.035731"
         id="path2225" />
      <path
         style="fill:#ff0000;stroke:#000000;stroke-width:0.2"
         d="m 89.045134,25.954216 c -0.973279,-0.0089 -2.097128,-0.04781 -3.02982,-0.361787 -1.103934,-0.37162 -2.933365,-1.294609 -2.868818,-2.73952 0.0367,-0.821584 0.161024,-2.021101 0.41577,-2.848448 0.215183,-0.698846 0.708054,-1.345986 0.715065,-2.108279 0.0085,-0.92068 -0.385922,-1.827207 -0.643099,-2.691223 -0.03399,-0.114176 -0.260746,-0.820917 -0.255251,-0.990207 0.0082,-0.253753 0.05317,-0.508817 0.132099,-0.750119 0.09218,-0.281708 1.310758,-1.619499 0.935743,-1.897546 -0.407432,-0.302081 -1.176908,-0.379156 -1.637562,-0.460292 -0.277821,-0.04894 -0.555074,-0.192392 -0.833462,-0.146802 -1.224578,0.20055 -2.401516,2.013992 -2.450174,3.177576 -0.03518,0.841191 0.02005,0.602025 0.461249,1.284285 0.162838,0.251808 0.293936,0.52392 0.465982,0.769529 0.830536,1.185653 2.120363,2.254151 2.344594,3.764298 0.09171,0.617636 -0.705563,0.884757 -1.068341,1.186738 -0.109956,0.09152 -0.816885,0.8048 -0.940955,0.95138 -0.457431,0.540421 -0.460443,0.943935 -0.626985,1.608201 -0.154654,0.616842 -0.339088,1.021777 -0.210256,1.681602 0.161341,0.826305 0.46455,1.725265 0.853832,2.470545 0.131223,0.412271 0.47078,0.695657 0.67198,1.063607 0.167319,0.305987 0.30637,0.76395 0.407263,1.102914 0.04334,0.1456 0.03223,0.30699 0.09329,0.44609 0.06414,0.146119 0.200028,0.251056 0.274664,0.392105 0.07693,0.145388 0.08227,0.326046 0.176639,0.46077 0.668201,0.953907 1.851344,1.213025 2.652873,2.01403 0.138273,0.138183 0.57184,0.459601 0.564009,0.700863 -0.01791,0.551695 -0.474124,1.117007 -0.862343,1.480816 -0.08733,0.08184 -0.208674,0.122151 -0.294078,0.205998 -0.508107,0.498846 0.04079,0.121587 -0.436144,0.524703 -0.158165,0.133684 -0.321659,0.167044 -0.406785,0.35801 -0.07707,0.172896 -0.0848,0.481496 -0.117465,0.666765"
         id="path2227" />
      <path
         style="fill:#ff0000;stroke:#000000;stroke-width:0.2"
         d="m 83.30056,40.886673 c -0.6137,-0.507868 -0.682476,-1.405141 -0.906286,-2.12471 -0.218343,-0.701994 -0.361756,-0.906495 -0.440116,-1.656125 -0.146161,-1.398278 0.45839,-2.822643 -0.556529,-4.046963 -0.408164,-0.492378 -0.852336,-0.955529 -1.314248,-1.397877 -0.810422,-0.776095 -1.99277,-1.413544 -1.870145,-2.724834 0.121384,-1.29849 0.876011,-2.407804 1.273583,-3.620826 0.149578,-0.456372 0.16663,-0.872963 0.210339,-1.340303 0.01313,-0.140435 0.06368,-0.282364 0.03937,-0.421309 -0.201766,-1.154562 -1.920743,-1.821488 -2.775796,-2.129541 -0.293142,-0.105607 -0.613864,-0.107849 -0.918996,-0.170935 -0.711754,-0.14717 -1.048714,-0.249021 -1.487602,0.455876 -0.547523,0.879374 -0.715764,2.188362 -0.467951,3.186174 0.0079,0.03184 0.569091,1.456312 0.616518,1.587622 0.382759,1.059754 0.835307,2.194352 0.964492,3.32013 0.05384,0.469217 0.02902,1.068501 -0.141792,1.516709 -0.339134,0.889662 -0.994364,1.493899 -0.918362,2.549066 0.03544,0.492039 0.222985,0.728446 0.487393,1.150556 0.191776,0.306156 0.37327,0.620672 0.595295,0.905652 0.593983,0.762408 1.371088,1.312937 1.656759,2.27989 0.221757,0.750615 -0.02765,1.535273 -0.04423,2.290817 -0.0029,0.130076 0.03646,0.840134 0.07397,1.026896 0.07107,0.353848 0.175841,0.436018 0.181867,0.781993 0.0025,0.141026 -0.05406,0.281022 -0.03937,0.421309 0.03983,0.381003 0.279489,1.274823 0.532257,1.579743 0.56494,0.681502 3.070418,1.012174 4.102755,1.573646 0.226937,0.123427 0.598892,0.170821 0.726834,0.407963 0.155188,0.287642 0.08134,0.947993 0.05033,1.27968"
         id="path2229" />
      <path
         style="fill:#ff6600;stroke:#000000;stroke-width:0.2"
         d="m 108.14596,40.025443 c 0.0393,-0.451518 0.18021,-0.9005 0.0926,-1.353542 -0.0288,-0.149145 -0.0953,-0.290678 -0.11263,-0.441602 -0.01,-0.08408 0.0387,-0.167278 0.0331,-0.251725 -0.0121,-0.181918 -0.0946,-0.319414 -0.0177,-0.514481 0.0581,-0.147277 0.14771,-0.442748 0.24506,-0.565273 0.15623,-0.196705 0.4189,-0.354902 0.50782,-0.616075 0.1174,-0.344763 0.14668,-0.933264 0.0816,-1.269629 -0.008,-0.03918 -0.0598,-0.05724 -0.0729,-0.09495 -0.0658,-0.190584 -0.0613,-0.489407 0.004,-0.682293 0.18057,-0.530364 0.67357,-0.88328 0.86989,-1.422033 0.15003,-0.411833 0.30889,-1.138008 0.29356,-1.58319 -0.0107,-0.313144 -0.23777,-0.555971 -0.14137,-0.872171 0.0952,-0.312565 0.40773,-0.70739 0.63587,-0.940665 0.27408,-0.280255 0.68936,-0.474324 0.63586,-0.940665 -0.0105,-0.09125 -0.0179,-0.286202 -0.12367,-0.357697 -0.15618,-0.105566 -0.59691,-0.354261 -0.81699,-0.278167 -0.23494,0.08123 -0.12425,0.251323 -0.22299,0.397462 -0.0964,0.142587 -0.28661,0.244184 -0.39081,0.375391 -0.14776,0.186047 -0.0648,0.245524 -0.22299,0.397461 -0.0863,0.08292 -0.21039,0.124891 -0.28483,0.218612 -0.0351,0.04418 -0.0147,0.111876 -0.0221,0.167814 -0.0353,0.05226 -0.0619,0.111677 -0.10595,0.15678 -0.11579,0.118405 -0.34175,0.306974 -0.40185,0.459297 -0.0666,0.168842 -0.21907,0.705405 -0.20525,0.911942 0.0325,0.487887 0.0264,0.06068 0.19654,0.452638 0.13213,0.304286 -0.0276,0.192845 0.11265,0.441604 0.21076,0.374388 0.39629,0.947315 0.24296,1.39768 -0.10728,0.315176 -0.39408,0.504522 -0.52989,0.783888 -0.037,0.07611 -0.006,0.171607 -0.0331,0.251724 -0.0406,0.119431 -0.1713,0.194129 -0.21196,0.313555 -0.14755,0.43347 -0.19397,1.562621 -0.32673,1.834901 -0.16423,0.337815 -0.40448,0.310458 -0.66459,0.510098 -0.11564,0.08875 -0.0639,0.182298 -0.20092,0.229648 -0.0267,0.0092 -0.0615,-0.02821 -0.0839,-0.01103 -0.0982,0.07537 -0.19037,0.370725 -0.23402,0.48137 -0.16458,0.417212 -0.0274,1.680634 -0.33771,1.918814"
         id="path2294" />
      <path
         style="fill:#ff6600;stroke:#000000;stroke-width:0.2"
         d="m 103.54157,27.908546 c 0.0567,-0.159484 0.11301,-0.319097 0.16998,-0.478481 0.0671,-0.188607 0.11031,-0.578614 0.25495,-0.717722 0.0541,-0.05203 0.64486,-0.378185 0.67684,-0.388149 0.14601,-0.04548 0.14466,0.162602 0.26757,0.0053 0.16195,-0.207311 0.44258,-0.724477 0.44814,-1.008323 0.001,-0.06307 -0.0291,-0.125043 -0.023,-0.187812 0.006,-0.05615 0.0705,-0.104767 0.0567,-0.159482 -0.0154,-0.06118 -0.12346,-0.07382 -0.13114,-0.136423 -0.0102,-0.08398 0.0728,-0.155477 0.085,-0.239239 0.0181,-0.12484 -0.0583,-0.250087 -0.0462,-0.375655 0.006,-0.05615 0.0635,-0.103493 0.0567,-0.159485 -0.0363,-0.295103 -0.16711,-0.119604 -0.12586,-0.403994 0.0122,-0.08373 0.0728,-0.155476 0.085,-0.239239 0.0328,-0.22613 -0.0465,-0.488662 -0.0125,-0.722962 0.0137,-0.0949 0.1114,-0.219397 0.11301,-0.319097 0.0112,-0.569892 0.15821,-1.202666 0.43567,-1.731273 0.6282,-1.196761 -0.13937,0.186468 0.38094,-0.313688 0.10378,-0.09967 0.11774,-0.270688 0.22148,-0.370359 0.0863,-0.08293 0.22609,-0.08573 0.32425,-0.154205 0.10352,-0.07216 0.16937,-0.190112 0.27285,-0.262286 0.0982,-0.06846 0.22835,-0.08261 0.32424,-0.154206 0.0716,-0.05336 0.096,-0.154162 0.16481,-0.210875 0.1295,-0.106652 0.32283,-0.182435 0.46067,-0.285347 0.23487,-0.175352 0.52184,-0.671819 0.52793,-0.979968 9.9e-4,-0.03989 -0.0465,-0.06849 -0.0514,-0.108093 -0.0217,-0.17631 0.022,-0.439897 0.0386,-0.614892 0.0322,-0.332503 0.15491,-0.811574 0.0493,-1.150027 -0.0187,-0.06022 -0.11576,-0.07525 -0.13115,-0.136422 -0.0138,-0.05471 0.0635,-0.103493 0.0567,-0.159485 -0.0496,-0.404417 -0.52764,-0.727069 -0.48567,-1.160575 0.0126,-0.133445 0.10617,-0.688449 0.0956,-0.774364 -0.008,-0.06147 -0.21481,-0.166166 -0.29064,-0.193103 -0.0531,-0.01889 -0.10853,-0.08091 -0.15948,-0.05668 -0.0254,0.01212 -0.006,0.06284 -0.0283,0.07974 -0.0639,0.04775 -0.16342,0.04291 -0.21617,0.102802 -0.0558,0.06354 -0.044,0.165225 -0.085,0.239241 -0.13965,0.251572 -0.30103,0.485098 -0.4429,0.74074 -0.10945,0.197335 -0.1281,0.434952 -0.22694,0.637866 -0.0389,0.08024 -0.12144,0.132899 -0.1648,0.210875 -0.30546,0.550444 -0.56666,1.594183 -0.79382,2.232692 -0.1274,0.357141 -0.33028,0.74304 -0.39691,1.116347 -0.0872,0.489506 -0.0343,0.962988 0.025,1.445929 0.0173,0.140012 0.12865,0.262971 0.12586,0.403991 -0.003,0.141023 -0.11122,0.260997 -0.14196,0.398624 -0.11701,0.530152 -0.30873,1.050451 -0.29925,1.600129 0.006,0.367203 0.009,0.775999 0.13836,1.126956 0.0414,0.112283 0.13304,0.20645 0.1542,0.324252 0.0354,0.197238 -0.0115,0.585754 -0.0158,0.802705 -0.0111,0.562638 -0.74154,0.552951 -1.08612,0.781583 -0.15404,0.102206 -0.16366,0.209771 -0.30118,0.342029 -0.22328,0.214631 -0.57278,0.385341 -0.76187,0.627378 -0.0694,0.08893 -0.061,0.219049 -0.11301,0.319096 -0.16208,0.308872 -0.52075,0.454394 -0.63073,0.763803"
         id="path2296" />
      <path
         style="fill:#ff6600;stroke:#000000;stroke-width:0.2"
         d="m 99.375717,13.074452 c 0.259111,-0.672677 0.194416,-1.330372 0.03861,-2.011238 -0.06359,-0.277834 -0.08196,-0.581613 -0.200947,-0.847821 -0.441897,-0.9885612 0.0863,0.276274 -0.374135,-0.5448973 -0.228261,-0.4070991 0.30908,-1.4173355 0.341532,-1.8380557 0.03296,-0.4273498 0.100686,-0.8825311 0.0181,-1.3136714 -0.01081,-0.056448 -0.460387,-0.5691758 -0.537058,-0.5907568 -0.02715,-0.00764 -0.0089,0.056971 -0.02293,0.081463 -0.08855,0.1548882 -0.188422,0.3041093 -0.300506,0.442921 -0.586333,0.726153 -1.026002,1.1463199 -1.293746,2.097537 -0.03822,0.1357724 -0.110502,0.2663304 -0.114617,0.4073263 -0.0045,0.1512736 0.137886,1.0718339 0.190691,1.1966049 0.04665,0.110216 0.138677,0.199334 0.175601,0.31318 0.02752,0.08486 -0.01485,0.182465 0.01268,0.267321 0.03692,0.113842 0.128952,0.202961 0.1756,0.313179 0.107166,0.253216 0.190676,0.53277 0.305341,0.789288 0.06512,0.145686 0.204111,0.260845 0.234134,0.417574 0.03277,0.171064 -0.166282,0.710696 -0.310766,0.791703"
         id="path2298" />
      <path
         style="fill:#ff6600;stroke:#000000;stroke-width:0.2"
         d="m 89.591975,13.484904 c -0.103642,-0.493119 -0.233314,-0.399925 -0.535532,-0.644273 -0.09307,-0.07525 -0.134273,-0.203638 -0.229515,-0.276116 -0.12089,-0.092 -0.28036,-0.121726 -0.405824,-0.20738 -0.323688,-0.220975 -1.369383,-1.033951 -1.576697,-1.33515 -0.276268,-0.401378 -0.402322,-1.1674756 -0.358055,-1.6477682 0.01823,-0.1977513 0.147462,-0.6636954 0.0777,-0.8427157 -0.175634,-0.4504233 -0.774222,-0.837779 -1.078864,-1.2042776 -0.08064,-0.097018 -0.08277,-0.238942 -0.137475,-0.3526218 -0.105227,-0.2186673 -0.278842,-0.402645 -0.366989,-0.6287389 -0.02049,-0.052566 0.03603,-0.115978 0.01553,-0.1685437 -0.02898,-0.074339 -0.118411,-0.1121807 -0.153009,-0.184078 -0.03868,-0.080384 -0.0039,-0.191981 -0.06097,-0.2605829 -0.05702,-0.068602 -0.160856,-0.078086 -0.245048,-0.1075734 -0.243211,-0.085182 -0.177474,0.3930274 -0.215147,0.4900968 -0.04565,0.1176107 -0.157911,0.2024871 -0.199613,0.3215531 -0.0745,0.212705 -0.07475,1.0464101 -0.03223,1.2718454 0.02338,0.1239724 0.108734,0.229782 0.137476,0.3526219 0.01285,0.054936 -0.02839,0.1136077 -0.01553,0.1685437 0.02874,0.1228396 0.114097,0.2286494 0.137475,0.3526218 0.01569,0.083163 -0.02949,0.1684135 -0.02326,0.2528191 0.0065,0.088967 0.05651,0.171487 0.06097,0.260583 0.03478,0.6952138 -0.2151,1.1015544 0.0897,1.7930094 0.03218,0.07301 0.115031,0.113908 0.153009,0.184079 0.06005,0.110949 0.07388,0.243666 0.137476,0.352622 0.19699,0.33749 0.526773,0.621807 0.673007,0.996895 0.0648,0.166227 0.06475,0.352166 0.121941,0.521165 0.10726,0.31695 0.362624,0.904335 0.573202,1.157672 0.04032,0.04851 0.126059,0.04714 0.160777,0.0998 0.06943,0.105325 0.06804,0.247292 0.137474,0.352622 0.03472,0.05267 0.120455,0.0513 0.160777,0.0998 0.08064,0.09702 0.04392,0.267984 0.137475,0.352622 0.06616,0.05985 0.173089,0.05485 0.245048,0.107574 0.06436,0.04716 0.09384,0.130549 0.153009,0.184078 0.16034,0.14506 0.397328,0.145195 0.574369,0.222915 0.115517,0.05071 0.200639,0.163621 0.321554,0.199612 0.108149,0.03219 0.264958,-0.05571 0.337086,0.03108 0.03606,0.04339 -0.01036,0.112362 -0.01553,0.168544"
         id="path2300" />
      <path
         style="fill:#ff6600;stroke:#000000;stroke-width:0.2"
         d="m 87.614527,28.70985 c -0.57769,0.225649 -1.205011,0.128512 -1.794309,-0.05824 -0.221753,-0.07028 -0.416322,-0.211787 -0.637409,-0.284132 -0.160865,-0.05264 -0.341326,-0.02937 -0.500073,-0.0881 -0.312286,-0.115478 -0.70826,-0.48958 -0.897393,-0.759582 -0.11671,-0.166613 -0.128595,-0.392185 -0.245305,-0.558798 -0.05835,-0.0833 -0.170106,-0.122481 -0.220678,-0.210732 -0.242677,-0.423457 -0.0055,-0.283704 -0.132599,-0.710809 -0.06923,-0.232584 -0.209313,-0.437881 -0.31397,-0.656823 -0.19072,-0.398983 -0.625565,-0.775001 -0.740646,-1.161633 -0.03174,-0.10663 0.02293,-1.214861 -0.142545,-1.142219 -1.152542,0.505951 -1.305714,1.682293 -0.636453,2.637715 0.235186,0.335747 0.744275,0.510496 0.868034,0.926276 0.04857,0.163194 -0.114904,0.411759 -0.102733,0.583427 0.0045,0.06292 0.04954,0.118451 0.05398,0.181372 0.004,0.05628 -0.05204,0.11503 -0.02936,0.166691 0.02535,0.05776 0.129433,0.05381 0.152013,0.112704 0.04163,0.108604 -0.02554,0.243126 0.02463,0.348064 0.06083,0.127257 0.200916,0.198873 0.289345,0.308759 0.100046,0.124322 0.159254,0.281897 0.274664,0.392104 0.109867,0.104911 0.274466,0.138453 0.38737,0.240093 0.08895,0.08008 0.117049,0.214003 0.205998,0.294078 0.112904,0.101639 0.26534,0.149615 0.387371,0.240092 0.435005,0.322525 0.849759,0.677151 1.284764,0.999675 0.07165,0.05313 0.184178,0.05432 0.235358,0.127387 0.03237,0.04621 -0.05204,0.115031 -0.02936,0.166693 0.02535,0.05776 0.126658,0.05494 0.152012,0.112704 0.0065,0.01471 -0.07382,0.701536 -0.06345,0.848141 0.02562,0.362111 0.348197,0.601379 0.53465,0.867555 0.05835,0.0833 0.05545,0.203046 0.122652,0.279398 0.05894,0.06696 0.176421,0.06042 0.235358,0.127387 0.0672,0.07635 0.0643,0.196093 0.122651,0.279399 0.160358,0.228921 0.592693,0.538013 0.53465,0.867554"
         id="path2302" />
      <path
         style="fill:#ff6600;stroke:#000000;stroke-width:0.2"
         d="m 83.675222,44.151645 c -0.432759,-0.663553 -1.160263,-0.997066 -1.727676,-1.521537 -0.175779,-0.162476 -0.28947,-0.383151 -0.45829,-0.552846 -0.14347,-0.144213 -0.370239,-0.209383 -0.47405,-0.384324 -0.223869,-0.377265 -0.06708,-0.726404 -0.06609,-1.111158 0.0018,-0.690546 0.0045,-1.181058 0.173324,-1.853754 0.08829,-0.351817 0.344684,-1.194423 0.149725,-1.600966 -0.08964,-0.186918 -0.330598,-0.467632 -0.450411,-0.637108 -0.106211,-0.150236 -0.715188,-0.719319 -0.771696,-0.83715 -0.152985,-0.318999 -0.231966,-1.278294 -0.632278,-1.419099 -0.302536,-0.106417 -0.190671,0.07841 -0.413428,-0.123658 -0.0591,-0.0536 -0.08099,-0.149431 -0.152763,-0.184282 -0.499643,-0.242597 -0.384482,-0.01646 -0.742594,-0.23944 -0.06673,-0.04154 -0.145164,-0.346041 -0.229145,-0.276424 -0.108063,0.08958 -0.108759,0.453993 -0.139423,0.581951 -0.113739,0.47477 -0.32417,1.015449 0.03457,1.448203 0.05693,0.06868 0.171909,0.05662 0.244905,0.107901 0.211595,0.148643 0.655768,0.526326 0.687434,0.829271 0.06093,0.582903 -0.29132,1.476286 -0.189089,2.022276 0.147977,0.790488 0.736557,1.45288 0.982667,2.216851 0.0173,0.0537 -0.02428,0.112752 -0.01576,0.168522 0.0095,0.06236 0.05897,0.114049 0.0685,0.176403 0.04836,0.316272 -0.166996,0.699665 -0.09459,1.011133 0.01495,0.06427 0.184428,0.497141 0.205506,0.529208 0.113904,0.173288 0.368137,0.264167 0.46617,0.468585 0.05455,0.113752 0.05649,0.25568 0.137005,0.352805 0.05693,0.06868 0.187972,0.03922 0.244904,0.107902 0.05693,0.06868 0.01398,0.184625 0.06062,0.260663 0.05318,0.0867 0.172113,0.113855 0.237025,0.192163 0.09002,0.10859 0.116797,0.265917 0.221266,0.360684 0.14554,0.132025 0.951339,0.552205 1.13238,0.615885 0.133058,0.0468 0.301571,-0.03515 0.421311,0.03936 0.192009,0.11955 0.490804,0.215895 0.742594,0.239441"
         id="path2304" />
    </g>
    <g
       id="g1123"
       inkscape:label="Head"
       transform="matrix(-0.87037075,0,0,-0.87037075,60.626863,64.176591)">
      <g
         id="g1084"
         inkscape:label="right ear">
        <ellipse
           style="fill:#a05a2c;stroke:#000000;stroke-width:0.264367"
           id="ellipse349"
           cx="60.746616"
           cy="24.297089"
           rx="3.5559995"
           ry="3.5942733"
           inkscape:label="Right Ear"
           transform="matrix(0.01874032,0.99982438,0.99982438,-0.01874032,0,0)" />
        <ellipse
           style="fill:#d35f5f;stroke:#000000;stroke-width:0.228018"
           id="ellipse1052"
           cx="26.198057"
           cy="59.668121"
           rx="2.1633768"
           ry="1.8420794"
           inkscape:label="Right in ear" />
      </g>
      <g
         id="g1080"
         inkscape:label="left ear">
        <ellipse
           style="fill:#a05a2c;stroke:#000000;stroke-width:0.264375"
           id="path188"
           cx="-60.73999"
           cy="41.056034"
           rx="3.5562177"
           ry="3.5942693"
           inkscape:label="Left Ear"
           transform="rotate(-91.073804)" />
        <ellipse
           style="fill:#d35f5f;stroke:#000000;stroke-width:0.228018"
           id="path996"
           cx="41.541336"
           cy="59.152031"
           rx="2.1633768"
           ry="1.8420794"
           inkscape:label="Left in Ear" />
      </g>
      <ellipse
         style="fill:#a05a2c;stroke:#000000;stroke-width:0.228018"
         id="path186"
         cx="-51.603558"
         cy="32.549946"
         rx="11.311619"
         ry="11.604074"
         inkscape:label="Head"
         transform="rotate(-91.073804)" />
      <g
         id="g1090"
         inkscape:label="snout">
        <ellipse
           style="fill:#c87137;stroke:#000000;stroke-width:0.247051"
           id="path356"
           cx="-52.213757"
           cy="34.138432"
           rx="3.9541502"
           ry="3.9385307"
           transform="rotate(-91.073804)"
           inkscape:label="Snout" />
        <ellipse
           style="fill:#2b1100;stroke:#000000;stroke-width:0.228018"
           id="path362"
           cx="-53.420097"
           cy="34.280785"
           rx="0.82211679"
           ry="1.0114663"
           transform="rotate(-91.073804)"
           inkscape:label="Nostril" />
        <path
           style="fill:#c87137;stroke:#000000;stroke-width:0.235956"
           d="m 35.279998,51.872474 c -0.03665,-0.212978 -1.86e-4,-0.435884 -0.03669,-0.649272 -0.03796,-0.222334 -0.0254,0.02994 -0.02908,-0.192067 -0.004,-0.240634 -0.008,-0.481266 -0.01194,-0.721899 -0.0018,-0.111946 0.01928,-0.25231 -0.0061,-0.36095 -0.02948,-0.12677 -0.08654,-0.21062 -0.160507,-0.310197 -0.0282,-0.03795 -0.07255,-0.04151 -0.104727,-0.07044 -0.01386,-0.01245 -0.0111,-0.03719 -0.02668,-0.04769 -0.02207,-0.01486 -0.05255,-0.01376 -0.07806,-0.02274 -0.0592,-0.02089 -0.102062,-0.06925 -0.156909,-0.09363 -0.04201,-0.01868 -0.111717,-0.02577 -0.156108,-0.04549 -0.119376,-0.05304 0.110012,0.0081 -0.07846,-0.04681 -0.06422,-0.01872 -0.176037,-0.01853 -0.233762,-0.04418 -0.02804,-0.01247 -0.05041,-0.03435 -0.07845,-0.04681 -0.02327,-0.01041 -0.363783,-0.0015 -0.388271,0.0066 -0.04532,0.01489 -0.08823,0.06124 -0.128226,0.07438 -0.01629,0.0054 -0.03646,-0.0066 -0.05176,8.75e-4 -0.01531,0.0076 0.01502,0.03899 7.98e-4,0.04811 -0.02247,0.01445 -0.05303,0.01361 -0.07724,0.02537 -0.03249,0.01577 -0.04631,0.05411 -0.07645,0.07351 -0.108399,0.06972 -0.251364,0.122031 -0.35959,0.174571 -0.02614,0.0127 -0.04039,0.05335 -0.05057,0.07306 -0.01673,0.03239 -0.04317,0.06183 -0.05016,0.09713 -0.01492,0.07541 0.04099,0.218707 0.0048,0.288759 -0.031,0.06001 -0.02601,-0.0079 -0.0251,0.04856"
           id="path536"
           inkscape:label="Mouth right" />
        <path
           style="fill:#c87137;stroke:#000000;stroke-width:0.228018"
           d="m 35.168256,49.735974 c 0.04749,-0.174662 0.0039,-0.414927 0.125817,-0.567127 0.07107,-0.08869 0.345879,-0.108079 0.452974,-0.1088 0.06432,-4.69e-4 0.126892,0.02528 0.191209,0.026 0.03314,4.15e-4 0.06571,-0.01132 0.09886,-0.01087 0.07236,8.11e-4 0.142755,0.02845 0.215111,0.02925 0.07295,8e-4 0.148489,-0.01396 0.221612,-0.01854 0.07091,-0.0045 0.473379,0.04572 0.525824,0.07152 0.01978,0.0098 0.291865,0.206653 0.308613,0.236714 0.01238,0.0222 -0.0013,0.05471 0.01414,0.07495 0.0154,0.02024 0.05306,0.01343 0.06845,0.03366 0.0154,0.02024 0.0018,0.05276 0.01415,0.07495 0.01439,0.02582 0.0587,0.02305 0.06522,0.05756 0.01152,0.06082 0.0014,0.13767 0.0218,0.197711 0.03619,0.106237 0.0018,-0.02576 0.04456,0.03039 0.0096,0.01255 -0.01503,0.05628 -0.0097,0.0717 0.01647,0.04834 0.03921,0.06968 0.03156,0.126008"
           id="path538"
           inkscape:label="Mouth left" />
      </g>
      <g
         id="g1098"
         inkscape:label="Eyes"
         style="fill:#ff0000">
        <ellipse
           style="fill:#ff0000;stroke:#000000;stroke-width:0.228018"
           id="path358"
           cx="-56.51236"
           cy="36.68679"
           rx="0.72563249"
           ry="1.0116568"
           transform="rotate(-91.073804)"
           inkscape:label="Left Eye" />
        <ellipse
           style="fill:#ff0000;stroke:#000000;stroke-width:0.228018"
           id="ellipse360"
           cx="-56.502262"
           cy="31.573122"
           rx="0.72563249"
           ry="1.0116568"
           transform="rotate(-91.073804)"
           inkscape:label="Right Eye" />
      </g>
    </g>
    <g
       id="g1102"
       inkscape:label="Legs"
       transform="matrix(-0.87037075,0,0,-0.87037075,60.626863,64.176591)">
      <path
         id="path941"
         style="fill:#a05a2c;stroke:#000000;stroke-width:0.30735"
         d="m 40.900038,0.21570543 c -2.745076,0.0833541 -6.160358,-0.49280441 -5.347542,9.00025287 0.820546,9.5834367 -1.928727,7.8528107 2.836871,8.1514217 5.073194,0.317885 2.188046,3.231627 5.192607,-6.341421 C 46.338142,2.2443483 44.034446,0.12052984 40.900038,0.21570543 Z"
         sodipodi:nodetypes="sssss"
         inkscape:label="Left Leg" />
      <path
         id="path937"
         style="fill:#a05a2c;stroke:#000000;stroke-width:0.30735"
         d="m 24.949287,0.15676081 c 2.745077,0.0833541 6.16036,-0.49280441 5.347543,9.00025289 -0.820546,9.5834363 1.928727,7.8528113 -2.83687,8.1514223 -5.073195,0.317884 -2.188046,3.231627 -5.192608,-6.341421 C 19.511184,2.1854038 21.814881,0.06158522 24.949287,0.15676081 Z"
         sodipodi:nodetypes="sssss"
         inkscape:label="Right Leg" />
    </g>
    <g
       id="g1142"
       inkscape:label="Body"
       transform="matrix(-0.87037075,0,0,-0.87037075,60.626863,64.176591)">
      <path
         id="path753"
         style="fill:#a05a2c;stroke:#000000;stroke-width:0.250773"
         d="m 48.049715,18.405023 c -2.200096,-0.715885 -5.040674,2.328906 -4.792481,9.932573 0.250551,7.676059 -2.894762,15.676816 1.003041,14.579433 5.164908,-1.454124 2.667191,-5.270851 5.601307,-12.75817 2.691542,-6.868316 0.705849,-10.934598 -1.811867,-11.753836 z"
         sodipodi:nodetypes="sssss"
         inkscape:label="Left Arm" />
      <path
         id="rect641"
         style="fill:#a05a2c;stroke:#000000;stroke-width:0.228018"
         d="M 21.017999,37.282216 20.76095,23.568278 c -0.06973,-3.720891 2.869631,-6.772559 6.590522,-6.842302 L 38.658011,16.51405 c 2.515123,-0.04714 6.7926,3.93883 6.842301,6.590522 l 0.257049,13.713939 c 0.06973,3.720892 -1.862706,7.305508 -4.175662,6.176791 l -3.236922,-1.579611 -5.986484,1.074556 c -7.455902,0.05049 -3.997241,1.303512 -6.52415,1.374193 -4.393154,0.122882 -4.746401,-2.861334 -4.816144,-6.582224 z"
         sodipodi:nodetypes="sssssssccss"
         inkscape:label="Torso" />
      <path
         id="path698"
         style="fill:#a05a2c;stroke:#000000;stroke-width:0.250773"
         d="m 20.262703,19.500085 c 2.171721,-0.797831 5.124407,2.138373 5.161327,9.746001 0.03728,7.680055 3.480204,15.557325 -0.455984,14.606778 -5.215774,-1.259551 -2.86284,-5.167196 -6.075473,-12.539304 -2.947035,-6.762629 -1.115118,-10.900465 1.37013,-11.813475 z"
         sodipodi:nodetypes="sssss"
         inkscape:label="Right Arm" />
      <g
         id="g1130"
         inkscape:label="Bow"
         style="fill:#d40000">
        <rect
           style="fill:#d40000;stroke:#000000;stroke-width:0.276425"
           id="rect814"
           width="4.2390065"
           height="9.5221701"
           x="39.899395"
           y="65.690269"
           ry="1.9376839"
           rx="0"
           transform="matrix(0.59263975,-0.80546764,0.11499974,0.99336552,0,0)"
           inkscape:label="right ribbon" />
        <rect
           style="fill:#d40000;stroke:#000000;stroke-width:0.276425"
           id="rect880"
           width="4.2390065"
           height="9.5221701"
           x="-62.057526"
           y="-16.99601"
           ry="0"
           rx="0"
           transform="matrix(-0.58801179,-0.80885236,-0.1206934,0.99268983,0,0)"
           inkscape:label="left ribbon" />
        <rect
           style="fill:#d40000;stroke:#000000;stroke-width:0.228161"
           id="rect878"
           width="5.2320385"
           height="5.2131429"
           x="-43.171627"
           y="38.415928"
           rx="1.2338897"
           ry="1.2416016"
           transform="matrix(-0.99999589,-0.00286681,-0.05311721,0.99858828,0,0)"
           inkscape:label="left bow" />
        <rect
           style="fill:#d40000;stroke:#000000;stroke-width:0.228161"
           id="rect874"
           width="5.2320385"
           height="5.2131429"
           x="27.090349"
           y="38.525002"
           rx="1.2338897"
           ry="1.2416016"
           transform="matrix(0.99999589,0.00286681,0.04739084,0.99887642,0,0)"
           inkscape:label="right bow" />
        <rect
           style="fill:#d40000;stroke:#000000;stroke-width:0.198734"
           id="rect808"
           width="4.3505058"
           height="3.8685675"
           x="32.764198"
           y="39.003792"
           ry="1.9342837"
           transform="rotate(0.16425609)"
           inkscape:label="mid bow" />
      </g>
    </g>
  </g>
  <g
     id="g2593"
     inkscape:label="Bear  walk 2"
     transform="translate(-63,63.6)">
    <g
       id="g2565"
       inkscape:label="Head"
       transform="matrix(-0.87037075,0,0,-0.87037075,60.626863,64.176591)">
      <g
         id="g2539"
         inkscape:label="right ear">
        <ellipse
           style="fill:#a05a2c;stroke:#000000;stroke-width:0.264367"
           id="ellipse2535"
           cx="60.746616"
           cy="24.297089"
           rx="3.5559995"
           ry="3.5942733"
           inkscape:label="Right Ear"
           transform="matrix(0.01874032,0.99982438,0.99982438,-0.01874032,0,0)" />
        <ellipse
           style="fill:#d35f5f;stroke:#000000;stroke-width:0.228018"
           id="ellipse2537"
           cx="26.198057"
           cy="59.668121"
           rx="2.1633768"
           ry="1.8420794"
           inkscape:label="Right in ear" />
      </g>
      <g
         id="g2545"
         inkscape:label="left ear">
        <ellipse
           style="fill:#a05a2c;stroke:#000000;stroke-width:0.264375"
           id="ellipse2541"
           cx="-60.73999"
           cy="41.056034"
           rx="3.5562177"
           ry="3.5942693"
           inkscape:label="Left Ear"
           transform="rotate(-91.073804)" />
        <ellipse
           style="fill:#d35f5f;stroke:#000000;stroke-width:0.228018"
           id="ellipse2543"
           cx="41.541336"
           cy="59.152031"
           rx="2.1633768"
           ry="1.8420794"
           inkscape:label="Left in Ear" />
      </g>
      <ellipse
         style="fill:#a05a2c;stroke:#000000;stroke-width:0.228018"
         id="ellipse2547"
         cx="-51.603558"
         cy="32.549946"
         rx="11.311619"
         ry="11.604074"
         inkscape:label="Head"
         transform="rotate(-91.073804)" />
      <g
         id="g2557"
         inkscape:label="snout">
        <ellipse
           style="fill:#c87137;stroke:#000000;stroke-width:0.247051"
           id="ellipse2549"
           cx="-52.213757"
           cy="34.138432"
           rx="3.9541502"
           ry="3.9385307"
           transform="rotate(-91.073804)"
           inkscape:label="Snout" />
        <ellipse
           style="fill:#2b1100;stroke:#000000;stroke-width:0.228018"
           id="ellipse2551"
           cx="-53.420097"
           cy="34.280785"
           rx="0.82211679"
           ry="1.0114663"
           transform="rotate(-91.073804)"
           inkscape:label="Nostril" />
        <path
           style="fill:#c87137;stroke:#000000;stroke-width:0.235956"
           d="m 35.279998,51.872474 c -0.03665,-0.212978 -1.86e-4,-0.435884 -0.03669,-0.649272 -0.03796,-0.222334 -0.0254,0.02994 -0.02908,-0.192067 -0.004,-0.240634 -0.008,-0.481266 -0.01194,-0.721899 -0.0018,-0.111946 0.01928,-0.25231 -0.0061,-0.36095 -0.02948,-0.12677 -0.08654,-0.21062 -0.160507,-0.310197 -0.0282,-0.03795 -0.07255,-0.04151 -0.104727,-0.07044 -0.01386,-0.01245 -0.0111,-0.03719 -0.02668,-0.04769 -0.02207,-0.01486 -0.05255,-0.01376 -0.07806,-0.02274 -0.0592,-0.02089 -0.102062,-0.06925 -0.156909,-0.09363 -0.04201,-0.01868 -0.111717,-0.02577 -0.156108,-0.04549 -0.119376,-0.05304 0.110012,0.0081 -0.07846,-0.04681 -0.06422,-0.01872 -0.176037,-0.01853 -0.233762,-0.04418 -0.02804,-0.01247 -0.05041,-0.03435 -0.07845,-0.04681 -0.02327,-0.01041 -0.363783,-0.0015 -0.388271,0.0066 -0.04532,0.01489 -0.08823,0.06124 -0.128226,0.07438 -0.01629,0.0054 -0.03646,-0.0066 -0.05176,8.75e-4 -0.01531,0.0076 0.01502,0.03899 7.98e-4,0.04811 -0.02247,0.01445 -0.05303,0.01361 -0.07724,0.02537 -0.03249,0.01577 -0.04631,0.05411 -0.07645,0.07351 -0.108399,0.06972 -0.251364,0.122031 -0.35959,0.174571 -0.02614,0.0127 -0.04039,0.05335 -0.05057,0.07306 -0.01673,0.03239 -0.04317,0.06183 -0.05016,0.09713 -0.01492,0.07541 0.04099,0.218707 0.0048,0.288759 -0.031,0.06001 -0.02601,-0.0079 -0.0251,0.04856"
           id="path2553"
           inkscape:label="Mouth right" />
        <path
           style="fill:#c87137;stroke:#000000;stroke-width:0.228018"
           d="m 35.168256,49.735974 c 0.04749,-0.174662 0.0039,-0.414927 0.125817,-0.567127 0.07107,-0.08869 0.345879,-0.108079 0.452974,-0.1088 0.06432,-4.69e-4 0.126892,0.02528 0.191209,0.026 0.03314,4.15e-4 0.06571,-0.01132 0.09886,-0.01087 0.07236,8.11e-4 0.142755,0.02845 0.215111,0.02925 0.07295,8e-4 0.148489,-0.01396 0.221612,-0.01854 0.07091,-0.0045 0.473379,0.04572 0.525824,0.07152 0.01978,0.0098 0.291865,0.206653 0.308613,0.236714 0.01238,0.0222 -0.0013,0.05471 0.01414,0.07495 0.0154,0.02024 0.05306,0.01343 0.06845,0.03366 0.0154,0.02024 0.0018,0.05276 0.01415,0.07495 0.01439,0.02582 0.0587,0.02305 0.06522,0.05756 0.01152,0.06082 0.0014,0.13767 0.0218,0.197711 0.03619,0.106237 0.0018,-0.02576 0.04456,0.03039 0.0096,0.01255 -0.01503,0.05628 -0.0097,0.0717 0.01647,0.04834 0.03921,0.06968 0.03156,0.126008"
           id="path2555"
           inkscape:label="Mouth left" />
      </g>
      <g
         id="g2563"
         inkscape:label="Eyes">
        <ellipse
           style="fill:#000000;stroke:#000000;stroke-width:0.228018"
           id="ellipse2559"
           cx="-56.51236"
           cy="36.68679"
           rx="0.72563249"
           ry="1.0116568"
           transform="rotate(-91.073804)"
           inkscape:label="Left Eye" />
        <ellipse
           style="fill:#000000;stroke:#000000;stroke-width:0.228018"
           id="ellipse2561"
           cx="-56.502262"
           cy="31.573122"
           rx="0.72563249"
           ry="1.0116568"
           transform="rotate(-91.073804)"
           inkscape:label="Right Eye" />
      </g>
    </g>
    <g
       id="g2571"
       inkscape:label="Legs"
       transform="matrix(-0.87037075,0,0,-0.87037075,60.626863,64.176591)">
      <path
         id="path2567"
         style="fill:#a05a2c;stroke:#000000;stroke-width:0.30735"
         d="m 40.900038,6.7650715 c -2.745076,0.083354 -6.160358,-0.4928043 -5.347542,9.0002535 0.820546,9.583439 -1.928727,7.852813 2.836871,8.151424 5.073194,0.317885 2.188046,3.231627 5.192607,-6.341421 C 46.338142,8.7937146 44.034446,6.6698959 40.900038,6.7650715 Z"
         sodipodi:nodetypes="sssss"
         inkscape:label="Left Leg" />
      <path
         id="path2569"
         style="fill:#a05a2c;stroke:#000000;stroke-width:0.30735"
         d="m 26.09819,0.21614055 c 2.745077,0.083354 6.16036,-0.49280437 5.347543,9.00025065 C 30.625187,18.79983 33.37446,17.069205 28.608863,17.367816 23.535668,17.6857 26.420817,20.599443 23.416255,11.026395 20.660087,2.2447837 22.963784,0.12096495 26.09819,0.21614055 Z"
         sodipodi:nodetypes="sssss"
         inkscape:label="Right Leg" />
    </g>
    <g
       id="g2591"
       inkscape:label="Body"
       transform="matrix(-0.87037075,0,0,-0.87037075,60.626863,64.176591)">
      <path
         id="path2573"
         style="fill:#a05a2c;stroke:#000000;stroke-width:0.250773"
         d="m 42.630089,18.085758 c -2.302883,-0.2228 -4.417227,3.364565 -2.529413,10.734335 1.905782,7.439936 0.56644,15.931772 4.134393,14.016874 4.727829,-2.537398 1.463326,-5.72315 2.707588,-13.668011 1.141394,-7.288029 -1.677224,-10.82823 -4.312568,-11.083198 z"
         sodipodi:nodetypes="sssss"
         inkscape:label="Left Arm" />
      <path
         id="path2575"
         style="fill:#a05a2c;stroke:#000000;stroke-width:0.228018"
         d="M 21.017999,37.282216 20.76095,23.568278 c -0.06973,-3.720891 2.869631,-6.772559 6.590522,-6.842302 L 38.658011,16.51405 c 2.515123,-0.04714 6.7926,3.93883 6.842301,6.590522 l 0.257049,13.713939 c 0.06973,3.720892 -1.862706,7.305508 -4.175662,6.176791 l -3.236922,-1.579611 -5.986484,1.074556 c -7.455902,0.05049 -3.997241,1.303512 -6.52415,1.374193 -4.393154,0.122882 -4.746401,-2.861334 -4.816144,-6.582224 z"
         sodipodi:nodetypes="sssssssccss"
         inkscape:label="Torso" />
      <path
         id="path2577"
         style="fill:#a05a2c;stroke:#000000;stroke-width:0.250773"
         d="m 27.937386,19.07116 c 2.312356,0.07692 3.944947,3.907631 1.119773,10.971324 -2.852063,7.130945 -2.622318,15.724682 -5.912623,13.364385 -4.359927,-3.127588 -0.710797,-5.864345 -0.917006,-13.903403 -0.189164,-7.374442 3.063671,-10.52034 5.709856,-10.432306 z"
         sodipodi:nodetypes="sssss"
         inkscape:label="Right Arm" />
      <g
         id="g2589"
         inkscape:label="Bow"
         transform="rotate(-15,35.020081,36.768984)"
         style="fill:#00aad4">
        <rect
           style="fill:#00aad4;stroke:#000000;stroke-width:0.276425"
           id="rect2579"
           width="4.2390065"
           height="9.5221701"
           x="39.899395"
           y="65.690269"
           ry="1.9376839"
           rx="0"
           transform="matrix(0.59263975,-0.80546764,0.11499974,0.99336552,0,0)"
           inkscape:label="right ribbon" />
        <rect
           style="fill:#00aad4;stroke:#000000;stroke-width:0.276425"
           id="rect2581"
           width="4.2390065"
           height="9.5221701"
           x="-62.057526"
           y="-16.99601"
           ry="0"
           rx="0"
           transform="matrix(-0.58801179,-0.80885236,-0.1206934,0.99268983,0,0)"
           inkscape:label="left ribbon" />
        <rect
           style="fill:#00aad4;stroke:#000000;stroke-width:0.228161"
           id="rect2583"
           width="5.2320385"
           height="5.2131429"
           x="-43.171627"
           y="38.415928"
           rx="1.2338897"
           ry="1.2416016"
           transform="matrix(-0.99999589,-0.00286681,-0.05311721,0.99858828,0,0)"
           inkscape:label="left bow" />
        <rect
           style="fill:#00aad4;stroke:#000000;stroke-width:0.228161"
           id="rect2585"
           width="5.2320385"
           height="5.2131429"
           x="27.090349"
           y="38.525002"
           rx="1.2338897"
           ry="1.2416016"
           transform="matrix(0.99999589,0.00286681,0.04739084,0.99887642,0,0)"
           inkscape:label="right bow" />
        <rect
           style="fill:#00aad4;stroke:#000000;stroke-width:0.198734"
           id="rect2587"
           width="4.3505058"
           height="3.8685675"
           x="32.764198"
           y="39.003792"
           ry="1.9342837"
           transform="rotate(0.16425609)"
           inkscape:label="mid bow" />
      </g>
    </g>
  </g>
  <g
     id="g2533"
     inkscape:label="Bear  walk 1"
     transform="translate(-64)">
    <g
       id="g2505"
       inkscape:label="Head"
       transform="matrix(-0.87037075,0,0,-0.87037075,60.626863,64.176591)">
      <g
         id="g2479"
         inkscape:label="right ear">
        <ellipse
           style="fill:#a05a2c;stroke:#000000;stroke-width:0.264367"
           id="ellipse2475"
           cx="60.746616"
           cy="24.297089"
           rx="3.5559995"
           ry="3.5942733"
           inkscape:label="Right Ear"
           transform="matrix(0.01874032,0.99982438,0.99982438,-0.01874032,0,0)" />
        <ellipse
           style="fill:#d35f5f;stroke:#000000;stroke-width:0.228018"
           id="ellipse2477"
           cx="26.198057"
           cy="59.668121"
           rx="2.1633768"
           ry="1.8420794"
           inkscape:label="Right in ear" />
      </g>
      <g
         id="g2485"
         inkscape:label="left ear">
        <ellipse
           style="fill:#a05a2c;stroke:#000000;stroke-width:0.264375"
           id="ellipse2481"
           cx="-60.73999"
           cy="41.056034"
           rx="3.5562177"
           ry="3.5942693"
           inkscape:label="Left Ear"
           transform="rotate(-91.073804)" />
        <ellipse
           style="fill:#d35f5f;stroke:#000000;stroke-width:0.228018"
           id="ellipse2483"
           cx="41.541336"
           cy="59.152031"
           rx="2.1633768"
           ry="1.8420794"
           inkscape:label="Left in Ear" />
      </g>
      <ellipse
         style="fill:#a05a2c;stroke:#000000;stroke-width:0.228018"
         id="ellipse2487"
         cx="-51.603558"
         cy="32.549946"
         rx="11.311619"
         ry="11.604074"
         inkscape:label="Head"
         transform="rotate(-91.073804)" />
      <g
         id="g2497"
         inkscape:label="snout">
        <ellipse
           style="fill:#c87137;stroke:#000000;stroke-width:0.247051"
           id="ellipse2489"
           cx="-52.213757"
           cy="34.138432"
           rx="3.9541502"
           ry="3.9385307"
           transform="rotate(-91.073804)"
           inkscape:label="Snout" />
        <ellipse
           style="fill:#2b1100;stroke:#000000;stroke-width:0.228018"
           id="ellipse2491"
           cx="-53.420097"
           cy="34.280785"
           rx="0.82211679"
           ry="1.0114663"
           transform="rotate(-91.073804)"
           inkscape:label="Nostril" />
        <path
           style="fill:#c87137;stroke:#000000;stroke-width:0.235956"
           d="m 35.279998,51.872474 c -0.03665,-0.212978 -1.86e-4,-0.435884 -0.03669,-0.649272 -0.03796,-0.222334 -0.0254,0.02994 -0.02908,-0.192067 -0.004,-0.240634 -0.008,-0.481266 -0.01194,-0.721899 -0.0018,-0.111946 0.01928,-0.25231 -0.0061,-0.36095 -0.02948,-0.12677 -0.08654,-0.21062 -0.160507,-0.310197 -0.0282,-0.03795 -0.07255,-0.04151 -0.104727,-0.07044 -0.01386,-0.01245 -0.0111,-0.03719 -0.02668,-0.04769 -0.02207,-0.01486 -0.05255,-0.01376 -0.07806,-0.02274 -0.0592,-0.02089 -0.102062,-0.06925 -0.156909,-0.09363 -0.04201,-0.01868 -0.111717,-0.02577 -0.156108,-0.04549 -0.119376,-0.05304 0.110012,0.0081 -0.07846,-0.04681 -0.06422,-0.01872 -0.176037,-0.01853 -0.233762,-0.04418 -0.02804,-0.01247 -0.05041,-0.03435 -0.07845,-0.04681 -0.02327,-0.01041 -0.363783,-0.0015 -0.388271,0.0066 -0.04532,0.01489 -0.08823,0.06124 -0.128226,0.07438 -0.01629,0.0054 -0.03646,-0.0066 -0.05176,8.75e-4 -0.01531,0.0076 0.01502,0.03899 7.98e-4,0.04811 -0.02247,0.01445 -0.05303,0.01361 -0.07724,0.02537 -0.03249,0.01577 -0.04631,0.05411 -0.07645,0.07351 -0.108399,0.06972 -0.251364,0.122031 -0.35959,0.174571 -0.02614,0.0127 -0.04039,0.05335 -0.05057,0.07306 -0.01673,0.03239 -0.04317,0.06183 -0.05016,0.09713 -0.01492,0.07541 0.04099,0.218707 0.0048,0.288759 -0.031,0.06001 -0.02601,-0.0079 -0.0251,0.04856"
           id="path2493"
           inkscape:label="Mouth right" />
        <path
           style="fill:#c87137;stroke:#000000;stroke-width:0.228018"
           d="m 35.168256,49.735974 c 0.04749,-0.174662 0.0039,-0.414927 0.125817,-0.567127 0.07107,-0.08869 0.345879,-0.108079 0.452974,-0.1088 0.06432,-4.69e-4 0.126892,0.02528 0.191209,0.026 0.03314,4.15e-4 0.06571,-0.01132 0.09886,-0.01087 0.07236,8.11e-4 0.142755,0.02845 0.215111,0.02925 0.07295,8e-4 0.148489,-0.01396 0.221612,-0.01854 0.07091,-0.0045 0.473379,0.04572 0.525824,0.07152 0.01978,0.0098 0.291865,0.206653 0.308613,0.236714 0.01238,0.0222 -0.0013,0.05471 0.01414,0.07495 0.0154,0.02024 0.05306,0.01343 0.06845,0.03366 0.0154,0.02024 0.0018,0.05276 0.01415,0.07495 0.01439,0.02582 0.0587,0.02305 0.06522,0.05756 0.01152,0.06082 0.0014,0.13767 0.0218,0.197711 0.03619,0.106237 0.0018,-0.02576 0.04456,0.03039 0.0096,0.01255 -0.01503,0.05628 -0.0097,0.0717 0.01647,0.04834 0.03921,0.06968 0.03156,0.126008"
           id="path2495"
           inkscape:label="Mouth left" />
      </g>
      <g
         id="g2503"
         inkscape:label="Eyes">
        <ellipse
           style="fill:#000000;stroke:#000000;stroke-width:0.228018"
           id="ellipse2499"
           cx="-56.51236"
           cy="36.68679"
           rx="0.72563249"
           ry="1.0116568"
           transform="rotate(-91.073804)"
           inkscape:label="Left Eye" />
        <ellipse
           style="fill:#000000;stroke:#000000;stroke-width:0.228018"
           id="ellipse2501"
           cx="-56.502262"
           cy="31.573122"
           rx="0.72563249"
           ry="1.0116568"
           transform="rotate(-91.073804)"
           inkscape:label="Right Eye" />
      </g>
    </g>
    <g
       id="g2511"
       inkscape:label="Legs"
       transform="matrix(-0.87037075,0,0,-0.87037075,60.626863,64.176591)">
      <path
         id="path2507"
         style="fill:#a05a2c;stroke:#000000;stroke-width:0.30735"
         d="m 40.900038,0.21570543 c -2.745076,0.0833541 -6.160358,-0.49280441 -5.347542,9.00025287 0.820546,9.5834367 -1.928727,7.8528107 2.836871,8.1514217 5.073194,0.317885 2.188046,3.231627 5.192607,-6.341421 C 46.338142,2.2443483 44.034446,0.12052984 40.900038,0.21570543 Z"
         sodipodi:nodetypes="sssss"
         inkscape:label="Left Leg" />
      <path
         id="path2509"
         style="fill:#a05a2c;stroke:#000000;stroke-width:0.30735"
         d="m 26.09819,6.7053256 c 2.745077,0.083354 6.16036,-0.4928044 5.347543,9.0002544 -0.820546,9.583439 1.928727,7.852814 -2.83687,8.151425 -5.073195,0.317884 -2.188046,3.231627 -5.192608,-6.341421 C 20.660087,8.7339688 22.963784,6.61015 26.09819,6.7053256 Z"
         sodipodi:nodetypes="sssss"
         inkscape:label="Right Leg" />
    </g>
    <g
       id="g2531"
       inkscape:label="Body"
       transform="matrix(-0.87037075,0,0,-0.87037075,60.626863,64.176591)">
      <path
         id="path2513"
         style="fill:#a05a2c;stroke:#000000;stroke-width:0.250773"
         d="m 53.057228,20.830119 c -1.889437,-1.335267 -5.504238,0.731821 -7.518762,8.067968 -2.033708,7.405989 -7.407129,14.116538 -3.359182,14.222582 5.363861,0.140518 4.108367,-4.244656 9.128024,-10.527332 4.604664,-5.763265 3.912128,-10.23518 1.74992,-11.763218 z"
         sodipodi:nodetypes="sssss"
         inkscape:label="Left Arm" />
      <path
         id="path2515"
         style="fill:#a05a2c;stroke:#000000;stroke-width:0.228018"
         d="M 21.017999,37.282216 20.76095,23.568278 c -0.06973,-3.720891 2.869631,-6.772559 6.590522,-6.842302 L 38.658011,16.51405 c 2.515123,-0.04714 6.7926,3.93883 6.842301,6.590522 l 0.257049,13.713939 c 0.06973,3.720892 -1.862706,7.305508 -4.175662,6.176791 l -3.236922,-1.579611 -5.986484,1.074556 c -7.455902,0.05049 -3.997241,1.303512 -6.52415,1.374193 -4.393154,0.122882 -4.746401,-2.861334 -4.816144,-6.582224 z"
         sodipodi:nodetypes="sssssssccss"
         inkscape:label="Torso" />
      <path
         id="path2517"
         style="fill:#a05a2c;stroke:#000000;stroke-width:0.250773"
         d="m 14.824783,21.498599 c 1.886483,-1.339437 5.50584,0.719664 7.536554,8.051347 2.050055,7.401481 7.438279,14.10015 3.390576,14.215129 -5.36354,0.152359 -4.117729,-4.235572 -9.151244,-10.507153 -4.617377,-5.753086 -3.934715,-10.226516 -1.775886,-11.759323 z"
         sodipodi:nodetypes="sssss"
         inkscape:label="Right Arm" />
      <g
         id="g2529"
         inkscape:label="Bow"
         transform="rotate(7.5857853,35.020081,36.768984)"
         style="fill:#00aad4">
        <rect
           style="fill:#00aad4;stroke:#000000;stroke-width:0.276425"
           id="rect2519"
           width="4.2390065"
           height="9.5221701"
           x="39.899395"
           y="65.690269"
           ry="1.9376839"
           rx="0"
           transform="matrix(0.59263975,-0.80546764,0.11499974,0.99336552,0,0)"
           inkscape:label="right ribbon" />
        <rect
           style="fill:#00aad4;stroke:#000000;stroke-width:0.276425"
           id="rect2521"
           width="4.2390065"
           height="9.5221701"
           x="-62.057526"
           y="-16.99601"
           ry="0"
           rx="0"
           transform="matrix(-0.58801179,-0.80885236,-0.1206934,0.99268983,0,0)"
           inkscape:label="left ribbon" />
        <rect
           style="fill:#00aad4;stroke:#000000;stroke-width:0.228161"
           id="rect2523"
           width="5.2320385"
           height="5.2131429"
           x="-43.171627"
           y="38.415928"
           rx="1.2338897"
           ry="1.2416016"
           transform="matrix(-0.99999589,-0.00286681,-0.05311721,0.99858828,0,0)"
           inkscape:label="left bow" />
        <rect
           style="fill:#00aad4;stroke:#000000;stroke-width:0.228161"
           id="rect2525"
           width="5.2320385"
           height="5.2131429"
           x="27.090349"
           y="38.525002"
           rx="1.2338897"
           ry="1.2416016"
           transform="matrix(0.99999589,0.00286681,0.04739084,0.99887642,0,0)"
           inkscape:label="right bow" />
        <rect
           style="fill:#00aad4;stroke:#000000;stroke-width:0.198734"
           id="rect2527"
           width="4.3505058"
           height="3.8685675"
           x="32.764198"
           y="39.003792"
           ry="1.9342837"
           transform="rotate(0.16425609)"
           inkscape:label="mid bow" />
      </g>
    </g>
  </g>
  <g
     id="g2417"
     inkscape:label="Bear Idle 2"
     transform="translate(2.635542e-7,64)">
    <g
       id="g2389"
       inkscape:label="Head"
       transform="matrix(-0.86710512,-0.07532569,0.07532569,-0.86710512,56.617312,66.554249)">
      <g
         id="g2363"
         inkscape:label="right ear">
        <ellipse
           style="fill:#a05a2c;stroke:#000000;stroke-width:0.264367"
           id="ellipse2359"
           cx="60.746616"
           cy="24.297089"
           rx="3.5559995"
           ry="3.5942733"
           inkscape:label="Right Ear"
           transform="matrix(0.01874032,0.99982438,0.99982438,-0.01874032,0,0)" />
        <ellipse
           style="fill:#d35f5f;stroke:#000000;stroke-width:0.228018"
           id="ellipse2361"
           cx="26.198057"
           cy="59.668121"
           rx="2.1633768"
           ry="1.8420794"
           inkscape:label="Right in ear" />
      </g>
      <g
         id="g2369"
         inkscape:label="left ear">
        <ellipse
           style="fill:#a05a2c;stroke:#000000;stroke-width:0.264375"
           id="ellipse2365"
           cx="-60.73999"
           cy="41.056034"
           rx="3.5562177"
           ry="3.5942693"
           inkscape:label="Left Ear"
           transform="rotate(-91.073804)" />
        <ellipse
           style="fill:#d35f5f;stroke:#000000;stroke-width:0.228018"
           id="ellipse2367"
           cx="41.541336"
           cy="59.152031"
           rx="2.1633768"
           ry="1.8420794"
           inkscape:label="Left in Ear" />
      </g>
      <ellipse
         style="fill:#a05a2c;stroke:#000000;stroke-width:0.228018"
         id="ellipse2371"
         cx="-51.603558"
         cy="32.549946"
         rx="11.311619"
         ry="11.604074"
         inkscape:label="Head"
         transform="rotate(-91.073804)" />
      <g
         id="g2381"
         inkscape:label="snout">
        <ellipse
           style="fill:#c87137;stroke:#000000;stroke-width:0.247051"
           id="ellipse2373"
           cx="-52.213757"
           cy="34.138432"
           rx="3.9541502"
           ry="3.9385307"
           transform="rotate(-91.073804)"
           inkscape:label="Snout" />
        <ellipse
           style="fill:#2b1100;stroke:#000000;stroke-width:0.228018"
           id="ellipse2375"
           cx="-53.420097"
           cy="34.280785"
           rx="0.82211679"
           ry="1.0114663"
           transform="rotate(-91.073804)"
           inkscape:label="Nostril" />
        <path
           style="fill:#c87137;stroke:#000000;stroke-width:0.235956"
           d="m 35.279998,51.872474 c -0.03665,-0.212978 -1.86e-4,-0.435884 -0.03669,-0.649272 -0.03796,-0.222334 -0.0254,0.02994 -0.02908,-0.192067 -0.004,-0.240634 -0.008,-0.481266 -0.01194,-0.721899 -0.0018,-0.111946 0.01928,-0.25231 -0.0061,-0.36095 -0.02948,-0.12677 -0.08654,-0.21062 -0.160507,-0.310197 -0.0282,-0.03795 -0.07255,-0.04151 -0.104727,-0.07044 -0.01386,-0.01245 -0.0111,-0.03719 -0.02668,-0.04769 -0.02207,-0.01486 -0.05255,-0.01376 -0.07806,-0.02274 -0.0592,-0.02089 -0.102062,-0.06925 -0.156909,-0.09363 -0.04201,-0.01868 -0.111717,-0.02577 -0.156108,-0.04549 -0.119376,-0.05304 0.110012,0.0081 -0.07846,-0.04681 -0.06422,-0.01872 -0.176037,-0.01853 -0.233762,-0.04418 -0.02804,-0.01247 -0.05041,-0.03435 -0.07845,-0.04681 -0.02327,-0.01041 -0.363783,-0.0015 -0.388271,0.0066 -0.04532,0.01489 -0.08823,0.06124 -0.128226,0.07438 -0.01629,0.0054 -0.03646,-0.0066 -0.05176,8.75e-4 -0.01531,0.0076 0.01502,0.03899 7.98e-4,0.04811 -0.02247,0.01445 -0.05303,0.01361 -0.07724,0.02537 -0.03249,0.01577 -0.04631,0.05411 -0.07645,0.07351 -0.108399,0.06972 -0.251364,0.122031 -0.35959,0.174571 -0.02614,0.0127 -0.04039,0.05335 -0.05057,0.07306 -0.01673,0.03239 -0.04317,0.06183 -0.05016,0.09713 -0.01492,0.07541 0.04099,0.218707 0.0048,0.288759 -0.031,0.06001 -0.02601,-0.0079 -0.0251,0.04856"
           id="path2377"
           inkscape:label="Mouth right" />
        <path
           style="fill:#c87137;stroke:#000000;stroke-width:0.228018"
           d="m 35.168256,49.735974 c 0.04749,-0.174662 0.0039,-0.414927 0.125817,-0.567127 0.07107,-0.08869 0.345879,-0.108079 0.452974,-0.1088 0.06432,-4.69e-4 0.126892,0.02528 0.191209,0.026 0.03314,4.15e-4 0.06571,-0.01132 0.09886,-0.01087 0.07236,8.11e-4 0.142755,0.02845 0.215111,0.02925 0.07295,8e-4 0.148489,-0.01396 0.221612,-0.01854 0.07091,-0.0045 0.473379,0.04572 0.525824,0.07152 0.01978,0.0098 0.291865,0.206653 0.308613,0.236714 0.01238,0.0222 -0.0013,0.05471 0.01414,0.07495 0.0154,0.02024 0.05306,0.01343 0.06845,0.03366 0.0154,0.02024 0.0018,0.05276 0.01415,0.07495 0.01439,0.02582 0.0587,0.02305 0.06522,0.05756 0.01152,0.06082 0.0014,0.13767 0.0218,0.197711 0.03619,0.106237 0.0018,-0.02576 0.04456,0.03039 0.0096,0.01255 -0.01503,0.05628 -0.0097,0.0717 0.01647,0.04834 0.03921,0.06968 0.03156,0.126008"
           id="path2379"
           inkscape:label="Mouth left" />
      </g>
      <g
         id="g2387"
         inkscape:label="Eyes">
        <ellipse
           style="fill:#000000;stroke:#000000;stroke-width:0.228018"
           id="ellipse2383"
           cx="-56.51236"
           cy="36.68679"
           rx="0.72563249"
           ry="1.0116568"
           transform="rotate(-91.073804)"
           inkscape:label="Left Eye" />
        <ellipse
           style="fill:#000000;stroke:#000000;stroke-width:0.228018"
           id="ellipse2385"
           cx="-56.502262"
           cy="31.573122"
           rx="0.72563249"
           ry="1.0116568"
           transform="rotate(-91.073804)"
           inkscape:label="Right Eye" />
      </g>
    </g>
    <g
       id="g2395"
       inkscape:label="Legs"
       transform="matrix(-0.87037075,0,0,-0.87037075,60.626863,64.176591)">
      <path
         id="path2391"
         style="fill:#a05a2c;stroke:#000000;stroke-width:0.30735"
         d="m 40.900038,0.21570543 c -2.745076,0.0833541 -6.160358,-0.49280441 -5.347542,9.00025287 0.820546,9.5834367 -1.928727,7.8528107 2.836871,8.1514217 5.073194,0.317885 2.188046,3.231627 5.192607,-6.341421 C 46.338142,2.2443483 44.034446,0.12052984 40.900038,0.21570543 Z"
         sodipodi:nodetypes="sssss"
         inkscape:label="Left Leg" />
      <path
         id="path2393"
         style="fill:#a05a2c;stroke:#000000;stroke-width:0.30735"
         d="m 24.949287,0.15676081 c 2.745077,0.0833541 6.16036,-0.49280441 5.347543,9.00025289 -0.820546,9.5834363 1.928727,7.8528113 -2.83687,8.1514223 -5.073195,0.317884 -2.188046,3.231627 -5.192608,-6.341421 C 19.511184,2.1854038 21.814881,0.06158522 24.949287,0.15676081 Z"
         sodipodi:nodetypes="sssss"
         inkscape:label="Right Leg" />
    </g>
    <g
       id="g2415"
       inkscape:label="Body"
       transform="matrix(-0.87037075,0,0,-0.87037075,60.626863,64.176591)">
      <path
         id="path2397"
         style="fill:#a05a2c;stroke:#000000;stroke-width:0.250773"
         d="m 50.072214,19.280716 c -2.083795,-1.005341 -5.308148,1.629651 -6.085078,9.197592 -0.784333,7.639993 -4.977342,15.14491 -0.967345,14.581845 5.313575,-0.746108 3.351998,-4.864143 7.266661,-11.8887 3.591023,-6.443812 2.170387,-10.740255 -0.214238,-11.890737 z"
         sodipodi:nodetypes="sssss"
         inkscape:label="Left Arm" />
      <path
         id="path2399"
         style="fill:#a05a2c;stroke:#000000;stroke-width:0.228018"
         d="M 21.017999,37.282216 20.76095,23.568278 c -0.06973,-3.720891 2.869631,-6.772559 6.590522,-6.842302 L 38.658011,16.51405 c 2.515123,-0.04714 6.7926,3.93883 6.842301,6.590522 l 0.257049,13.713939 c 0.06973,3.720892 -1.862706,7.305508 -4.175662,6.176791 l -3.236922,-1.579611 -5.986484,1.074556 c -7.455902,0.05049 -3.997241,1.303512 -6.52415,1.374193 -4.393154,0.122882 -4.746401,-2.861334 -4.816144,-6.582224 z"
         sodipodi:nodetypes="sssssssccss"
         inkscape:label="Torso" />
      <path
         id="path2401"
         style="fill:#a05a2c;stroke:#000000;stroke-width:0.250773"
         d="m 18.442197,19.975946 c 2.096429,-0.978717 5.286957,1.697135 5.967417,9.274361 0.686946,7.649362 4.784011,15.207083 0.781509,14.592982 -5.303636,-0.813735 -3.289761,-4.906447 -7.114619,-11.980302 -3.508646,-6.489036 -2.033395,-10.767031 0.365693,-11.887041 z"
         sodipodi:nodetypes="sssss"
         inkscape:label="Right Arm" />
      <g
         id="g2413"
         inkscape:label="Bow"
         style="fill:#00aad4">
        <rect
           style="fill:#00aad4;stroke:#000000;stroke-width:0.276425"
           id="rect2403"
           width="4.2390065"
           height="9.5221701"
           x="39.899395"
           y="65.690269"
           ry="1.9376839"
           rx="0"
           transform="matrix(0.59263975,-0.80546764,0.11499974,0.99336552,0,0)"
           inkscape:label="right ribbon" />
        <rect
           style="fill:#00aad4;stroke:#000000;stroke-width:0.276425"
           id="rect2405"
           width="4.2390065"
           height="9.5221701"
           x="-62.057526"
           y="-16.99601"
           ry="0"
           rx="0"
           transform="matrix(-0.58801179,-0.80885236,-0.1206934,0.99268983,0,0)"
           inkscape:label="left ribbon" />
        <rect
           style="fill:#00aad4;stroke:#000000;stroke-width:0.228161"
           id="rect2407"
           width="5.2320385"
           height="5.2131429"
           x="-43.171627"
           y="38.415928"
           rx="1.2338897"
           ry="1.2416016"
           transform="matrix(-0.99999589,-0.00286681,-0.05311721,0.99858828,0,0)"
           inkscape:label="left bow" />
        <rect
           style="fill:#00aad4;stroke:#000000;stroke-width:0.228161"
           id="rect2409"
           width="5.2320385"
           height="5.2131429"
           x="27.090349"
           y="38.525002"
           rx="1.2338897"
           ry="1.2416016"
           transform="matrix(0.99999589,0.00286681,0.04739084,0.99887642,0,0)"
           inkscape:label="right bow" />
        <rect
           style="fill:#00aad4;stroke:#000000;stroke-width:0.198734"
           id="rect2411"
           width="4.3505058"
           height="3.8685675"
           x="32.764198"
           y="39.003792"
           ry="1.9342837"
           transform="rotate(0.16425609)"
           inkscape:label="mid bow" />
      </g>
    </g>
  </g>
  <g
     id="g2018"
     inkscape:label="Bear  Idle 1">
    <g
       id="g1990"
       inkscape:label="Head"
       transform="matrix(-0.87037075,0,0,-0.87037075,60.626863,64.176591)">
      <g
         id="g1964"
         inkscape:label="right ear">
        <ellipse
           style="fill:#a05a2c;stroke:#000000;stroke-width:0.264367"
           id="ellipse1960"
           cx="60.746616"
           cy="24.297089"
           rx="3.5559995"
           ry="3.5942733"
           inkscape:label="Right Ear"
           transform="matrix(0.01874032,0.99982438,0.99982438,-0.01874032,0,0)" />
        <ellipse
           style="fill:#d35f5f;stroke:#000000;stroke-width:0.228018"
           id="ellipse1962"
           cx="26.198057"
           cy="59.668121"
           rx="2.1633768"
           ry="1.8420794"
           inkscape:label="Right in ear" />
      </g>
      <g
         id="g1970"
         inkscape:label="left ear">
        <ellipse
           style="fill:#a05a2c;stroke:#000000;stroke-width:0.264375"
           id="ellipse1966"
           cx="-60.73999"
           cy="41.056034"
           rx="3.5562177"
           ry="3.5942693"
           inkscape:label="Left Ear"
           transform="rotate(-91.073804)" />
        <ellipse
           style="fill:#d35f5f;stroke:#000000;stroke-width:0.228018"
           id="ellipse1968"
           cx="41.541336"
           cy="59.152031"
           rx="2.1633768"
           ry="1.8420794"
           inkscape:label="Left in Ear" />
      </g>
      <ellipse
         style="fill:#a05a2c;stroke:#000000;stroke-width:0.228018"
         id="ellipse1972"
         cx="-51.603558"
         cy="32.549946"
         rx="11.311619"
         ry="11.604074"
         inkscape:label="Head"
         transform="rotate(-91.073804)" />
      <g
         id="g1982"
         inkscape:label="snout">
        <ellipse
           style="fill:#c87137;stroke:#000000;stroke-width:0.247051"
           id="ellipse1974"
           cx="-52.213757"
           cy="34.138432"
           rx="3.9541502"
           ry="3.9385307"
           transform="rotate(-91.073804)"
           inkscape:label="Snout" />
        <ellipse
           style="fill:#2b1100;stroke:#000000;stroke-width:0.228018"
           id="ellipse1976"
           cx="-53.420097"
           cy="34.280785"
           rx="0.82211679"
           ry="1.0114663"
           transform="rotate(-91.073804)"
           inkscape:label="Nostril" />
        <path
           style="fill:#c87137;stroke:#000000;stroke-width:0.235956"
           d="m 35.279998,51.872474 c -0.03665,-0.212978 -1.86e-4,-0.435884 -0.03669,-0.649272 -0.03796,-0.222334 -0.0254,0.02994 -0.02908,-0.192067 -0.004,-0.240634 -0.008,-0.481266 -0.01194,-0.721899 -0.0018,-0.111946 0.01928,-0.25231 -0.0061,-0.36095 -0.02948,-0.12677 -0.08654,-0.21062 -0.160507,-0.310197 -0.0282,-0.03795 -0.07255,-0.04151 -0.104727,-0.07044 -0.01386,-0.01245 -0.0111,-0.03719 -0.02668,-0.04769 -0.02207,-0.01486 -0.05255,-0.01376 -0.07806,-0.02274 -0.0592,-0.02089 -0.102062,-0.06925 -0.156909,-0.09363 -0.04201,-0.01868 -0.111717,-0.02577 -0.156108,-0.04549 -0.119376,-0.05304 0.110012,0.0081 -0.07846,-0.04681 -0.06422,-0.01872 -0.176037,-0.01853 -0.233762,-0.04418 -0.02804,-0.01247 -0.05041,-0.03435 -0.07845,-0.04681 -0.02327,-0.01041 -0.363783,-0.0015 -0.388271,0.0066 -0.04532,0.01489 -0.08823,0.06124 -0.128226,0.07438 -0.01629,0.0054 -0.03646,-0.0066 -0.05176,8.75e-4 -0.01531,0.0076 0.01502,0.03899 7.98e-4,0.04811 -0.02247,0.01445 -0.05303,0.01361 -0.07724,0.02537 -0.03249,0.01577 -0.04631,0.05411 -0.07645,0.07351 -0.108399,0.06972 -0.251364,0.122031 -0.35959,0.174571 -0.02614,0.0127 -0.04039,0.05335 -0.05057,0.07306 -0.01673,0.03239 -0.04317,0.06183 -0.05016,0.09713 -0.01492,0.07541 0.04099,0.218707 0.0048,0.288759 -0.031,0.06001 -0.02601,-0.0079 -0.0251,0.04856"
           id="path1978"
           inkscape:label="Mouth right" />
        <path
           style="fill:#c87137;stroke:#000000;stroke-width:0.228018"
           d="m 35.168256,49.735974 c 0.04749,-0.174662 0.0039,-0.414927 0.125817,-0.567127 0.07107,-0.08869 0.345879,-0.108079 0.452974,-0.1088 0.06432,-4.69e-4 0.126892,0.02528 0.191209,0.026 0.03314,4.15e-4 0.06571,-0.01132 0.09886,-0.01087 0.07236,8.11e-4 0.142755,0.02845 0.215111,0.02925 0.07295,8e-4 0.148489,-0.01396 0.221612,-0.01854 0.07091,-0.0045 0.473379,0.04572 0.525824,0.07152 0.01978,0.0098 0.291865,0.206653 0.308613,0.236714 0.01238,0.0222 -0.0013,0.05471 0.01414,0.07495 0.0154,0.02024 0.05306,0.01343 0.06845,0.03366 0.0154,0.02024 0.0018,0.05276 0.01415,0.07495 0.01439,0.02582 0.0587,0.02305 0.06522,0.05756 0.01152,0.06082 0.0014,0.13767 0.0218,0.197711 0.03619,0.106237 0.0018,-0.02576 0.04456,0.03039 0.0096,0.01255 -0.01503,0.05628 -0.0097,0.0717 0.01647,0.04834 0.03921,0.06968 0.03156,0.126008"
           id="path1980"
           inkscape:label="Mouth left" />
      </g>
      <g
         id="g1988"
         inkscape:label="Eyes">
        <ellipse
           style="fill:#000000;stroke:#000000;stroke-width:0.228018"
           id="ellipse1984"
           cx="-56.51236"
           cy="36.68679"
           rx="0.72563249"
           ry="1.0116568"
           transform="rotate(-91.073804)"
           inkscape:label="Left Eye" />
        <ellipse
           style="fill:#000000;stroke:#000000;stroke-width:0.228018"
           id="ellipse1986"
           cx="-56.502262"
           cy="31.573122"
           rx="0.72563249"
           ry="1.0116568"
           transform="rotate(-91.073804)"
           inkscape:label="Right Eye" />
      </g>
    </g>
    <g
       id="g1996"
       inkscape:label="Legs"
       transform="matrix(-0.87037075,0,0,-0.87037075,60.626863,64.176591)">
      <path
         id="path1992"
         style="fill:#a05a2c;stroke:#000000;stroke-width:0.30735"
         d="m 40.900038,0.21570543 c -2.745076,0.0833541 -6.160358,-0.49280441 -5.347542,9.00025287 0.820546,9.5834367 -1.928727,7.8528107 2.836871,8.1514217 5.073194,0.317885 2.188046,3.231627 5.192607,-6.341421 C 46.338142,2.2443483 44.034446,0.12052984 40.900038,0.21570543 Z"
         sodipodi:nodetypes="sssss"
         inkscape:label="Left Leg" />
      <path
         id="path1994"
         style="fill:#a05a2c;stroke:#000000;stroke-width:0.30735"
         d="m 24.949287,0.15676081 c 2.745077,0.0833541 6.16036,-0.49280441 5.347543,9.00025289 -0.820546,9.5834363 1.928727,7.8528113 -2.83687,8.1514223 -5.073195,0.317884 -2.188046,3.231627 -5.192608,-6.341421 C 19.511184,2.1854038 21.814881,0.06158522 24.949287,0.15676081 Z"
         sodipodi:nodetypes="sssss"
         inkscape:label="Right Leg" />
    </g>
    <g
       id="g2016"
       inkscape:label="Body"
       transform="matrix(-0.87037075,0,0,-0.87037075,60.626863,64.176591)">
      <path
         id="path1998"
         style="fill:#a05a2c;stroke:#000000;stroke-width:0.250773"
         d="m 48.049715,18.405023 c -2.200096,-0.715885 -5.040674,2.328906 -4.792481,9.932573 0.250551,7.676059 -2.894762,15.676816 1.003041,14.579433 5.164908,-1.454124 2.667191,-5.270851 5.601307,-12.75817 2.691542,-6.868316 0.705849,-10.934598 -1.811867,-11.753836 z"
         sodipodi:nodetypes="sssss"
         inkscape:label="Left Arm" />
      <path
         id="path2000"
         style="fill:#a05a2c;stroke:#000000;stroke-width:0.228018"
         d="M 21.017999,37.282216 20.76095,23.568278 c -0.06973,-3.720891 2.869631,-6.772559 6.590522,-6.842302 L 38.658011,16.51405 c 2.515123,-0.04714 6.7926,3.93883 6.842301,6.590522 l 0.257049,13.713939 c 0.06973,3.720892 -1.862706,7.305508 -4.175662,6.176791 l -3.236922,-1.579611 -5.986484,1.074556 c -7.455902,0.05049 -3.997241,1.303512 -6.52415,1.374193 -4.393154,0.122882 -4.746401,-2.861334 -4.816144,-6.582224 z"
         sodipodi:nodetypes="sssssssccss"
         inkscape:label="Torso" />
      <path
         id="path2002"
         style="fill:#a05a2c;stroke:#000000;stroke-width:0.250773"
         d="m 20.262703,19.500085 c 2.171721,-0.797831 5.124407,2.138373 5.161327,9.746001 0.03728,7.680055 3.480204,15.557325 -0.455984,14.606778 -5.215774,-1.259551 -2.86284,-5.167196 -6.075473,-12.539304 -2.947035,-6.762629 -1.115118,-10.900465 1.37013,-11.813475 z"
         sodipodi:nodetypes="sssss"
         inkscape:label="Right Arm" />
      <g
         id="g2014"
         inkscape:label="Bow"
         style="fill:#00aad4">
        <rect
           style="fill:#00aad4;stroke:#000000;stroke-width:0.276425"
           id="rect2004"
           width="4.2390065"
           height="9.5221701"
           x="39.899395"
           y="65.690269"
           ry="1.9376839"
           rx="0"
           transform="matrix(0.59263975,-0.80546764,0.11499974,0.99336552,0,0)"
           inkscape:label="right ribbon" />
        <rect
           style="fill:#00aad4;stroke:#000000;stroke-width:0.276425"
           id="rect2006"
           width="4.2390065"
           height="9.5221701"
           x="-62.057526"
           y="-16.99601"
           ry="0"
           rx="0"
           transform="matrix(-0.58801179,-0.80885236,-0.1206934,0.99268983,0,0)"
           inkscape:label="left ribbon" />
        <rect
           style="fill:#00aad4;stroke:#000000;stroke-width:0.228161"
           id="rect2008"
           width="5.2320385"
           height="5.2131429"
           x="-43.171627"
           y="38.415928"
           rx="1.2338897"
           ry="1.2416016"
           transform="matrix(-0.99999589,-0.00286681,-0.05311721,0.99858828,0,0)"
           inkscape:label="left bow" />
        <rect
           style="fill:#00aad4;stroke:#000000;stroke-width:0.228161"
           id="rect2010"
           width="5.2320385"
           height="5.2131429"
           x="27.090349"
           y="38.525002"
           rx="1.2338897"
           ry="1.2416016"
           transform="matrix(0.99999589,0.00286681,0.04739084,0.99887642,0,0)"
           inkscape:label="right bow" />
        <rect
           style="fill:#00aad4;stroke:#000000;stroke-width:0.198734"
           id="rect2012"
           width="4.3505058"
           height="3.8685675"
           x="32.764198"
           y="39.003792"
           ry="1.9342837"
           transform="rotate(0.16425609)"
           inkscape:label="mid bow" />
      </g>
    </g>
  </g>
</svg>
