<?xml version="1.0" encoding="UTF-8" standalone="no"?>
<!-- Created with Inkscape (http://www.inkscape.org/) -->

<svg
   width="64"
   height="64"
   viewBox="0 0 64 64.000003"
   version="1.1"
   id="svg5"
   inkscape:version="1.2 (dc2aedaf03, 2022-05-15)"
   sodipodi:docname="Weapons and Shield.svg"
   xmlns:inkscape="http://www.inkscape.org/namespaces/inkscape"
   xmlns:sodipodi="http://sodipodi.sourceforge.net/DTD/sodipodi-0.dtd"
   xmlns="http://www.w3.org/2000/svg"
   xmlns:svg="http://www.w3.org/2000/svg">
  <sodipodi:namedview
     id="namedview7"
     pagecolor="#ffffff"
     bordercolor="#000000"
     borderopacity="0.25"
     inkscape:showpageshadow="2"
     inkscape:pageopacity="0.0"
     inkscape:pagecheckerboard="true"
     inkscape:deskcolor="#d1d1d1"
     inkscape:document-units="px"
     showgrid="true"
     inkscape:zoom="12.593751"
     inkscape:cx="103.67465"
     inkscape:cy="104.20653"
     inkscape:window-width="1920"
     inkscape:window-height="1009"
     inkscape:window-x="-8"
     inkscape:window-y="-8"
     inkscape:window-maximized="1"
     inkscape:current-layer="layer1">
    <inkscape:grid
       type="xygrid"
       id="grid132"
       spacingx="8"
       spacingy="8"
       empspacing="8"
       originx="0"
       originy="0" />
    <inkscape:page
       x="0"
       y="0"
       width="64"
       height="64"
       id="page1881"
       inkscape:export-filename="Candy Cane Staff.png"
       inkscape:export-xdpi="291"
       inkscape:export-ydpi="291" />
    <inkscape:page
       x="72.127549"
       y="0.43148692"
       width="63.902598"
       height="63.839089"
       id="page1883"
       inkscape:export-filename="Candy Nunchucks.png"
       inkscape:export-xdpi="291"
       inkscape:export-ydpi="291" />
    <inkscape:page
       x="144.10555"
       y="0.087563343"
       width="64"
       height="64"
       id="page1885"
       inkscape:export-filename="Candy CrossBow.png"
       inkscape:export-xdpi="291"
       inkscape:export-ydpi="291" />
    <inkscape:page
       x="0.26054519"
       y="72.31778"
       width="64"
       height="64"
       id="page1937"
       inkscape:export-filename="Green Arrow.png"
       inkscape:export-xdpi="291"
       inkscape:export-ydpi="291" />
    <inkscape:page
       x="71.658745"
       y="72.222443"
       width="64"
       height="64"
       id="page1943"
       inkscape:export-filename="SnowFlake Shield.png"
       inkscape:export-xdpi="291"
       inkscape:export-ydpi="291" />
  </sodipodi:namedview>
  <defs
     id="defs2" />
  <g
     inkscape:label="Layer 1"
     inkscape:groupmode="layer"
     id="layer1"
     transform="matrix(1.886006,0,0,1.886006,-27.793082,-2.0343103)">
    <g
       id="g814"
       inkscape:label="Candy Cane"
       transform="matrix(1.0133756,0.81121061,-0.81121061,1.0133756,26.520009,-13.847331)"
       sodipodi:insensitive="true">
      <path
         id="path794"
         style="fill:#d40000;stroke:#000000;stroke-width:0.270861"
         d="m 19.742464,1.3068283 c -1.207357,-0.021745 -2.235127,0.2107888 -2.515145,0.2163415 -0.05248,0.00104 -0.08967,0.023715 -0.114557,0.059004 -1.216403,-0.079017 -2.250883,4.4086338 -1.856042,5.6222219 -0.151261,1.5296282 -0.243388,6.6023753 -0.248216,12.9213353 -8.49e-4,1.117595 0.01827,2.196704 0.05478,3.233889 l -0.02989,-0.02529 0.06474,0.870986 c 0.05635,1.237621 0.138612,2.394844 0.241553,3.444606 l 0.05479,1.210953 0.313772,1.924595 0.283886,2.003267 0.288868,1.163186 0.363576,0.668694 0.595168,-0.618122 0.159373,-0.590021 0.535403,-1.899309 0.28389,-1.483484 0.23408,-1.989221 0.07721,-1.250285 c 0.154203,-1.939752 0.242205,-4.187528 0.244044,-6.597013 0.0014,-1.951026 -0.275058,-3.924528 -0.256494,-5.768169 0.02074,-2.060295 -0.245421,-4.31971 -0.08964,-5.7709802 0.09905,-0.9228219 0.605909,-3.0318089 0.671864,-3.4572492 0.68574,-0.060835 1.277371,-0.079505 1.822378,0.2658192 0.884102,0.5601919 -0.179929,9.8882642 0.546345,10.1902172 0.23804,0.09898 0.613309,1.31207 1.882622,-0.157338 0.969349,-3.95603 1.70572,-9.056057 -0.0224,-12.8877675 C 22.334625,1.6036332 20.949845,1.3285767 19.74249,1.3068321 Z"
         sodipodi:nodetypes="ssccscccccccccccccccscscssccss"
         inkscape:label="Cane"
         sodipodi:insensitive="true" />
      <g
         id="g812"
         inkscape:label="Stripes"
         sodipodi:insensitive="true">
        <path
           id="path796"
           style="fill:#ffffff;stroke:#000000;stroke-width:0.2"
           transform="rotate(45.904464)"
           d="m 34.660757,8.1032212 c 0.306808,-0.011488 0.991155,1.3825947 0.991155,1.3825947 l 0.448755,1.2237531 -3.402748,-0.437737 -1.891587,-1.5474808 c 0,0 2.038474,-0.5531326 3.854425,-0.62113 z"
           sodipodi:nodetypes="cccccc"
           inkscape:label="last strap" />
        <path
           id="path798"
           style="fill:#ffffff;stroke:#000000;stroke-width:0.2"
           d="m 18.775656,24.395839 c 0.221745,0.21235 -0.02814,1.800724 -0.02814,1.800724 l -0.100915,1.639072 -3.810009,-3.763065 0.0067,-2.414274 c 0,0 2.619912,1.480679 3.932388,2.737543 z"
           sodipodi:nodetypes="cccccc" />
        <path
           id="path800"
           style="fill:#ffffff;stroke:#000000;stroke-width:0.2"
           d="m 18.857003,17.794732 c 0.221745,0.21235 0.141139,1.842954 0.141139,1.842954 l -0.05858,1.681366 -4.021624,-3.847589 0.0067,-2.414274 c 0,0 2.619912,1.480679 3.932388,2.737543 z"
           sodipodi:nodetypes="ccccccc" />
        <path
           id="path802"
           style="fill:#ffffff;stroke:#000000;stroke-width:0.192302"
           d="m 18.64328,11.293821 c 0.21321,0.204177 0.135706,1.772018 0.135706,1.772018 l -0.05633,1.61665 -3.866831,-3.699494 0.0064,-2.3213485 c 0,0 2.51907,1.4236875 3.781029,2.6321745 z"
           sodipodi:nodetypes="ccccccc" />
        <path
           id="path804"
           style="fill:#ffffff;stroke:#000000;stroke-width:0.2"
           d="m 19.004627,5.7981316 c 0,0 -0.603084,2.8003749 -0.451407,2.7781737 L 15.018542,4.9816209 15.72637,2.781199 c -0.03707,-0.00342 3.371332,3.0803829 3.278257,3.0169326 z"
           sodipodi:nodetypes="ccccc" />
        <path
           id="path806"
           style="fill:#ffffff;stroke:#000000;stroke-width:0.2"
           d="m 24.40369,10.4256 -0.212686,1.001294 -0.315706,1.928062 -2.767254,-2.99538 0.122307,-2.5679965 c 1.79989,1.1664185 3.169602,2.6497665 3.173339,2.6340205 z"
           sodipodi:nodetypes="cccccc" />
        <path
           id="path808"
           style="fill:#ffffff;stroke:#000000;stroke-width:0.180591"
           d="m 23.699271,14.944849 -0.412411,0.794077 -0.602407,0.446793 -1.561583,-1.080376 -0.01352,-2.387572 c 1.62522,1.053225 2.586548,2.241296 2.589922,2.227078 z"
           sodipodi:nodetypes="cccccc" />
        <path
           id="path810"
           style="fill:#ffffff;stroke:#000000;stroke-width:0.2"
           d="M 24.293083,5.1464546 24.550539,7.9501932 21.059225,4.6712212 16.964081,1.4755456 19.34752,1.1826272 22.318013,3.2986377 Z"
           sodipodi:nodetypes="ccccccc" />
      </g>
    </g>
    <g
       id="g1419"
       inkscape:label="Crossbow"
       transform="matrix(1.5604665,0,0,1.5604665,45.508398,-0.55048192)"
       sodipodi:insensitive="true">
      <path
         id="path397"
         style="fill:#d40000;stroke:#000000;stroke-width:0.357034"
         inkscape:label="Cane"
         d="m 43.073557,1.3963527 c -1.591473,-0.028664 -2.622109,0.8232924 -2.622109,0.8232924 -0.03567,0.040914 -0.644975,0.6665305 -1.269631,1.3100187 -0.479779,-0.8421185 -0.983004,-1.7228747 -1.022125,-1.7677486 0,0 -1.724481,-0.3134496 -3.315952,-0.2847866 -1.591469,0.028663 -2.953719,2.0083392 -3.186504,2.0225031 0,0 -2.082149,1.5343235 -2.190269,6.5956593 1.67314,1.936893 3.405013,0.129448 3.405013,0.129448 0,0 -1.093892,-3.6218856 0.186406,-4.654967 0.867839,-0.7002645 2.728862,-1.1238862 3.017703,0.6503492 0.443864,0.7645796 1.20165,2.7858977 1.548204,3.7364011 0.02122,0.1032267 0.04532,0.2021577 0.07456,0.2920357 -0.06231,4.647603 -0.07533,6.14675 -0.14182,10.031538 l -0.173715,2.25267 2.88089,0.08326 c 0,0 -0.115755,-1.817182 -0.04824,-1.878686 l 0.172308,-7.503186 c 0.02004,-0.991028 0.03835,-1.97481 0.0611,-2.982493 0.06615,-0.203324 0.107377,-0.4428441 0.128413,-0.7052355 0.217533,-1.090172 0.626406,-2.9395688 1.032481,-3.6390559 0.288844,-1.7742354 2.458469,-0.6567711 3.326308,0.043495 1.280298,1.0330815 0.108737,4.1930954 0.108737,4.1930954 0,0 1.732908,1.806408 3.406049,-0.130484 C 48.343245,4.9521386 46.260061,3.4178203 46.260061,3.4178203 46.027274,3.4036563 44.665025,1.4250153 43.073557,1.3963527 Z"
         sodipodi:nodetypes="scccscccscccccccccccscccs" />
      <g
         id="g1408"
         inkscape:label="Stripes">
        <path
           id="path1317"
           style="fill:#ffffff;stroke:#000000;stroke-width:0.2"
           d="m 41.470527,7.0311134 -0.618916,2.249313 -2.659498,-2.8137679 -1.445534,-1.370199 -1.565067,-1.0952224 -2.705006,-1.5163017 0.96783,-0.7492917 0.889487,-0.4778683 2.191655,1.6172712 1.217133,0.9949762 1.37781,1.1085932 z"
           sodipodi:nodetypes="cccccccccccc" />
        <path
           id="path1321"
           style="fill:#ffffff;stroke:#000000;stroke-width:0.2"
           d="M 33.088593,5.8087454 32.440053,7.2111797 30.05412,5.4648688 31.093587,3.9168799 Z"
           sodipodi:nodetypes="ccccc" />
        <path
           id="path1323"
           style="fill:#ffffff;stroke:#000000;stroke-width:0.2"
           d="M 40.731686,11.173893 40.578885,12.865178 37.490633,10.664921 36.877767,8.4156603 Z"
           sodipodi:nodetypes="ccccc" />
        <path
           id="path1325"
           style="fill:#ffffff;stroke:#000000;stroke-width:0.2"
           d="m 40.568541,15.303934 0.05374,1.773781 -3.088149,-1.993759 -0.117291,-2.290807 z"
           sodipodi:nodetypes="ccccc" />
        <path
           id="path1327"
           style="fill:#ffffff;stroke:#000000;stroke-width:0.2"
           d="m 40.405457,19.557874 0.01252,1.939 -3.00553,-1.952501 0.0068,-1.960471 z"
           sodipodi:nodetypes="ccccc" />
        <path
           id="path1329"
           style="fill:#ffffff;stroke:#000000;stroke-width:0.2"
           d="M 48.329106,7.7422493 45.376047,8.0180334 45.327578,6.3818697 43.6465,5.1981126 42.557282,4.8520723 41.704196,4.0968148 39.345192,2.7757753 40.92178,1.6818148 l 2.181352,1.4988645 1.905394,1.2180051 1.352876,1.2544508 2.009196,1.6350703 z"
           sodipodi:nodetypes="ccccccccccccc" />
      </g>
      <path
         id="path1137"
         style="fill:#008000;stroke:#000000;stroke-width:0.106044"
         d="m 31.032776,8.5470872 a 1.6316315,0.59803295 0 0 0 -1.631051,0.5975342 1.6316315,0.59803295 0 0 0 1.631051,0.5975342 1.6316315,0.59803295 0 0 0 1.445681,-0.3210322 c 0.01806,0.0085 0.03755,0.017472 0.05696,0.02589 l 6.271521,2.7204886 c 0.08632,0.03744 0.165192,0.06425 0.221615,0.07767 l 0.0072,0.01968 c 0.009,0.02376 0.140248,-0.0037 0.294106,-0.06214 l 5.912172,-2.2461894 a 1.6315699,0.47413421 0 0 0 1.402186,0.2330064 1.6315699,0.47413421 0 0 0 1.632086,-0.4742984 1.6315699,0.47413421 0 0 0 -1.632086,-0.4742992 1.6315699,0.47413421 0 0 0 -1.631051,0.4742992 1.6315699,0.47413421 0 0 0 0.0176,0.066278 l -5.78583,2.1975174 c -0.05152,0.01957 -0.09788,0.03961 -0.137733,0.05903 -0.04845,-0.03105 -0.119223,-0.06709 -0.200904,-0.102523 l -6.25697,-2.7142781 a 1.6316315,0.59803295 0 0 0 0.01553,-0.076633 1.6316315,0.59803295 0 0 0 -1.632087,-0.5975342 z"
         inkscape:label="String" />
    </g>
    <path
       id="path1388"
       style="fill:#008000;stroke:#000000;stroke-width:0.0653311"
       inkscape:transform-center-x="-0.60721025"
       inkscape:transform-center-y="-0.26022808"
       d="m 32.191215,71.222763 c -9.32e-4,-0.04861 -0.07946,-0.305794 -0.17663,-0.576166 l -1.073332,-2.984124 c -0.03622,-0.100802 -0.07068,-0.188276 -0.09841,-0.25653 l -0.03182,-1.833224 c 0.02718,0.08369 0.05659,0.173205 0.09099,0.268912 l 1.071834,2.985682 c 0.08503,0.236575 0.156228,0.402721 0.17176,0.408021 5.4e-4,-0.0013 0.0029,-0.0048 0.0029,-0.0077 l -0.0372,-1.949361 c -9.33e-4,-0.04861 -0.08098,-0.305765 -0.178159,-0.576136 l -1.071804,-2.984155 c -0.03225,-0.08973 -0.06298,-0.1677 -0.08873,-0.232249 l -0.370639,-20.890046 0.01545,0.0074 -0.02343,-0.794867 0.630559,0.559501 -0.529761,-1.56791 -0.470782,-1.062818 -0.463662,0.989613 -0.725007,1.692253 0.756201,-0.583993 0.0062,0.308834 -0.01432,0.200649 0.01679,-0.0019 0.371104,20.836505 c -0.02868,0.06721 -0.07479,0.198304 -0.127344,0.365019 l -0.952411,3.025895 c -0.08637,0.27402 -0.156165,0.532615 -0.155169,0.581229 l 0.04025,1.949298 c 6.4e-5,0.0031 0.0026,0.0064 0.0032,0.0075 0.01532,-0.0059 0.07985,-0.174753 0.15542,-0.41452 l 0.952507,-3.024309 c 0.04971,-0.15773 0.09357,-0.309243 0.121659,-0.419967 l 0.03293,1.888265 c -0.02893,0.07045 -0.07209,0.195984 -0.121469,0.352667 l -0.953968,3.024396 c -0.08637,0.274018 -0.154606,0.534115 -0.15361,0.582729 l 0.04025,1.949298 c 9.98e-4,0.04861 0.07074,-0.132882 0.157103,-0.406905 L 29.964677,69.6136 c 0.04666,-0.148047 0.08783,-0.289777 0.115975,-0.398442 l 0.0065,0.400598 c 0.0051,0.285471 0.02779,0.514837 0.05152,0.514414 l 0.710962,-0.01255 c 0.02372,-4.23e-4 0.03766,-0.230614 0.03257,-0.516085 l -0.0022,-0.114662 c 0.0292,0.09123 0.06354,0.192874 0.10233,0.300806 l 1.073333,2.984124 c 0.08502,0.236577 0.154699,0.402753 0.170232,0.408051 5.39e-4,-0.0013 0.0029,-0.0048 0.0029,-0.0077 z"
       inkscape:label="Arrow"
       sodipodi:insensitive="true" />
    <g
       id="g1626"
       inkscape:label="NunChucks"
       transform="matrix(0.54637465,0.57493771,-0.8421366,0.80029901,61.931438,-39.221383)"
       sodipodi:insensitive="true">
      <g
         id="g1441"
         inkscape:label="Nunchucks"
         transform="rotate(88.762451,26.044544,38.87339)">
        <path
           id="path1421"
           style="fill:#d40000;stroke:#000000;stroke-width:0.270861"
           d="m 19.742464,1.3068283 c -1.207357,-0.021745 -2.235127,0.2107888 -2.515145,0.2163415 -0.05248,0.00104 -0.08967,0.023715 -0.114557,0.059004 -1.216403,-0.079017 -2.250883,4.4086338 -1.856042,5.6222219 -0.151261,1.5296282 -0.243388,6.6023753 -0.248216,12.9213353 -8.49e-4,1.117595 0.01827,2.196704 0.05478,3.233889 l -0.02989,-0.02529 0.06474,0.870986 c 0.05635,1.237621 0.138612,2.394844 0.241553,3.444606 l 0.05479,1.210953 0.313772,1.924595 0.283886,2.003267 0.288868,1.163186 0.363576,0.668694 0.595168,-0.618122 0.159373,-0.590021 0.535403,-1.899309 0.28389,-1.483484 0.23408,-1.989221 0.07721,-1.250285 c 0.154203,-1.939752 0.242205,-4.187528 0.244044,-6.597013 0.0014,-1.951026 -0.275058,-3.924528 -0.256494,-5.768169 0.02074,-2.060295 -0.245421,-4.31971 -0.08964,-5.7709802 0.09905,-0.9228219 0.605909,-3.0318089 0.671864,-3.4572492 0.68574,-0.060835 1.277371,-0.079505 1.822378,0.2658192 0.884102,0.5601919 -0.179929,9.8882642 0.546345,10.1902172 0.23804,0.09898 0.613309,1.31207 1.882622,-0.157338 0.969349,-3.95603 1.70572,-9.056057 -0.0224,-12.8877675 C 22.334625,1.6036332 20.949845,1.3285767 19.74249,1.3068321 Z"
           sodipodi:nodetypes="ssccscccccccccccccccscscssccss"
           inkscape:label="Cane" />
        <g
           id="g1439"
           inkscape:label="Stripes"
           sodipodi:insensitive="true">
          <path
             id="path1423"
             style="fill:#ffffff;stroke:#000000;stroke-width:0.2"
             transform="rotate(45.904464)"
             d="m 34.660757,8.1032212 c 0.306808,-0.011488 0.991155,1.3825947 0.991155,1.3825947 l 0.448755,1.2237531 -3.402748,-0.437737 -1.891587,-1.5474808 c 0,0 2.038474,-0.5531326 3.854425,-0.62113 z"
             sodipodi:nodetypes="cccccc"
             inkscape:label="last strap" />
          <path
             id="path1425"
             style="fill:#ffffff;stroke:#000000;stroke-width:0.2"
             d="m 18.775656,24.395839 c 0.221745,0.21235 -0.02814,1.800724 -0.02814,1.800724 l -0.100915,1.639072 -3.810009,-3.763065 0.0067,-2.414274 c 0,0 2.619912,1.480679 3.932388,2.737543 z"
             sodipodi:nodetypes="cccccc" />
          <path
             id="path1427"
             style="fill:#ffffff;stroke:#000000;stroke-width:0.2"
             d="m 18.857003,17.794732 c 0.221745,0.21235 0.141139,1.842954 0.141139,1.842954 l -0.05858,1.681366 -4.021624,-3.847589 0.0067,-2.414274 c 0,0 2.619912,1.480679 3.932388,2.737543 z"
             sodipodi:nodetypes="ccccccc" />
          <path
             id="path1429"
             style="fill:#ffffff;stroke:#000000;stroke-width:0.192302"
             d="m 18.64328,11.293821 c 0.21321,0.204177 0.135706,1.772018 0.135706,1.772018 l -0.05633,1.61665 -3.866831,-3.699494 0.0064,-2.3213485 c 0,0 2.51907,1.4236875 3.781029,2.6321745 z"
             sodipodi:nodetypes="ccccccc" />
          <path
             id="path1431"
             style="fill:#ffffff;stroke:#000000;stroke-width:0.2"
             d="m 19.004627,5.7981316 c 0,0 -0.603084,2.8003749 -0.451407,2.7781737 L 15.018542,4.9816209 15.72637,2.781199 c -0.03707,-0.00342 3.371332,3.0803829 3.278257,3.0169326 z"
             sodipodi:nodetypes="ccccc" />
          <path
             id="path1435"
             style="fill:#ffffff;stroke:#000000;stroke-width:0.180591"
             d="m 23.699271,14.944849 -0.412411,0.794077 -0.602407,0.446793 -1.561583,-1.080376 -0.01352,-2.387572 c 1.62522,1.053225 2.586548,2.241296 2.589922,2.227078 z"
             sodipodi:nodetypes="cccccc" />
        </g>
      </g>
      <g
         id="g1463"
         inkscape:label="Nunchucks"
         transform="matrix(-0.02159763,0.99976674,0.99976674,0.02159763,53.677876,11.866367)">
        <path
           id="path1443"
           style="fill:#d40000;stroke:#000000;stroke-width:0.270861"
           d="m 19.742464,1.3068283 c -1.207357,-0.021745 -2.235127,0.2107888 -2.515145,0.2163415 -0.05248,0.00104 -0.08967,0.023715 -0.114557,0.059004 -1.216403,-0.079017 -2.250883,4.4086338 -1.856042,5.6222219 -0.151261,1.5296282 -0.243388,6.6023753 -0.248216,12.9213353 -8.49e-4,1.117595 0.01827,2.196704 0.05478,3.233889 l -0.02989,-0.02529 0.06474,0.870986 c 0.05635,1.237621 0.138612,2.394844 0.241553,3.444606 l 0.05479,1.210953 0.313772,1.924595 0.283886,2.003267 0.288868,1.163186 0.363576,0.668694 0.595168,-0.618122 0.159373,-0.590021 0.535403,-1.899309 0.28389,-1.483484 0.23408,-1.989221 0.07721,-1.250285 c 0.154203,-1.939752 0.242205,-4.187528 0.244044,-6.597013 0.0014,-1.951026 -0.275058,-3.924528 -0.256494,-5.768169 0.02074,-2.060295 -0.245421,-4.31971 -0.08964,-5.7709802 0.09905,-0.9228219 0.605909,-3.0318089 0.671864,-3.4572492 0.68574,-0.060835 1.277371,-0.079505 1.822378,0.2658192 0.884102,0.5601919 -0.179929,9.8882642 0.546345,10.1902172 0.23804,0.09898 0.613309,1.31207 1.882622,-0.157338 0.969349,-3.95603 1.70572,-9.056057 -0.0224,-12.8877675 C 22.334625,1.6036332 20.949845,1.3285767 19.74249,1.3068321 Z"
           sodipodi:nodetypes="ssccscccccccccccccccscscssccss"
           inkscape:label="Cane" />
        <g
           id="g1461"
           inkscape:label="Stripes"
           sodipodi:insensitive="true">
          <path
             id="path1445"
             style="fill:#ffffff;stroke:#000000;stroke-width:0.2"
             transform="rotate(45.904464)"
             d="m 34.660757,8.1032212 c 0.306808,-0.011488 0.991155,1.3825947 0.991155,1.3825947 l 0.448755,1.2237531 -3.402748,-0.437737 -1.891587,-1.5474808 c 0,0 2.038474,-0.5531326 3.854425,-0.62113 z"
             sodipodi:nodetypes="cccccc"
             inkscape:label="last strap" />
          <path
             id="path1447"
             style="fill:#ffffff;stroke:#000000;stroke-width:0.2"
             d="m 18.775656,24.395839 c 0.221745,0.21235 -0.02814,1.800724 -0.02814,1.800724 l -0.100915,1.639072 -3.810009,-3.763065 0.0067,-2.414274 c 0,0 2.619912,1.480679 3.932388,2.737543 z"
             sodipodi:nodetypes="cccccc" />
          <path
             id="path1449"
             style="fill:#ffffff;stroke:#000000;stroke-width:0.2"
             d="m 18.857003,17.794732 c 0.221745,0.21235 0.141139,1.842954 0.141139,1.842954 l -0.05858,1.681366 -4.021624,-3.847589 0.0067,-2.414274 c 0,0 2.619912,1.480679 3.932388,2.737543 z"
             sodipodi:nodetypes="ccccccc" />
          <path
             id="path1451"
             style="fill:#ffffff;stroke:#000000;stroke-width:0.192302"
             d="m 18.64328,11.293821 c 0.21321,0.204177 0.135706,1.772018 0.135706,1.772018 l -0.05633,1.61665 -3.866831,-3.699494 0.0064,-2.3213485 c 0,0 2.51907,1.4236875 3.781029,2.6321745 z"
             sodipodi:nodetypes="ccccccc" />
          <path
             id="path1453"
             style="fill:#ffffff;stroke:#000000;stroke-width:0.2"
             d="m 19.004627,5.7981316 c 0,0 -0.603084,2.8003749 -0.451407,2.7781737 L 15.018542,4.9816209 15.72637,2.781199 c -0.03707,-0.00342 3.371332,3.0803829 3.278257,3.0169326 z"
             sodipodi:nodetypes="ccccc" />
          <path
             id="path1455"
             style="fill:#ffffff;stroke:#000000;stroke-width:0.2"
             d="m 24.40369,10.4256 -0.212686,1.001294 -0.315706,1.928062 -2.767254,-2.99538 0.122307,-2.5679965 c 1.79989,1.1664185 3.169602,2.6497665 3.173339,2.6340205 z"
             sodipodi:nodetypes="cccccc" />
          <path
             id="path1457"
             style="fill:#ffffff;stroke:#000000;stroke-width:0.180591"
             d="m 23.699271,14.944849 -0.412411,0.794077 -0.602407,0.446793 -1.561583,-1.080376 -0.01352,-2.387572 c 1.62522,1.053225 2.586548,2.241296 2.589922,2.227078 z"
             sodipodi:nodetypes="cccccc" />
          <path
             id="path1459"
             style="fill:#ffffff;stroke:#000000;stroke-width:0.2"
             d="M 24.293083,5.1464546 24.550539,7.9501932 21.059225,4.6712212 16.964081,1.4755456 19.34752,1.1826272 22.318013,3.2986377 Z"
             sodipodi:nodetypes="ccccccc" />
        </g>
      </g>
      <path
         id="path1433"
         style="fill:#ffffff;stroke:#000000;stroke-width:0.2"
         d="m 24.40369,10.4256 -0.212686,1.001294 -0.315706,1.928062 -2.767254,-2.99538 0.122307,-2.5679965 c 1.79989,1.1664185 3.169602,2.6497665 3.173339,2.6340205 z"
         sodipodi:nodetypes="cccccc"
         transform="rotate(88.762451,26.044544,38.87339)" />
      <path
         id="path1437"
         style="fill:#ffffff;stroke:#000000;stroke-width:0.196951"
         d="m 24.150771,5.3276521 0.125768,2.4935261 -3.774438,-3.9426328 -1.98811,-1.2964658 0.09077,-1.3075063 0.78136,-0.00535 2.824386,2.0563017 z"
         sodipodi:nodetypes="cccccccc"
         transform="rotate(88.762451,26.044544,38.87339)" />
      <path
         style="fill:#000000;stroke:#000000;stroke-width:0.106044"
         d="m 59.228921,33.121655 c 0.02471,0.151799 -0.310743,0.164963 -0.350337,0.204597 -0.0069,0.0069 0.0069,0.02232 1.4e-5,0.02921 -0.04624,0.04629 -0.213066,0.04193 -0.262799,0.05854 -0.01306,0.0043 -0.01613,0.02486 -0.02919,0.02922 -0.0277,0.0092 -0.0615,-0.01303 -0.08761,4.5e-5 -0.128133,0.06415 -0.29744,0.0701 -0.43799,0.11703 -0.06134,0.02048 -0.141493,-0.01566 -0.204423,1.02e-4 -0.02111,0.0053 -0.03728,0.02394 -0.05839,0.02923 -0.100825,0.02526 -0.219178,-0.0203 -0.321236,1.59e-4 -0.09055,0.01816 -0.176009,0.03679 -0.2628,0.05854 -0.127767,0.03201 -0.278209,-0.01853 -0.408845,2.03e-4 -0.03047,0.0043 -0.05741,0.0232 -0.0876,0.02925 -0.160259,0.03214 -0.360448,1.79e-4 -0.525658,2.61e-4 -0.07356,3.6e-5 -0.693419,0.0078 -0.700877,3.49e-4 -0.0069,-0.0069 0.0069,-0.02232 -1.5e-5,-0.0292 -0.04803,-0.04798 -0.174358,-0.01408 -0.204437,-0.0291 -0.0087,-0.0043 0.0069,-0.02232 -1.5e-5,-0.0292 -0.02332,-0.0233 -0.11537,0.01538 -0.146016,7.2e-5 -0.01232,-0.0061 -0.0169,-0.02304 -0.02922,-0.02919 -0.04674,-0.02334 -0.128482,0.02342 -0.175219,8.7e-5 -0.0087,-0.0043 0.0069,-0.02232 -1.5e-5,-0.02921 -0.01853,-0.01852 -0.09249,0.0122 -0.116813,5.8e-5 -0.04499,-0.02247 -0.04858,-0.05838 -0.08764,-0.05836"
         id="path1530" />
      <path
         style="fill:#000000;stroke:#000000;stroke-width:0.106044"
         d="m 54.06014,33.503867 c 0.255749,0.04248 0.53274,-0.04288 0.788487,-3.92e-4 0.138784,0.02306 0.270317,0.05976 0.408888,0.08741 0.04772,0.0095 0.255504,-0.03664 0.292032,-1.44e-4 0.0069,0.0069 -0.0069,0.02232 1.5e-5,0.0292 0.05794,0.05788 0.202744,-0.05851 0.233597,-0.05852"
         id="path1532" />
      <path
         style="fill:#000000;stroke:#000000;stroke-width:0.106044"
         d="m 56.279613,33.56117 c -0.506293,0.08571 -1.031042,0.05892 -1.547741,0.05918 -0.05129,2.6e-5 -0.390993,0.02372 -0.438048,2.18e-4 -0.0087,-0.0043 0.0087,-0.02486 -1.5e-5,-0.0292 -0.0588,-0.02936 -0.304004,1.51e-4 -0.379642,1.88e-4"
         id="path1534" />
      <path
         style="fill:#000000;stroke:#000000;stroke-width:0.106044"
         d="m 63.34656,33.090405 c -0.04692,0.04375 0.03021,0.202588 1.31e-4,0.262829 -0.02127,0.0426 -0.0467,0.04674 -0.05838,0.05844 -0.04359,0.04363 -0.04189,0.125884 -0.05832,0.175249 -0.01065,0.03201 -0.06864,0.05924 -0.08757,0.08765 -0.04063,0.061 -0.159355,0.287621 -0.204263,0.321337 -0.02462,0.01848 -0.06584,0.0075 -0.0876,0.02925 -0.02175,0.02178 -0.0074,0.06585 -0.02916,0.08762 -0.02175,0.02178 -0.06007,0.01547 -0.0876,0.02925 -0.04471,0.02239 -0.02281,0.05205 -0.05836,0.08764 -0.05332,0.05337 -0.14443,0.07192 -0.204365,0.116914 -0.05318,0.03993 -0.116317,0.116652 -0.175147,0.146104 -0.01741,0.0087 -0.03894,1.9e-5 -0.05841,2.9e-5 -0.01946,0.0097 -0.03973,0.01802 -0.05839,0.02923 -0.08469,0.05087 -0.220357,0.115647 -0.291945,0.175364 -0.01671,0.01394 -0.0097,0.04868 -0.02917,0.05842 -0.02611,0.01308 -0.05928,-0.0071 -0.08761,4.3e-5 -0.03589,0.009 -0.03678,0.07323 -0.05836,0.08764 -0.03338,0.02228 -0.08342,0.007 -0.116799,0.02926 -0.06496,0.04335 -0.262743,0.146133 -0.291945,0.175364 -0.01538,0.0154 -0.01177,0.04536 -0.02917,0.05842 -0.02063,0.08905 -0.08091,0.01129 -0.116799,0.02926 -0.121506,0.06083 0.03122,-0.002 -0.02917,0.05842 -0.113916,0.114029 -0.01569,-0.0068 -0.0876,0.02925 -0.03504,0.01754 -0.05253,0.07011 -0.08757,0.08765 -0.02994,0.01499 -0.08686,0.01427 -0.116799,0.02926 -0.04671,0.02339 -0.07004,0.09349 -0.116755,0.116871 -0.01769,0.0089 -0.07536,0.017 -0.0876,0.02925 -0.01538,0.0154 -0.01379,0.04302 -0.02917,0.05842 -0.01936,0.01938 -0.115535,0.03561 -0.145986,0.05848 -0.03433,0.02577 -0.07565,0.09629 -0.116755,0.116871 -0.07137,0.03573 -0.16063,0.08042 -0.233568,0.116929 -0.04528,0.02267 -0.05909,-0.0092 -0.116798,0.02926 -0.03801,0.02537 -0.0765,0.06751 -0.11677,0.08767 -0.04844,0.06164 -0.120238,0.0073 -0.175205,0.02929 -0.02556,0.01024 -0.03376,0.04611 -0.05838,0.05843 -0.01254,0.0063 -0.139107,0.03441 -0.17519,0.05849 -0.0229,0.01529 -0.03376,0.04611 -0.05838,0.05843 -0.03589,0.01797 -0.08091,0.01129 -0.116798,0.02926 -0.02462,0.01233 -0.03376,0.04611 -0.05838,0.05844 -0.113768,0.05696 -0.103953,0.0011 -0.204393,0.05851 -0.04225,0.02417 -0.07325,0.06588 -0.116769,0.08767 -0.02442,0.01223 -0.268837,0.05854 -0.321207,0.05857 0.08903,-0.0025 0.29125,0.09748 0.408894,0.05821 0.01306,-0.0044 0.01613,-0.02486 0.02919,-0.02922 0.01847,-0.0062 0.03952,0.0047 0.05841,-2.9e-5 0.04223,-0.01058 0.07678,-0.0413 0.116784,-0.05846 0.136468,-0.05857 0.270876,-0.100177 0.408772,-0.146219 0.04129,-0.01379 0.07456,-0.04789 0.116784,-0.05846 0.02833,-0.0071 0.0615,0.01303 0.08761,-4.4e-5 0.01946,-0.0097 0.01051,-0.04721 0.02917,-0.05842 0.03441,-0.02067 0.08091,-0.01129 0.116798,-0.02926 0.07817,-0.03913 0.153363,-0.129468 0.233539,-0.175336 0.07971,-0.0456 0.153298,-0.101493 0.233553,-0.146132 0.04581,-0.02548 0.101548,-0.03067 0.145987,-0.05848 0.03501,-0.02191 0.05172,-0.06714 0.08757,-0.08765 0.03484,-0.01993 0.07992,-0.01343 0.116799,-0.02926 0.07549,-0.0032 0.09022,-0.08898 0.145958,-0.116885 0.103895,-0.05201 0.215498,-0.05651 0.321177,-0.116973 0.139028,-0.07954 0.267381,-0.192277 0.408714,-0.263032 0.02753,-0.01378 0.06121,-0.0134 0.0876,-0.02925 0.07954,-0.04778 0.150825,-0.125651 0.233538,-0.175335 0.13331,-0.08008 0.273408,-0.156413 0.408729,-0.233829 0.05668,-0.03243 0.129025,-0.0415 0.175176,-0.0877 0.151954,-0.228177 -0.04205,0.02427 0.145958,-0.116885 0.01741,-0.01307 0.01177,-0.04535 0.02917,-0.05842 0.02462,-0.01848 0.06298,-0.01076 0.08759,-0.02925 0.01741,-0.01307 0.01379,-0.04302 0.02917,-0.05842 0.01538,-0.0154 0.04301,-0.01383 0.05839,-0.02923 0.02591,-0.02593 0.03798,-0.115486 0.05833,-0.146045 0.04651,-0.06984 0.06762,-0.03696 0.08755,-0.116857 0.02524,-0.101163 -0.03699,-0.01752 0.02914,-0.116827 0.01526,-0.02292 0.04968,-0.03231 0.05838,-0.05844 0.0063,-0.01902 0.05508,-0.230438 0.05829,-0.233655 0.0069,-0.0069 0.02485,0.0087 0.0292,-1.4e-5 0.01167,-0.02337 -0.01171,-0.06424 -4.4e-5,-0.08761 0.0097,-0.01947 0.04867,-0.0098 0.05839,-0.02923 0.01556,-0.03116 -0.01562,-0.08565 -5.8e-5,-0.116813 0.01,-0.01999 0.08753,-0.161727 0.08752,-0.175263 -2.5e-5,-0.04964 -0.01952,-0.09733 -0.02928,-0.146001 z"
         id="path1536" />
      <path
         id="rect1592"
         style="fill:#d40000;stroke:#000000;stroke-width:0.106044"
         transform="rotate(-45.150584)"
         d="m 16.292743,64.167962 0.989632,0.866144 0.831508,0.345289 0.718147,0.772164 c 0,0 -1.054698,0.01667 -1.053209,0.01664 l -2.676121,0.04306 -0.79753,-0.07249 -1.455379,-1.609305 z"
         sodipodi:nodetypes="ccccccccc" />
      <path
         id="path1596"
         style="fill:#d40000;stroke:#000000;stroke-width:0.106044"
         d="m 62.475458,32.750625 0.867591,-0.968166 c 0,0 0.369009,1.54973 -0.671669,2.385805 l -1.485866,1.085408 -1.144569,0.499595 z"
         sodipodi:nodetypes="cccccc" />
    </g>
    <ellipse
       style="fill:#0088aa;stroke:#000000;stroke-width:0.130639"
       id="path1959"
       cx="69.694313"
       cy="56.331902"
       rx="16.812483"
       ry="16.82305"
       inkscape:label="Shield" />
    <ellipse
       style="fill:#37abc8;stroke:#000000;stroke-width:0.130068"
       id="path1947"
       cx="69.610008"
       cy="56.303783"
       rx="5.4866633"
       ry="5.5645952"
       inkscape:label="Middle" />
    <g
       id="g2049"
       inkscape:label="Sticks"
       style="fill:#0066ff"
       transform="matrix(1.3277672,0,0,1.3277672,-23.112444,-18.406648)">
      <rect
         style="fill:#0066ff;stroke:#000000;stroke-width:0.0819405"
         id="rect2037"
         width="0.2733081"
         height="4.4505367"
         x="88.285583"
         y="6.8340201"
         rx="0.20629247"
         ry="0.060418379"
         transform="matrix(0.87166128,0.49010878,-0.64393356,0.76508141,0,0)" />
      <rect
         style="fill:#0066ff;stroke:#000000;stroke-width:0.0819405"
         id="rect2039"
         width="0.2733081"
         height="4.4505367"
         x="11.079861"
         y="83.977737"
         rx="0.20629247"
         ry="0.060418379"
         transform="matrix(0.54766822,-0.83669559,0.7200036,0.69397033,0,0)" />
      <rect
         style="fill:#0066ff;stroke:#000000;stroke-width:0.0819405"
         id="rect2041"
         width="0.2733081"
         height="4.4505367"
         x="56.972672"
         y="-64.339806"
         rx="0.20629247"
         ry="0.060418379"
         transform="matrix(0.22634795,0.97404651,-0.99916319,0.04090124,0,0)" />
      <rect
         style="fill:#0066ff;stroke:#000000;stroke-width:0.0819405"
         id="rect2043"
         width="0.2733081"
         height="4.4505367"
         x="-74.867142"
         y="-66.187111"
         rx="0.20629247"
         ry="0.060418379"
         transform="matrix(-0.98471395,0.1741793,0.01234145,-0.99992384,0,0)" />
      <rect
         style="fill:#0066ff;stroke:#000000;stroke-width:0.0819405"
         id="rect2078"
         width="0.2733081"
         height="4.4505367"
         x="94.116699"
         y="4.8386908"
         rx="0.20629247"
         ry="0.060418379"
         transform="matrix(0.85148329,0.52438173,-0.67384683,0.73887106,0,0)" />
      <rect
         style="fill:#0066ff;stroke:#000000;stroke-width:0.0819405"
         id="rect2080"
         width="0.2733081"
         height="4.4505367"
         x="-5.4045424"
         y="-98.113411"
         rx="0.20629247"
         ry="0.060418379"
         transform="matrix(-0.49561576,0.86854189,-0.7609906,-0.64876291,0,0)" />
      <rect
         style="fill:#0066ff;stroke:#000000;stroke-width:0.0819405"
         id="rect2033"
         width="0.2733081"
         height="4.4505367"
         x="63.400951"
         y="65.771019"
         rx="0.20629247"
         ry="0.060418379"
         transform="matrix(0.96477403,-0.26307997,0.0787177,0.99689693,0,0)" />
      <rect
         style="fill:#0066ff;stroke:#000000;stroke-width:0.0819405"
         id="rect2083"
         width="0.2733081"
         height="4.4505367"
         x="-6.1270604"
         y="80.666702"
         rx="0.20629247"
         ry="0.060418379"
         transform="matrix(0.43717179,-0.89937802,0.80217597,0.59708769,0,0)" />
      <rect
         style="fill:#0066ff;stroke:#000000;stroke-width:0.0819405"
         id="rect2085"
         width="0.2733081"
         height="4.4505367"
         x="-51.523975"
         y="54.81097"
         rx="0.20629247"
         ry="0.060418379"
         transform="matrix(-0.1458815,-0.98930207,0.9991592,0.04099859,0,0)" />
      <rect
         style="fill:#0066ff;stroke:#000000;stroke-width:0.0819405"
         id="rect2087"
         width="0.2733081"
         height="4.4505367"
         x="-64.688087"
         y="46.292168"
         rx="0.20629247"
         ry="0.060418379"
         transform="matrix(-0.2489536,-0.96851541,0.99794081,-0.0641416,0,0)" />
      <rect
         style="fill:#0066ff;stroke:#000000;stroke-width:0.0819405"
         id="rect2089"
         width="0.2733081"
         height="4.4505367"
         x="-57.304626"
         y="64.609695"
         rx="0.20629247"
         ry="0.060418379"
         transform="matrix(-0.1458815,-0.98930207,0.9991592,0.04099859,0,0)" />
      <rect
         style="fill:#0066ff;stroke:#000000;stroke-width:0.0819405"
         id="rect2091"
         width="0.2733081"
         height="4.4505367"
         x="4.6378474"
         y="93.20771"
         rx="0.20629247"
         ry="0.060418379"
         transform="matrix(0.5453475,-0.83821006,0.72192394,0.69197242,0,0)" />
      <rect
         style="fill:#0066ff;stroke:#000000;stroke-width:0.0819405"
         id="rect2093"
         width="0.2733081"
         height="4.4505367"
         x="93.594833"
         y="10.043845"
         rx="0.20629247"
         ry="0.060418379"
         transform="matrix(0.8215755,0.57009973,-0.71319188,0.70096886,0,0)" />
      <rect
         style="fill:#0066ff;stroke:#000000;stroke-width:0.0819405"
         id="rect2095"
         width="0.2733081"
         height="4.4505367"
         x="73.740288"
         y="65.809898"
         rx="0.20629247"
         ry="0.060418379"
         transform="matrix(0.99641535,-0.08459582,-0.10253644,0.99472925,0,0)" />
      <rect
         style="fill:#0066ff;stroke:#000000;stroke-width:0.0819405"
         id="rect2097"
         width="0.2733081"
         height="4.4505367"
         x="-87.144829"
         y="-7.8355122"
         rx="0.20629247"
         ry="0.060418379"
         transform="matrix(-0.78341209,-0.62150262,0.75658412,-0.65389638,0,0)" />
      <rect
         style="fill:#0066ff;stroke:#000000;stroke-width:0.0819405"
         id="rect2099"
         width="0.2733081"
         height="4.4505367"
         x="71.345322"
         y="75.511566"
         rx="0.20629247"
         ry="0.060418379"
         transform="matrix(0.97389982,-0.2269783,0.04154788,0.99913651,0,0)" />
      <rect
         style="fill:#0066ff;stroke:#000000;stroke-width:0.112887"
         id="rect2101"
         width="0.41737741"
         height="5.5313315"
         x="-57.557976"
         y="60.891834"
         rx="0.31503573"
         ry="0.075090736"
         transform="matrix(-0.21811107,-0.97592395,0.99244724,-0.1226722,0,0)" />
      <rect
         style="fill:#0066ff;stroke:#000000;stroke-width:0.112887"
         id="rect2112"
         width="0.41737741"
         height="5.5313315"
         x="-40.007568"
         y="63.024323"
         rx="0.31503573"
         ry="0.075090736"
         transform="matrix(0.03225305,-0.99947974,0.99167106,0.12879641,0,0)" />
      <rect
         style="fill:#0066ff;stroke:#000000;stroke-width:0.112887"
         id="rect2114"
         width="0.41737741"
         height="5.5313315"
         x="32.221355"
         y="79.257736"
         rx="0.31503573"
         ry="0.075090736"
         transform="matrix(0.76367878,-0.64559641,0.56868595,0.82255473,0,0)" />
      <rect
         style="fill:#0066ff;stroke:#000000;stroke-width:0.112887"
         id="rect2116"
         width="0.41737741"
         height="5.5313315"
         x="-82.472771"
         y="0.9021666"
         rx="0.31503573"
         ry="0.075090736"
         transform="matrix(-0.80388364,-0.5947866,0.66976829,-0.74257016,0,0)" />
      <rect
         style="fill:#0066ff;stroke:#000000;stroke-width:0.112887"
         id="rect2118"
         width="0.41737741"
         height="5.5313315"
         x="59.478142"
         y="56.200924"
         rx="0.31503573"
         ry="0.075090736"
         transform="matrix(0.99042869,-0.13802539,0.04155892,0.99913605,0,0)" />
      <rect
         style="fill:#0066ff;stroke:#000000;stroke-width:0.112887"
         id="rect2120"
         width="0.41737741"
         height="5.5313315"
         x="-80.772072"
         y="2.6823704"
         rx="0.31503573"
         ry="0.075090736"
         transform="matrix(-0.68892716,-0.72483058,0.78808079,-0.61557182,0,0)" />
      <rect
         style="fill:#0066ff;stroke:#000000;stroke-width:0.112887"
         id="rect2122"
         width="0.41737741"
         height="5.5313315"
         x="-8.9300451"
         y="79.387772"
         rx="0.31503573"
         ry="0.075090736"
         transform="matrix(0.53791748,-0.8429975,0.78700234,0.61695001,0,0)" />
      <rect
         style="fill:#0066ff;stroke:#000000;stroke-width:0.112887"
         id="rect2124"
         width="0.41737741"
         height="5.5313315"
         x="62.330051"
         y="65.148331"
         rx="0.31503573"
         ry="0.075090736"
         transform="matrix(0.99587249,-0.09076331,-0.00600812,0.99998195,0,0)" />
      <rect
         style="fill:#0066ff;stroke:#000000;stroke-width:0.112887"
         id="rect2126"
         width="0.41737741"
         height="5.5313315"
         x="-72.233154"
         y="45.45715"
         rx="0.31503573"
         ry="0.075090736"
         transform="matrix(-0.21811107,-0.97592395,0.99244724,-0.1226722,0,0)" />
      <rect
         style="fill:#0066ff;stroke:#000000;stroke-width:0.112887"
         id="rect2128"
         width="0.41737741"
         height="5.5313315"
         x="10.035904"
         y="92.752907"
         rx="0.31503573"
         ry="0.075090736"
         transform="matrix(0.7038589,-0.71033981,0.63891292,0.76927906,0,0)" />
      <rect
         style="fill:#0066ff;stroke:#000000;stroke-width:0.112887"
         id="rect2130"
         width="0.41737741"
         height="5.5313315"
         x="96.273117"
         y="21.481026"
         rx="0.31503573"
         ry="0.075090736"
         transform="matrix(0.8810699,0.47298608,-0.55600649,0.83117795,0,0)" />
      <rect
         style="fill:#0066ff;stroke:#000000;stroke-width:0.112887"
         id="rect2132"
         width="0.41737741"
         height="5.5313315"
         x="-53.051216"
         y="76.180756"
         rx="0.31503573"
         ry="0.075090736"
         transform="matrix(0.04805076,-0.9988449,0.98951085,0.1444586,0,0)" />
      <rect
         style="fill:#0066ff;stroke:#000000;stroke-width:0.112887"
         id="rect2134"
         width="0.41737741"
         height="5.5313315"
         x="68.680061"
         y="76.079575"
         rx="0.31503573"
         ry="0.075090736"
         transform="matrix(0.97287473,-0.23133257,0.13612668,0.99069144,0,0)" />
      <rect
         style="fill:#0066ff;stroke:#000000;stroke-width:0.112887"
         id="rect2136"
         width="0.41737741"
         height="5.5313315"
         x="-91.910103"
         y="25.17572"
         rx="0.31503573"
         ry="0.075090736"
         transform="matrix(-0.60998913,-0.79240978,0.84770614,-0.53046612,0,0)" />
      <rect
         style="fill:#0066ff;stroke:#000000;stroke-width:0.112887"
         id="rect2138"
         width="0.41737741"
         height="5.5313315"
         x="3.4759252"
         y="93.746346"
         rx="0.31503573"
         ry="0.075090736"
         transform="matrix(0.5162428,-0.85644227,0.80248097,0.59667771,0,0)" />
      <rect
         style="fill:#0066ff;stroke:#000000;stroke-width:0.112887"
         id="rect2140"
         width="0.41737741"
         height="5.5313315"
         x="85.097221"
         y="42.671082"
         rx="0.31503573"
         ry="0.075090736"
         transform="matrix(0.9978605,0.06537902,-0.16161035,0.98685465,0,0)" />
    </g>
    <g
       id="g2013"
       inkscape:label="Outer Circles"
       style="fill:#aaccff"
       transform="matrix(1.3277672,0,0,1.3277672,-23.112444,-18.406648)">
      <ellipse
         style="fill:#aaccff;stroke:#000000;stroke-width:0.106044"
         id="path1949"
         cx="69.978752"
         cy="44.53994"
         rx="0.84159863"
         ry="0.88455874" />
      <ellipse
         style="fill:#aaccff;stroke:#000000;stroke-width:0.106044"
         id="ellipse1951"
         cx="58.048779"
         cy="56.363869"
         rx="0.84159863"
         ry="0.88455874" />
      <ellipse
         style="fill:#aaccff;stroke:#000000;stroke-width:0.106044"
         id="ellipse1953"
         cx="81.643608"
         cy="56.204803"
         rx="0.84159863"
         ry="0.88455874" />
      <ellipse
         style="fill:#aaccff;stroke:#000000;stroke-width:0.106044"
         id="ellipse1955"
         cx="78.29985"
         cy="64.582291"
         rx="0.84159863"
         ry="0.88455874" />
      <ellipse
         style="fill:#aaccff;stroke:#000000;stroke-width:0.106044"
         id="ellipse1957"
         cx="69.978752"
         cy="67.922684"
         rx="0.84159863"
         ry="0.88455874" />
      <ellipse
         style="fill:#aaccff;stroke:#000000;stroke-width:0.106044"
         id="ellipse1962"
         cx="61.534939"
         cy="47.986378"
         rx="0.84159863"
         ry="0.88455874" />
      <ellipse
         style="fill:#aaccff;stroke:#000000;stroke-width:0.106044"
         id="ellipse1964"
         cx="78.250198"
         cy="47.933353"
         rx="0.84159863"
         ry="0.88455874" />
      <ellipse
         style="fill:#aaccff;stroke:#000000;stroke-width:0.106044"
         id="ellipse1966"
         cx="61.548237"
         cy="64.582291"
         rx="0.84159863"
         ry="0.88455874" />
    </g>
    <g
       id="g1994"
       inkscape:label="Middle Circles"
       style="fill:#aaccff"
       transform="matrix(1.3277672,0,0,1.3277672,-23.112444,-18.406648)">
      <ellipse
         style="fill:#aaccff;stroke:#000000;stroke-width:0.0747231"
         id="ellipse1970"
         cx="41.750622"
         cy="70.940331"
         rx="0.59627259"
         ry="0.61990356"
         inkscape:label="ellipse1970"
         transform="rotate(-23.294736)" />
      <ellipse
         style="fill:#aaccff;stroke:#000000;stroke-width:0.0747231"
         id="ellipse1972"
         cx="33.298233"
         cy="79.226601"
         rx="0.59627259"
         ry="0.61990356"
         transform="rotate(-23.294736)" />
      <ellipse
         style="fill:#aaccff;stroke:#000000;stroke-width:0.0747231"
         id="ellipse1974"
         cx="50.015167"
         cy="79.115135"
         rx="0.59627259"
         ry="0.61990356"
         transform="rotate(-23.294736)" />
      <ellipse
         style="fill:#aaccff;stroke:#000000;stroke-width:0.0747231"
         id="ellipse1976"
         cx="47.646118"
         cy="84.986122"
         rx="0.59627259"
         ry="0.61990356"
         transform="rotate(-23.294736)" />
      <ellipse
         style="fill:#aaccff;stroke:#000000;stroke-width:0.0747231"
         id="ellipse1978"
         cx="41.750622"
         cy="87.32708"
         rx="0.59627259"
         ry="0.61990356"
         transform="rotate(-23.294736)" />
      <ellipse
         style="fill:#aaccff;stroke:#000000;stroke-width:0.0747231"
         id="ellipse1980"
         cx="35.768177"
         cy="73.355614"
         rx="0.59627259"
         ry="0.61990356"
         transform="rotate(-23.294736)" />
      <ellipse
         style="fill:#aaccff;stroke:#000000;stroke-width:0.0747231"
         id="ellipse1982"
         cx="47.610935"
         cy="73.318451"
         rx="0.59627259"
         ry="0.61990356"
         transform="rotate(-23.294736)" />
      <ellipse
         style="fill:#aaccff;stroke:#000000;stroke-width:0.0747231"
         id="ellipse1984"
         cx="35.777596"
         cy="84.986122"
         rx="0.59627259"
         ry="0.61990356"
         transform="rotate(-23.294736)" />
    </g>
    <g
       id="g2031"
       inkscape:label="Inside Circles"
       transform="matrix(0.26415241,-0.61407202,0.62040412,0.26145637,16.282287,84.255461)"
       style="fill:#80b3ff">
      <ellipse
         style="fill:#80b3ff;stroke:#000000;stroke-width:0.0747231"
         id="ellipse2015"
         cx="41.750622"
         cy="70.940331"
         rx="0.59627259"
         ry="0.61990356"
         inkscape:label="ellipse1970"
         transform="rotate(-23.294736)" />
      <ellipse
         style="fill:#80b3ff;stroke:#000000;stroke-width:0.0747231"
         id="ellipse2017"
         cx="33.298233"
         cy="79.226601"
         rx="0.59627259"
         ry="0.61990356"
         transform="rotate(-23.294736)" />
      <ellipse
         style="fill:#80b3ff;stroke:#000000;stroke-width:0.0747231"
         id="ellipse2019"
         cx="50.015167"
         cy="79.115135"
         rx="0.59627259"
         ry="0.61990356"
         transform="rotate(-23.294736)" />
      <ellipse
         style="fill:#80b3ff;stroke:#000000;stroke-width:0.0747231"
         id="ellipse2021"
         cx="47.646118"
         cy="84.986122"
         rx="0.59627259"
         ry="0.61990356"
         transform="rotate(-23.294736)" />
      <ellipse
         style="fill:#80b3ff;stroke:#000000;stroke-width:0.0747231"
         id="ellipse2023"
         cx="41.750622"
         cy="87.32708"
         rx="0.59627259"
         ry="0.61990356"
         transform="rotate(-23.294736)" />
      <ellipse
         style="fill:#80b3ff;stroke:#000000;stroke-width:0.0747231"
         id="ellipse2025"
         cx="35.768177"
         cy="73.355614"
         rx="0.59627259"
         ry="0.61990356"
         transform="rotate(-23.294736)" />
      <ellipse
         style="fill:#80b3ff;stroke:#000000;stroke-width:0.0747231"
         id="ellipse2027"
         cx="47.610935"
         cy="73.318451"
         rx="0.59627259"
         ry="0.61990356"
         transform="rotate(-23.294736)" />
      <ellipse
         style="fill:#80b3ff;stroke:#000000;stroke-width:0.0747231"
         id="ellipse2029"
         cx="35.777596"
         cy="84.986122"
         rx="0.59627259"
         ry="0.61990356"
         transform="rotate(-23.294736)" />
    </g>
    <path
       sodipodi:type="star"
       style="fill:#c8ab37;stroke:#000000;stroke-width:0.106044"
       id="path2194"
       inkscape:flatsided="false"
       sodipodi:sides="5"
       sodipodi:cx="100.09833"
       sodipodi:cy="97.935349"
       sodipodi:r1="8.8049488"
       sodipodi:r2="4.4024739"
       sodipodi:arg1="0.8871077"
       sodipodi:arg2="1.5154262"
       inkscape:rounded="0"
       inkscape:randomized="0"
       d="m 105.66003,104.76137 -5.31806,-2.43029 -5.016911,3.00312 0.667973,-5.808781 -4.406453,-3.843347 5.730895,-1.159733 2.293572,-5.378445 2.873914,5.092028 5.82396,0.519285 -3.95472,4.306779 z"
       transform="matrix(0.55611685,0.01341957,-0.01341957,0.55611685,15.323788,0.60371948)"
       inkscape:transform-center-x="0.089171713"
       inkscape:transform-center-y="-0.79688064" />
  </g>
</svg>
