<?xml version="1.0" encoding="UTF-8" standalone="no"?>
<!-- Created with Inkscape (http://www.inkscape.org/) -->

<svg
   width="64"
   height="64"
   viewBox="0 0 64 64"
   version="1.1"
   id="svg5"
   inkscape:version="1.2 (dc2aedaf03, 2022-05-15)"
   sodipodi:docname="Xmas Tree.svg"
   inkscape:export-filename="Xmas Tree idle 2.png"
   inkscape:export-xdpi="291"
   inkscape:export-ydpi="291"
   xmlns:inkscape="http://www.inkscape.org/namespaces/inkscape"
   xmlns:sodipodi="http://sodipodi.sourceforge.net/DTD/sodipodi-0.dtd"
   xmlns="http://www.w3.org/2000/svg"
   xmlns:svg="http://www.w3.org/2000/svg">
  <sodipodi:namedview
     id="namedview7"
     pagecolor="#ffffff"
     bordercolor="#000000"
     borderopacity="0.25"
     inkscape:showpageshadow="2"
     inkscape:pageopacity="0.0"
     inkscape:pagecheckerboard="true"
     inkscape:deskcolor="#d1d1d1"
     inkscape:document-units="px"
     showgrid="true"
     inkscape:zoom="12.611284"
     inkscape:cx="77.668538"
     inkscape:cy="29.497393"
     inkscape:window-width="1920"
     inkscape:window-height="1009"
     inkscape:window-x="-8"
     inkscape:window-y="-8"
     inkscape:window-maximized="1"
     inkscape:current-layer="g3022">
    <inkscape:grid
       type="xygrid"
       id="grid645"
       empspacing="8"
       spacingy="8"
       spacingx="8" />
    <inkscape:page
       x="0"
       y="0"
       width="64"
       height="64"
       id="page2787" />
    <inkscape:page
       x="72.049495"
       y="0.11968355"
       width="63.911014"
       height="63.911014"
       id="page2789"
       inkscape:export-filename="Xmas Tree idle 2.png"
       inkscape:export-xdpi="291"
       inkscape:export-ydpi="291" />
  </sodipodi:namedview>
  <defs
     id="defs2" />
  <g
     id="g2868"
     inkscape:label="Xmas Tree"
     sodipodi:insensitive="true">
    <path
       id="rect800"
       style="fill:#803300;stroke:#000000;stroke-width:0.201125;stroke-dasharray:none;stroke-opacity:1"
       inkscape:label="Left Leg"
       d="m 31.889406,0.19885656 -1.058655,2.18212474 -2.398176,0.3633602 1.748057,1.6812769 -0.392822,2.3942485 1.907149,-1.0193723 -6.548338,10.9125874 -7.612885,7.732696 7.129715,-0.05303 -2.068207,3.66699 c -0.04017,-0.014 -0.06449,-0.02178 -0.06481,-0.01768 -3.02e-4,0.0038 0.01814,0.01765 0.05303,0.03732 l -1.021337,1.810909 -5.768587,4.049992 8.422098,-0.28676 -2.751716,4.010709 c -3.41e-4,2.19e-4 -0.0078,-0.0043 -0.0078,-0.0039 -7.8e-5,6.25e-4 0.0053,0.0048 0.0059,0.0059 l -1.555574,2.268545 -6.642616,3.54718 10.272288,0.155164 -6.571907,4.916165 -8.7108225,4.083381 15.4261095,0.265155 -0.04125,-0.111954 2.580839,-0.01375 -0.396751,9.767513 c -0.03107,0.765519 0.560255,1.406655 1.325774,1.437728 l 2.315684,0.09428 c 0.765519,0.03107 1.406655,-0.560253 1.437727,-1.325773 l 0.402643,-9.932497 c 9.05e-4,-0.02228 1.39e-4,-0.04472 1e-6,-0.06678 l 0.274974,-0.002 c -1.74e-4,0.0227 -9.31e-4,0.04581 -1e-6,0.06874 l 0.402643,9.932498 c 0.03107,0.765519 0.674173,1.356846 1.439692,1.325773 l 2.31372,-0.09428 c 0.76552,-0.03107 1.356846,-0.672209 1.325774,-1.437728 l -0.402643,-9.932499 c -2.96e-4,-0.0073 -0.0015,-0.01432 -0.002,-0.0216 l 17.847856,0.149272 -10.582618,-4.55084 -0.797428,-0.789572 c 0.0374,-0.01903 0.119809,-0.05551 0.11981,-0.05892 -2e-6,-0.0039 -0.08574,0.02989 -0.133559,0.04713 l -3.940002,-3.896792 10.959727,0.192482 -7.165068,-3.798585 -5.623245,-5.853043 10.940085,-0.178735 -5.030081,-3.545216 c 0.05715,-0.0382 0.08186,-0.06458 0.08249,-0.07268 7.34e-4,-0.0094 -0.04612,0.01217 -0.123739,0.04321 L 40.928235,28.668612 37.55586,24.44185 46.290251,24.357388 38.372929,17.329812 32.199735,5.8181715 34.079387,6.7904053 33.653175,4.4040132 35.379627,2.6991669 32.977523,2.3652684 Z M 46.412025,24.410424 a 1.4440994,1.5596274 4.9999999e-7 0 0 -1.443619,1.559503 1.4440994,1.5596274 4.9999999e-7 0 0 1.443619,1.559502 1.4440994,1.5596274 4.9999999e-7 0 0 1.44362,-1.559502 1.4440994,1.5596274 4.9999999e-7 0 0 -1.44362,-1.559503 z m -28.534571,0.172842 a 1.4440994,1.5596274 4.9999999e-7 0 0 -1.445583,1.559502 1.4440994,1.5596274 4.9999999e-7 0 0 1.445583,1.559503 1.4440994,1.5596274 4.9999999e-7 0 0 1.44362,-1.559503 1.4440994,1.5596274 4.9999999e-7 0 0 -1.44362,-1.559502 z m 30.325839,9.415938 a 1.4440994,1.5596274 4.9999999e-7 0 0 -1.445585,1.559502 1.4440994,1.5596274 4.9999999e-7 0 0 1.445584,1.559501 1.4440994,1.5596274 4.9999999e-7 0 0 1.44362,-1.559501 1.4440994,1.5596274 4.9999999e-7 0 0 -1.443619,-1.559502 z m -32.176029,0.05696 a 1.4440994,1.5596274 4.9999999e-7 0 0 -1.44362,1.559502 1.4440994,1.5596274 4.9999999e-7 0 0 1.44362,1.559503 1.4440994,1.5596274 4.9999999e-7 0 0 1.445584,-1.559503 1.4440994,1.5596274 4.9999999e-7 0 0 -1.445584,-1.559502 z m -2.598516,9.472896 a 1.4440994,1.5596274 4.9999999e-7 0 0 -1.443619,1.559503 1.4440994,1.5596274 4.9999999e-7 0 0 1.443619,1.559502 1.4440994,1.5596274 4.9999999e-7 0 0 1.44362,-1.559502 1.4440994,1.5596274 4.9999999e-7 0 0 -1.44362,-1.559503 z m 36.67973,0.288724 a 1.4440994,1.5596274 4.9999999e-7 0 0 -1.44362,1.559502 1.4440994,1.5596274 4.9999999e-7 0 0 1.443619,1.559503 1.4440994,1.5596274 4.9999999e-7 0 0 1.443621,-1.559503 1.4440994,1.5596274 4.9999999e-7 0 0 -1.44362,-1.559502 z M 8.4615181,52.829113 a 1.4440994,1.5596274 4.9999999e-7 0 0 -1.4455847,1.559502 1.4440994,1.5596274 4.9999999e-7 0 0 1.4455848,1.559502 1.4440994,1.5596274 4.9999999e-7 0 0 1.44362,-1.559503 1.4440994,1.5596274 4.9999999e-7 0 0 -1.4436201,-1.559501 z m 45.9797829,0.05892 a 1.4440994,1.5596274 4.9999999e-7 0 0 -1.44362,1.559503 1.4440994,1.5596274 4.9999999e-7 0 0 1.443621,1.559502 1.4440994,1.5596274 4.9999999e-7 0 0 1.44362,-1.559502 1.4440994,1.5596274 4.9999999e-7 0 0 -1.443621,-1.559503 z" />
    <g
       inkscape:label="Xmas Tree"
       inkscape:groupmode="layer"
       id="g1968"
       transform="translate(-0.8622961,-0.01734392)">
      <g
         inkscape:groupmode="layer"
         id="g1848"
         inkscape:label="Legs">
        <rect
           style="fill:#803300;stroke-width:0.201474"
           id="rect1844"
           width="5.0832295"
           height="12.708076"
           x="29.180628"
           y="50.046757"
           ry="1.382943"
           transform="rotate(2.3243425)"
           inkscape:label="Left Leg" />
        <rect
           style="fill:#803300;stroke-width:0.201474"
           id="rect1846"
           width="5.0832295"
           height="12.708076"
           x="-35.34145"
           y="52.665688"
           ry="1.382943"
           transform="matrix(-0.99917725,0.0405563,0.0405563,0.99917725,0,0)"
           inkscape:label="Right Leg" />
      </g>
      <path
         id="path1874"
         style="fill:#005500;stroke-width:0.411643"
         inkscape:transform-center-x="-0.012134971"
         inkscape:transform-center-y="-2.141578"
         d="m 36.695253,52.687024 -12.211564,0.06338 0.04199,0.111338 -15.4265304,-0.264349 8.7114824,-4.084452 6.570852,-4.915822 -10.271773,-0.153694 6.641571,-3.547813 4.310451,-6.28238 -8.423077,0.287286 5.770265,-4.048782 3.100295,-5.498468 -7.129856,0.05369 7.613487,-7.732884 6.808562,-11.3494063 6.417934,11.9664053 7.916034,7.026468 -8.734203,0.08415 3.373222,4.228421 7.353372,5.181809 -10.939297,0.18017 5.62189,5.853161 7.166479,3.798305 -10.960818,-0.192724 4.751484,4.698083 10.582996,4.550865 -18.489783,-0.156114 z"
         sodipodi:nodetypes="cccccccccccccccccccccccccccc"
         inkscape:label="Green Tree" />
      <g
         id="g2694"
         inkscape:label="Accents"
         transform="matrix(1.0056236,0,0,1.0056236,-0.04373882,-0.36100815)">
        <path
           id="path2671"
           style="fill:#112b00;stroke-width:0.0810524"
           d="m 32.649352,7.2993185 c 0.03199,-0.01287 1.427074,1.7734099 2.686293,4.2669315 1.259217,2.493521 1.471466,3.442235 1.439499,3.455154 -0.03198,0.01287 -0.450666,-1.291416 -1.709882,-3.784938 -1.259219,-2.493523 -2.447877,-3.9242298 -2.41591,-3.9371475 z"
           sodipodi:nodetypes="cscsc"
           inkscape:label="Top" />
        <path
           id="path2675"
           style="fill:#112b00;stroke-width:0.0810524"
           d="m 38.038106,18.980269 c 0.02328,-0.02543 2.053442,0.982293 4.2668,2.686503 2.213356,1.704209 2.814846,2.467961 2.791605,2.493429 -0.02328,0.02543 -0.964621,-0.969723 -3.177976,-2.673934 -2.213359,-1.70421 -3.903671,-2.480531 -3.880429,-2.505998 z"
           sodipodi:nodetypes="cscsc"
           inkscape:label="Fourth" />
        <path
           id="path2677"
           style="fill:#112b00;stroke-width:0.0810524"
           d="m 39.138284,28.120206 c 0.02328,-0.02543 2.053442,0.982293 4.2668,2.686503 2.213356,1.704209 2.814846,2.467961 2.791605,2.493429 -0.02328,0.02543 -0.964621,-0.969723 -3.177976,-2.673934 -2.213359,-1.70421 -3.903671,-2.480531 -3.880429,-2.505998 z"
           sodipodi:nodetypes="cscsc"
           inkscape:label="Third" />
        <path
           id="path2679"
           style="fill:#112b00;stroke-width:0.0810524"
           d="m 38.461251,38.021805 c 0.02328,-0.02543 2.053442,0.982293 4.2668,2.686503 2.213356,1.704209 2.814846,2.467961 2.791605,2.493429 -0.02328,0.02543 -0.964621,-0.969723 -3.177976,-2.673934 -2.213359,-1.70421 -3.903671,-2.480531 -3.880429,-2.505998 z"
           sodipodi:nodetypes="cscsc"
           inkscape:label="Second" />
        <path
           id="path2681"
           style="fill:#112b00;stroke-width:0.103966"
           d="m 37.868916,45.553921 c 0.02998,-0.03249 2.644258,1.255068 5.494444,3.432526 2.850183,2.177456 3.624733,3.153296 3.594805,3.185837 -0.02998,0.03249 -1.242161,-1.239009 -4.092343,-3.416467 -2.850187,-2.177458 -5.026835,-3.169357 -4.996906,-3.201896 z"
           sodipodi:nodetypes="cscsc"
           inkscape:label="Bottom" />
        <path
           id="path2702"
           style="fill:#112b00;stroke-width:0.0982127"
           d="m 36.670513,53.130374 c 0.04392,0.0048 0.642033,2.581314 0.687514,5.795045 0.04548,3.213727 -0.243313,4.288006 -0.287229,4.283244 -0.04392,-0.0048 0.207572,-1.552324 0.162096,-4.76605 -0.04548,-3.213732 -0.606297,-5.317002 -0.562381,-5.312239 z"
           sodipodi:nodetypes="cscsc"
           inkscape:label="Right Leg" />
        <path
           id="path2704"
           style="fill:#112b00;stroke-width:0.0982127"
           d="m 31.532404,53.427368 c 0.04283,0.01084 0.278307,2.64536 -0.121783,5.834414 -0.400091,3.189049 -0.834898,4.212973 -0.877731,4.202174 -0.04283,-0.01084 0.420583,-1.50861 0.820678,-4.697658 0.400091,-3.189055 0.136003,-5.34973 0.178836,-5.33893 z"
           sodipodi:nodetypes="cscsc"
           inkscape:label="Left Leg" />
      </g>
      <g
         inkscape:groupmode="layer"
         id="g1854"
         inkscape:label="Purple Ball">
        <ellipse
           style="fill:#aa00d4;stroke-width:0.193056"
           id="ellipse1850"
           cx="16.873953"
           cy="35.576389"
           rx="1.4440994"
           ry="1.5596274"
           inkscape:label="Purple 1 Ball" />
        <ellipse
           style="fill:#aa00d4;stroke-width:0.193056"
           id="ellipse1852"
           cx="55.286999"
           cy="54.407444"
           rx="1.4440994"
           ry="1.5596274"
           inkscape:label="Purple 2 Ball" />
      </g>
      <g
         inkscape:groupmode="layer"
         id="g1860"
         inkscape:label="Orange Ball">
        <ellipse
           style="fill:#ff0000;stroke-width:0.193056"
           id="ellipse1856"
           cx="49.048485"
           cy="35.518623"
           rx="1.4440994"
           ry="1.5596274"
           inkscape:label="Orange 1 Ball" />
        <ellipse
           style="fill:#ff0000;stroke-width:0.193056"
           id="ellipse1858"
           cx="9.3068714"
           cy="54.349682"
           rx="1.4440994"
           ry="1.5596274"
           inkscape:label="Orange 2 Ball" />
      </g>
      <g
         inkscape:groupmode="layer"
         id="g1866"
         inkscape:label="Red Ball">
        <ellipse
           style="fill:#aa0000;stroke-width:0.193056"
           id="ellipse1862"
           cx="18.722401"
           cy="26.103096"
           rx="1.4440994"
           ry="1.5596274"
           inkscape:label="Red 1 Ball" />
        <ellipse
           style="fill:#aa0000;stroke-width:0.193056"
           id="ellipse1864"
           cx="50.9547"
           cy="45.338501"
           rx="1.4440994"
           ry="1.5596274"
           inkscape:label="Red 2 Ball" />
      </g>
      <g
         inkscape:groupmode="layer"
         id="g1872"
         inkscape:label="Blue Ball">
        <ellipse
           style="fill:#0000ff;stroke-width:0.193056"
           id="ellipse1868"
           cx="14.274571"
           cy="45.049679"
           rx="1.4440994"
           ry="1.5596274"
           inkscape:label="Blue 2 Ball" />
        <ellipse
           style="fill:#0000ff;stroke-width:0.193056"
           id="ellipse1870"
           cx="47.257801"
           cy="25.929804"
           rx="1.4440994"
           ry="1.5596274"
           inkscape:label="Blue 1 Ball" />
      </g>
      <path
         sodipodi:type="star"
         style="fill:#c8ab37;stroke-width:0.2"
         id="path1876"
         inkscape:flatsided="false"
         sodipodi:sides="5"
         sodipodi:cx="30.635715"
         sodipodi:cy="1.6925811"
         sodipodi:r1="3.9946344"
         sodipodi:r2="1.997317"
         sodipodi:arg1="0.93576959"
         sodipodi:arg2="1.5640881"
         inkscape:rounded="0"
         inkscape:randomized="0"
         d="m 33.005329,4.9084848 -2.356215,-1.2186317 -2.339654,1.250133 0.430877,-2.6174715 -1.91194,-1.83883057 2.622512,-0.39905462 1.15801,-2.38659291 1.189924,2.3708422 2.627629,0.36383511 -1.887098,1.86431569 z"
         inkscape:transform-center-x="0.0075704071"
         inkscape:transform-center-y="-0.34152395"
         transform="matrix(0.91421713,0,0,0.91421713,4.7519621,2.2637395)"
         inkscape:label="Star Top" />
      <g
         id="g1898"
         inkscape:label="Light with String"
         transform="matrix(1.0056236,0,0,1.0056236,-0.04373882,-0.36100815)">
        <path
           id="path1878"
           style="fill:#c8ab37;stroke-width:0.159638"
           d="m 43.88669,47.395168 c -1.9e-5,0.05842 -5.651199,2.560029 -12.023677,2.560029 -6.372477,0 -12.724588,-2.205403 -12.724607,-2.263827 1.9e-5,-0.05842 6.459966,2.136884 12.832444,2.136884 6.372477,0 11.915821,-2.49151 11.91584,-2.433086 z"
           sodipodi:nodetypes="cscsc"
           inkscape:label="Light String" />
        <g
           inkscape:groupmode="layer"
           id="g1896"
           inkscape:label="Lights">
          <ellipse
             style="fill:#00ffff;stroke-width:0.295265"
             id="ellipse1880"
             cx="24.746126"
             cy="47.4566"
             rx="0.39729473"
             ry="0.75143659"
             transform="matrix(0.99732583,0.07308339,-0.07288972,0.99734001,0,0)"
             inkscape:label="Light Blue Light" />
          <ellipse
             style="fill:#800080;stroke-width:0.281551"
             id="ellipse1882"
             cx="40.215107"
             cy="31.627193"
             rx="0.35056031"
             ry="0.77434325"
             transform="matrix(0.86568454,0.50058993,-0.33652043,0.94167616,0,0)"
             inkscape:label="Purple Light" />
          <ellipse
             style="fill:#ffcc00;stroke-width:0.295925"
             id="ellipse1884"
             cx="28.28108"
             cy="49.825432"
             rx="0.39977151"
             ry="0.75012183"
             transform="matrix(0.99978141,0.0209077,-0.0211876,0.99977552,0,0)"
             inkscape:label="Yellow Light" />
          <ellipse
             style="fill:#ff0000;stroke-width:0.293132"
             id="ellipse1886"
             cx="22.590149"
             cy="54.699486"
             rx="0.38945177"
             ry="0.75553113"
             transform="matrix(0.98836971,-0.1520701,0.14398859,0.98957935,0,0)"
             inkscape:label="Red Light" />
          <ellipse
             style="fill:#0000ff;stroke-width:0.292715"
             id="ellipse1888"
             cx="40.626228"
             cy="44.618431"
             rx="0.38794827"
             ry="0.75630426"
             transform="matrix(0.98641562,0.16426877,-0.15395407,0.988078,0,0)"
             inkscape:label="Blue Light" />
          <ellipse
             style="fill:#ff5555;stroke-width:0.290784"
             id="ellipse1890"
             cx="25.755882"
             cy="57.170189"
             rx="0.38109413"
             ry="0.75978106"
             transform="matrix(0.97630334,-0.21640652,0.19329666,0.98114036,0,0)"
             inkscape:label="Pink Light" />
          <ellipse
             style="fill:#00ff00;stroke-width:0.295307"
             id="ellipse1892"
             cx="42.62962"
             cy="46.964848"
             rx="0.39745313"
             ry="0.75135279"
             transform="matrix(0.99748775,0.07083912,-0.07072396,0.99749593,0,0)"
             inkscape:label="Green Light" />
          <ellipse
             style="fill:#ff7f2a;stroke-width:0.284143"
             id="ellipse1894"
             cx="26.026945"
             cy="62.00116"
             rx="0.35879895"
             ry="0.77056038"
             transform="matrix(0.91820661,-0.39610178,0.29439825,0.95568283,0,0)"
             inkscape:label="Orange Light 2" />
        </g>
      </g>
      <g
         id="g1918"
         inkscape:label="Light with String"
         transform="matrix(-1.0829737,-0.13691583,-0.12613276,0.99768203,72.979066,-4.7079362)">
        <path
           id="path1900"
           style="fill:#c8ab37;stroke-width:0.159638"
           d="m 41.195091,48.081356 c -1.9e-5,0.05842 -2.945771,1.755103 -9.318249,1.755103 -6.372477,0 -11.121503,-1.894929 -11.121522,-1.953353 1.9e-5,-0.05842 4.768238,1.63329 11.140716,1.63329 6.372477,0 9.299036,-1.493464 9.299055,-1.43504 z"
           sodipodi:nodetypes="cscsc"
           inkscape:label="Light String" />
        <g
           inkscape:groupmode="layer"
           id="g1916"
           inkscape:label="Lights">
          <ellipse
             style="fill:#00ffff;stroke-width:0.283937"
             id="ellipse1902"
             cx="24.842186"
             cy="47.597885"
             rx="0.36815193"
             ry="0.74988723"
             transform="matrix(0.99768424,0.06801584,-0.07610539,0.99709978,0,0)"
             inkscape:label="Light Blue Light" />
          <ellipse
             style="fill:#800080;stroke-width:0.274274"
             id="ellipse1904"
             cx="40.843239"
             cy="32.950649"
             rx="0.33874467"
             ry="0.76046437"
             transform="matrix(0.88280183,0.46974559,-0.36187732,0.93222572,0,0)"
             inkscape:label="Purple Light" />
          <ellipse
             style="fill:#ffcc00;stroke-width:0.283149"
             id="ellipse1906"
             cx="28.612057"
             cy="50.139381"
             rx="0.365143"
             ry="0.75187588"
             transform="matrix(0.99994499,0.01048858,-0.02900368,0.9995793,0,0)"
             inkscape:label="Yellow Light" />
          <ellipse
             style="fill:#ff0000;stroke-width:0.277467"
             id="ellipse1908"
             cx="24.692209"
             cy="55.979897"
             rx="0.34577781"
             ry="0.76243877"
             transform="matrix(0.97968667,-0.20053434,0.10604563,0.99436126,0,0)"
             inkscape:label="Red Light" />
          <ellipse
             style="fill:#0000ff;stroke-width:0.283743"
             id="ellipse1910"
             cx="40.66394"
             cy="44.774582"
             rx="0.368063"
             ry="0.74904573"
             transform="matrix(0.98698428,0.16081674,-0.15592214,0.98776935,0,0)"
             inkscape:label="Blue Light" />
          <ellipse
             style="fill:#ff5555;stroke-width:0.275388"
             id="ellipse1912"
             cx="28.79114"
             cy="59.259342"
             rx="0.33911294"
             ry="0.76581979"
             transform="matrix(0.9595075,-0.28168309,0.14327849,0.98968241,0,0)"
             inkscape:label="Pink Light" />
          <ellipse
             style="fill:#00ff00;stroke-width:0.283917"
             id="ellipse1914"
             cx="42.730888"
             cy="47.203793"
             rx="0.36806828"
             ry="0.74995071"
             transform="matrix(0.99784517,0.06561267,-0.07407574,0.99725262,0,0)"
             inkscape:label="Green Light" />
        </g>
      </g>
      <g
         id="g1936"
         inkscape:label="Light with String"
         transform="matrix(1.2287709,0.09690243,-0.07905928,1.0025111,0.04851153,-22.325009)">
        <path
           id="path1920"
           style="fill:#c8ab37;stroke-width:0.159638"
           d="m 39.043164,48.613686 c -1.9e-5,0.05842 -0.819188,1.162541 -7.191666,1.162541 -6.372477,0 -9.774886,-1.650134 -9.774905,-1.708558 1.9e-5,-0.05842 3.407163,1.50154 9.779641,1.50154 6.372477,0 7.186911,-1.013947 7.18693,-0.955523 z"
           sodipodi:nodetypes="cscsc"
           inkscape:label="Light String" />
        <g
           inkscape:groupmode="layer"
           id="g1934"
           inkscape:label="Lights">
          <ellipse
             style="fill:#800080;stroke-width:0.263318"
             id="ellipse1922"
             cx="39.150303"
             cy="26.122633"
             rx="0.31227314"
             ry="0.76033556"
             transform="matrix(0.77808692,0.62815662,-0.24350819,0.96989884,0,0)"
             inkscape:label="Purple Light" />
          <ellipse
             style="fill:#ffcc00;stroke-width:0.266832"
             id="ellipse1924"
             cx="27.442799"
             cy="49.086636"
             rx="0.32454467"
             ry="0.75124925"
             transform="matrix(0.99885099,0.04792389,-0.00514084,0.99998679,0,0)"
             inkscape:label="Yellow Light" />
          <ellipse
             style="fill:#ff0000;stroke-width:0.266259"
             id="ellipse1926"
             cx="23.170431"
             cy="54.865597"
             rx="0.32409513"
             ry="0.74905592"
             transform="matrix(0.98718849,-0.1595584,0.13263112,0.99116547,0,0)"
             inkscape:label="Red Light" />
          <ellipse
             style="fill:#0000ff;stroke-width:0.263626"
             id="ellipse1928"
             cx="38.700611"
             cy="41.916763"
             rx="0.31423426"
             ry="0.75736326"
             transform="matrix(0.97205497,0.23475333,-0.10685933,0.99427415,0,0)"
             inkscape:label="Blue Light" />
          <ellipse
             style="fill:#ff5555;stroke-width:0.264735"
             id="ellipse1930"
             cx="26.680265"
             cy="57.573811"
             rx="0.31996658"
             ry="0.75005937"
             transform="matrix(0.97298825,-0.23085465,0.17692249,0.98422479,0,0)"
             inkscape:label="Pink Light" />
          <ellipse
             style="fill:#00ff00;stroke-width:0.265903"
             id="ellipse1932"
             cx="41.382519"
             cy="45.262733"
             rx="0.32142925"
             ry="0.75325441"
             transform="matrix(0.99367918,0.11225724,-0.0437933,0.99904061,0,0)"
             inkscape:label="Green Light" />
        </g>
      </g>
      <g
         id="g1950"
         inkscape:label="Light with String"
         transform="matrix(1.2489146,-0.13817754,0.11495228,0.99928469,-14.443178,-27.079907)">
        <path
           id="path1938"
           style="fill:#c8ab37;stroke-width:0.121511"
           d="m 38.098725,49.125343 c -0.0053,0.05787 -2.98551,0.756961 -6.707344,0.702904 -3.721835,-0.05406 -4.967933,-0.473967 -4.962702,-0.531848 0.0053,-0.05787 1.79924,0.329536 5.521075,0.383594 3.721835,0.05406 6.154204,-0.612531 6.148971,-0.55465 z"
           sodipodi:nodetypes="cscsc"
           inkscape:label="Light String" />
        <g
           inkscape:groupmode="layer"
           id="g1948"
           inkscape:label="Lights">
          <ellipse
             style="fill:#ffcc00;stroke-width:0.264542"
             id="ellipse1940"
             cx="28.891439"
             cy="50.66354"
             rx="0.3194671"
             ry="0.75014347"
             transform="matrix(0.99997079,-0.00764309,-0.03503106,0.99938622,0,0)"
             inkscape:label="Yellow Light" />
          <ellipse
             style="fill:#ff0000;stroke-width:0.261212"
             id="ellipse1942"
             cx="25.893454"
             cy="57.195557"
             rx="0.30835044"
             ry="0.75774151"
             transform="matrix(0.97020883,-0.24227014,0.08684554,0.99622179,0,0)"
             inkscape:label="Red Light" />
          <ellipse
             style="fill:#0000ff;stroke-width:0.263889"
             id="ellipse1944"
             cx="40.17194"
             cy="44.63541"
             rx="0.31896448"
             ry="0.74762255"
             transform="matrix(0.98640351,0.16434145,-0.14596476,0.98928979,0,0)"
             inkscape:label="Blue Light" />
          <ellipse
             style="fill:#ff5555;stroke-width:0.260147"
             id="ellipse1946"
             cx="30.384987"
             cy="61.002666"
             rx="0.30496141"
             ry="0.75992543"
             transform="matrix(0.94404811,-0.32980778,0.12120691,0.99262726,0,0)"
             inkscape:label="Pink Light" />
        </g>
      </g>
      <g
         id="g2668"
         inkscape:label="Left Eye"
         transform="matrix(1.0056236,0,0,1.0056236,-0.04373882,-0.36100815)">
        <path
           id="path1952"
           style="stroke-width:0.2"
           d="m 30.90071,26.320085 c 1.273507,-0.08995 -0.833574,1.481009 -1.861839,1.481009 -1.028265,0 -2.369613,-0.970612 -2.369613,-2.115726 0,-1.145114 0.956109,-3.822098 1.227121,-3.046646 0.647562,1.852878 0.939473,3.827204 3.004331,3.681363 z"
           sodipodi:nodetypes="sssss"
           inkscape:label="Eye" />
        <ellipse
           style="fill:#f2f2f2;stroke-width:0.153846"
           id="ellipse1954"
           cx="29.016087"
           cy="26.870174"
           rx="0.78119123"
           ry="0.84629053"
           inkscape:label="Pupil" />
        <path
           id="path2683"
           style="fill:#112b00;stroke-width:0.0672452"
           d="m 31.397875,25.402244 c -0.02359,0.01609 -0.359002,1.147473 -1.596004,-0.836956 -1.242487,-1.993227 -0.220016,-1.535572 -0.388927,-1.421651 0.02359,-0.01609 -1.37985,-0.179095 0.205616,1.539749 1.585469,1.718844 1.802879,0.702737 1.779315,0.718858 z"
           sodipodi:nodetypes="cscsc"
           inkscape:label="Eye Brow" />
      </g>
      <g
         id="g2664"
         inkscape:label="Right Eye"
         transform="matrix(1.0056236,0,0,1.0056236,-0.04373882,-0.36100815)">
        <path
           id="path1956"
           style="stroke-width:0.2"
           d="m 33.066396,26.320085 c -1.273507,-0.08995 0.833574,1.481009 1.861839,1.481009 1.028265,0 2.369613,-0.970612 2.369613,-2.115726 0,-1.145114 -0.956109,-3.822098 -1.227121,-3.046646 -0.647562,1.852878 -0.939473,3.827204 -3.004331,3.681363 z"
           sodipodi:nodetypes="sssss"
           inkscape:label="Eye" />
        <ellipse
           style="fill:#f2f2f2;stroke-width:0.153846"
           id="ellipse1958"
           cx="-34.951019"
           cy="26.870174"
           rx="0.78119123"
           ry="0.84629053"
           transform="scale(-1,1)"
           inkscape:label="Pupil" />
        <path
           id="path2685"
           style="fill:#112b00;stroke-width:0.0672452"
           d="m 32.874815,25.402244 c 0.02359,0.01609 0.359002,1.147473 1.596004,-0.836956 1.242487,-1.993227 0.220016,-1.535572 0.388927,-1.421651 -0.02359,-0.01609 1.37985,-0.179095 -0.205616,1.539749 -1.585469,1.718844 -1.802879,0.702737 -1.779315,0.718858 z"
           sodipodi:nodetypes="cscsc"
           inkscape:label="Eye Brow" />
      </g>
      <g
         id="g2660"
         inkscape:label="Mouth"
         transform="matrix(1.0056236,0,0,1.0056236,-0.04373882,-0.36100815)">
        <path
           id="path1960"
           style="stroke-width:0.355664"
           d="m 27.470447,34.662328 c -1.090328,-1.726932 -1.991316,2.098996 -0.972809,3.443902 1.018503,1.344905 4.193292,2.438207 6.371376,1.658254 2.178087,-0.77995 6.322859,-3.853809 4.579455,-3.680104 -4.165717,0.415048 -8.210159,1.377986 -9.978022,-1.422052 z"
           sodipodi:nodetypes="sssss"
           inkscape:label="Mouth" />
        <path
           id="path1962"
           style="fill:#f2f2f2;stroke-width:0.238831"
           d="m 28.445476,35.737146 0.847988,0.449018 0.699596,0.227031 -0.823726,0.86484 -0.46248,-1.131672 -0.650317,0.639744 -0.08528,-1.050787 -0.915429,0.388278 0.296205,-1.036848 -0.809383,0.251778 0.684583,-0.974764 0.574057,0.794504 z"
           sodipodi:nodetypes="ccccccccccccc"
           inkscape:label="teeth 1" />
        <path
           id="path1964"
           style="fill:#f2f2f2;stroke-width:0.238831"
           d="m 32.223748,36.607014 0.916351,-0.03636 0.762278,-0.0602 -0.283284,1.060996 -0.907022,-0.66165 -0.296512,0.840028 -0.589015,-0.874508 -0.61076,0.848749 -0.482157,-0.909187 -0.550793,0.740426 -0.474355,-0.890857 0.241027,-0.252797 1.440154,0.194033 z"
           sodipodi:nodetypes="cccccccccccccc"
           inkscape:label="teeth 2" />
        <path
           id="path1966"
           style="fill:#f2f2f2;stroke-width:0.238831"
           d="m 36.186982,36.260881 0.812512,-0.08828 0.554555,-0.09289 -0.239976,0.349495 -0.640693,-0.0396 -0.389772,0.417009 -0.576492,-0.275523 -0.32907,0.691085 -0.624418,-0.517862 -0.222939,0.74231 -0.827415,-0.62909 0.123554,-0.304696 1.465494,-0.14079 z"
           sodipodi:nodetypes="cccccccccccccc"
           inkscape:label="teeth 3" />
      </g>
    </g>
  </g>
  <g
     id="g3024"
     inkscape:label="Xmas Tree"
     transform="translate(72.528229)">
    <path
       id="path2870"
       style="fill:#803300;stroke:#000000;stroke-width:0.201125;stroke-dasharray:none;stroke-opacity:1"
       inkscape:label="Left Leg"
       d="m 31.889406,0.19885656 -1.058655,2.18212474 -2.398176,0.3633602 1.748057,1.6812769 -0.392822,2.3942485 1.907149,-1.0193723 -6.548338,10.9125874 -7.612885,7.732696 7.129715,-0.05303 -2.068207,3.66699 c -0.04017,-0.014 -0.06449,-0.02178 -0.06481,-0.01768 -3.02e-4,0.0038 0.01814,0.01765 0.05303,0.03732 l -1.021337,1.810909 -5.768587,4.049992 8.422098,-0.28676 -2.751716,4.010709 c -3.41e-4,2.19e-4 -0.0078,-0.0043 -0.0078,-0.0039 -7.8e-5,6.25e-4 0.0053,0.0048 0.0059,0.0059 l -1.555574,2.268545 -6.642616,3.54718 10.272288,0.155164 -6.571907,4.916165 -8.7108225,4.083381 15.4261095,0.265155 -0.04125,-0.111954 2.580839,-0.01375 -0.396751,9.767513 c -0.03107,0.765519 0.560255,1.406655 1.325774,1.437728 l 2.315684,0.09428 c 0.765519,0.03107 1.406655,-0.560253 1.437727,-1.325773 l 0.402643,-9.932497 c 9.05e-4,-0.02228 1.39e-4,-0.04472 1e-6,-0.06678 l 0.274974,-0.002 c -1.74e-4,0.0227 -9.31e-4,0.04581 -1e-6,0.06874 l 0.402643,9.932498 c 0.03107,0.765519 0.674173,1.356846 1.439692,1.325773 l 2.31372,-0.09428 c 0.76552,-0.03107 1.356846,-0.672209 1.325774,-1.437728 l -0.402643,-9.932499 c -2.96e-4,-0.0073 -0.0015,-0.01432 -0.002,-0.0216 l 17.847856,0.149272 -10.582618,-4.55084 -0.797428,-0.789572 c 0.0374,-0.01903 0.119809,-0.05551 0.11981,-0.05892 -2e-6,-0.0039 -0.08574,0.02989 -0.133559,0.04713 l -3.940002,-3.896792 10.959727,0.192482 -7.165068,-3.798585 -5.623245,-5.853043 10.940085,-0.178735 -5.030081,-3.545216 c 0.05715,-0.0382 0.08186,-0.06458 0.08249,-0.07268 7.34e-4,-0.0094 -0.04612,0.01217 -0.123739,0.04321 L 40.928235,28.668612 37.55586,24.44185 46.290251,24.357388 38.372929,17.329812 32.199735,5.8181715 34.079387,6.7904053 33.653175,4.4040132 35.379627,2.6991669 32.977523,2.3652684 Z M 46.412025,24.410424 a 1.4440994,1.5596274 4.9999999e-7 0 0 -1.443619,1.559503 1.4440994,1.5596274 4.9999999e-7 0 0 1.443619,1.559502 1.4440994,1.5596274 4.9999999e-7 0 0 1.44362,-1.559502 1.4440994,1.5596274 4.9999999e-7 0 0 -1.44362,-1.559503 z m -28.534571,0.172842 a 1.4440994,1.5596274 4.9999999e-7 0 0 -1.445583,1.559502 1.4440994,1.5596274 4.9999999e-7 0 0 1.445583,1.559503 1.4440994,1.5596274 4.9999999e-7 0 0 1.44362,-1.559503 1.4440994,1.5596274 4.9999999e-7 0 0 -1.44362,-1.559502 z m 30.325839,9.415938 a 1.4440994,1.5596274 4.9999999e-7 0 0 -1.445585,1.559502 1.4440994,1.5596274 4.9999999e-7 0 0 1.445584,1.559501 1.4440994,1.5596274 4.9999999e-7 0 0 1.44362,-1.559501 1.4440994,1.5596274 4.9999999e-7 0 0 -1.443619,-1.559502 z m -32.176029,0.05696 a 1.4440994,1.5596274 4.9999999e-7 0 0 -1.44362,1.559502 1.4440994,1.5596274 4.9999999e-7 0 0 1.44362,1.559503 1.4440994,1.5596274 4.9999999e-7 0 0 1.445584,-1.559503 1.4440994,1.5596274 4.9999999e-7 0 0 -1.445584,-1.559502 z m -2.598516,9.472896 a 1.4440994,1.5596274 4.9999999e-7 0 0 -1.443619,1.559503 1.4440994,1.5596274 4.9999999e-7 0 0 1.443619,1.559502 1.4440994,1.5596274 4.9999999e-7 0 0 1.44362,-1.559502 1.4440994,1.5596274 4.9999999e-7 0 0 -1.44362,-1.559503 z m 36.67973,0.288724 a 1.4440994,1.5596274 4.9999999e-7 0 0 -1.44362,1.559502 1.4440994,1.5596274 4.9999999e-7 0 0 1.443619,1.559503 1.4440994,1.5596274 4.9999999e-7 0 0 1.443621,-1.559503 1.4440994,1.5596274 4.9999999e-7 0 0 -1.44362,-1.559502 z M 8.4615181,52.829113 a 1.4440994,1.5596274 4.9999999e-7 0 0 -1.4455847,1.559502 1.4440994,1.5596274 4.9999999e-7 0 0 1.4455848,1.559502 1.4440994,1.5596274 4.9999999e-7 0 0 1.44362,-1.559503 1.4440994,1.5596274 4.9999999e-7 0 0 -1.4436201,-1.559501 z m 45.9797829,0.05892 a 1.4440994,1.5596274 4.9999999e-7 0 0 -1.44362,1.559503 1.4440994,1.5596274 4.9999999e-7 0 0 1.443621,1.559502 1.4440994,1.5596274 4.9999999e-7 0 0 1.44362,-1.559502 1.4440994,1.5596274 4.9999999e-7 0 0 -1.443621,-1.559503 z" />
    <g
       inkscape:label="Xmas Tree"
       inkscape:groupmode="layer"
       id="g3022"
       transform="translate(-0.8622961,-0.01734392)">
      <g
         inkscape:groupmode="layer"
         id="g2876"
         inkscape:label="Legs">
        <rect
           style="fill:#803300;stroke-width:0.201474"
           id="rect2872"
           width="5.0832295"
           height="12.708076"
           x="29.180628"
           y="50.046757"
           ry="1.382943"
           transform="rotate(2.3243425)"
           inkscape:label="Left Leg" />
        <rect
           style="fill:#803300;stroke-width:0.201474"
           id="rect2874"
           width="5.0832295"
           height="12.708076"
           x="-35.34145"
           y="52.665688"
           ry="1.382943"
           transform="matrix(-0.99917725,0.0405563,0.0405563,0.99917725,0,0)"
           inkscape:label="Right Leg" />
      </g>
      <path
         id="path2878"
         style="fill:#005500;stroke-width:0.411643"
         inkscape:transform-center-x="-0.012134971"
         inkscape:transform-center-y="-2.141578"
         d="m 36.695253,52.687024 -12.211564,0.06338 0.04199,0.111338 -15.4265304,-0.264349 8.7114824,-4.084452 6.570852,-4.915822 -10.271773,-0.153694 6.641571,-3.547813 4.310451,-6.28238 -8.423077,0.287286 5.770265,-4.048782 3.100295,-5.498468 -7.129856,0.05369 7.613487,-7.732884 6.808562,-11.3494063 6.417934,11.9664053 7.916034,7.026468 -8.734203,0.08415 3.373222,4.228421 7.353372,5.181809 -10.939297,0.18017 5.62189,5.853161 7.166479,3.798305 -10.960818,-0.192724 4.751484,4.698083 10.582996,4.550865 -18.489783,-0.156114 z"
         sodipodi:nodetypes="cccccccccccccccccccccccccccc"
         inkscape:label="Green Tree" />
      <g
         id="g2894"
         inkscape:label="Accents"
         transform="matrix(1.0056236,0,0,1.0056236,-0.04373882,-0.36100815)">
        <path
           id="path2880"
           style="fill:#112b00;stroke-width:0.0810524"
           d="m 32.649352,7.2993185 c 0.03199,-0.01287 1.427074,1.7734099 2.686293,4.2669315 1.259217,2.493521 1.471466,3.442235 1.439499,3.455154 -0.03198,0.01287 -0.450666,-1.291416 -1.709882,-3.784938 -1.259219,-2.493523 -2.447877,-3.9242298 -2.41591,-3.9371475 z"
           sodipodi:nodetypes="cscsc"
           inkscape:label="Top" />
        <path
           id="path2882"
           style="fill:#112b00;stroke-width:0.0810524"
           d="m 38.038106,18.980269 c 0.02328,-0.02543 2.053442,0.982293 4.2668,2.686503 2.213356,1.704209 2.814846,2.467961 2.791605,2.493429 -0.02328,0.02543 -0.964621,-0.969723 -3.177976,-2.673934 -2.213359,-1.70421 -3.903671,-2.480531 -3.880429,-2.505998 z"
           sodipodi:nodetypes="cscsc"
           inkscape:label="Fourth" />
        <path
           id="path2884"
           style="fill:#112b00;stroke-width:0.0810524"
           d="m 39.138284,28.120206 c 0.02328,-0.02543 2.053442,0.982293 4.2668,2.686503 2.213356,1.704209 2.814846,2.467961 2.791605,2.493429 -0.02328,0.02543 -0.964621,-0.969723 -3.177976,-2.673934 -2.213359,-1.70421 -3.903671,-2.480531 -3.880429,-2.505998 z"
           sodipodi:nodetypes="cscsc"
           inkscape:label="Third" />
        <path
           id="path2886"
           style="fill:#112b00;stroke-width:0.0810524"
           d="m 38.461251,38.021805 c 0.02328,-0.02543 2.053442,0.982293 4.2668,2.686503 2.213356,1.704209 2.814846,2.467961 2.791605,2.493429 -0.02328,0.02543 -0.964621,-0.969723 -3.177976,-2.673934 -2.213359,-1.70421 -3.903671,-2.480531 -3.880429,-2.505998 z"
           sodipodi:nodetypes="cscsc"
           inkscape:label="Second" />
        <path
           id="path2888"
           style="fill:#112b00;stroke-width:0.103966"
           d="m 37.868916,45.553921 c 0.02998,-0.03249 2.644258,1.255068 5.494444,3.432526 2.850183,2.177456 3.624733,3.153296 3.594805,3.185837 -0.02998,0.03249 -1.242161,-1.239009 -4.092343,-3.416467 -2.850187,-2.177458 -5.026835,-3.169357 -4.996906,-3.201896 z"
           sodipodi:nodetypes="cscsc"
           inkscape:label="Bottom" />
        <path
           id="path2890"
           style="fill:#112b00;stroke-width:0.0982127"
           d="m 36.670513,53.130374 c 0.04392,0.0048 0.642033,2.581314 0.687514,5.795045 0.04548,3.213727 -0.243313,4.288006 -0.287229,4.283244 -0.04392,-0.0048 0.207572,-1.552324 0.162096,-4.76605 -0.04548,-3.213732 -0.606297,-5.317002 -0.562381,-5.312239 z"
           sodipodi:nodetypes="cscsc"
           inkscape:label="Right Leg" />
        <path
           id="path2892"
           style="fill:#112b00;stroke-width:0.0982127"
           d="m 31.532404,53.427368 c 0.04283,0.01084 0.278307,2.64536 -0.121783,5.834414 -0.400091,3.189049 -0.834898,4.212973 -0.877731,4.202174 -0.04283,-0.01084 0.420583,-1.50861 0.820678,-4.697658 0.400091,-3.189055 0.136003,-5.34973 0.178836,-5.33893 z"
           sodipodi:nodetypes="cscsc"
           inkscape:label="Left Leg" />
      </g>
      <g
         inkscape:groupmode="layer"
         id="g2900"
         inkscape:label="Purple Ball">
        <ellipse
           style="fill:#aa00d4;stroke-width:0.193056"
           id="ellipse2896"
           cx="16.873953"
           cy="35.576389"
           rx="1.4440994"
           ry="1.5596274"
           inkscape:label="Purple 1 Ball" />
        <ellipse
           style="fill:#aa00d4;stroke-width:0.193056"
           id="ellipse2898"
           cx="55.286999"
           cy="54.407444"
           rx="1.4440994"
           ry="1.5596274"
           inkscape:label="Purple 2 Ball" />
      </g>
      <g
         inkscape:groupmode="layer"
         id="g2906"
         inkscape:label="Orange Ball">
        <ellipse
           style="fill:#ff0000;stroke-width:0.193056"
           id="ellipse2902"
           cx="49.048485"
           cy="35.518623"
           rx="1.4440994"
           ry="1.5596274"
           inkscape:label="Orange 1 Ball" />
        <ellipse
           style="fill:#ff0000;stroke-width:0.193056"
           id="ellipse2904"
           cx="9.3068714"
           cy="54.349682"
           rx="1.4440994"
           ry="1.5596274"
           inkscape:label="Orange 2 Ball" />
      </g>
      <g
         inkscape:groupmode="layer"
         id="g2912"
         inkscape:label="Red Ball">
        <ellipse
           style="fill:#aa0000;stroke-width:0.193056"
           id="ellipse2908"
           cx="18.722401"
           cy="26.103096"
           rx="1.4440994"
           ry="1.5596274"
           inkscape:label="Red 1 Ball" />
        <ellipse
           style="fill:#aa0000;stroke-width:0.193056"
           id="ellipse2910"
           cx="50.9547"
           cy="45.338501"
           rx="1.4440994"
           ry="1.5596274"
           inkscape:label="Red 2 Ball" />
      </g>
      <g
         inkscape:groupmode="layer"
         id="g2918"
         inkscape:label="Blue Ball">
        <ellipse
           style="fill:#0000ff;stroke-width:0.193056"
           id="ellipse2914"
           cx="14.274571"
           cy="45.049679"
           rx="1.4440994"
           ry="1.5596274"
           inkscape:label="Blue 2 Ball" />
        <ellipse
           style="fill:#0000ff;stroke-width:0.193056"
           id="ellipse2916"
           cx="47.257801"
           cy="25.929804"
           rx="1.4440994"
           ry="1.5596274"
           inkscape:label="Blue 1 Ball" />
      </g>
      <path
         sodipodi:type="star"
         style="fill:#ffd42a;stroke-width:0.2"
         id="path2920"
         inkscape:flatsided="false"
         sodipodi:sides="5"
         sodipodi:cx="30.635715"
         sodipodi:cy="1.6925811"
         sodipodi:r1="3.9946344"
         sodipodi:r2="1.997317"
         sodipodi:arg1="0.93576959"
         sodipodi:arg2="1.5640881"
         inkscape:rounded="0"
         inkscape:randomized="0"
         d="m 33.005329,4.9084848 -2.356215,-1.2186317 -2.339654,1.250133 0.430877,-2.6174715 -1.91194,-1.83883057 2.622512,-0.39905462 1.15801,-2.38659291 1.189924,2.3708422 2.627629,0.36383511 -1.887098,1.86431569 z"
         inkscape:transform-center-x="0.0075704071"
         inkscape:transform-center-y="-0.34152395"
         transform="matrix(0.91421713,0,0,0.91421713,4.7519621,2.2637395)"
         inkscape:label="Star Top" />
      <g
         id="g2942"
         inkscape:label="Light with String"
         transform="matrix(1.0056236,0,0,1.0056236,-0.04373882,-0.36100815)">
        <path
           id="path2922"
           style="fill:#c8ab37;stroke-width:0.159638"
           d="m 43.88669,47.395168 c -1.9e-5,0.05842 -5.651199,2.560029 -12.023677,2.560029 -6.372477,0 -12.724588,-2.205403 -12.724607,-2.263827 1.9e-5,-0.05842 6.459966,2.136884 12.832444,2.136884 6.372477,0 11.915821,-2.49151 11.91584,-2.433086 z"
           sodipodi:nodetypes="cscsc"
           inkscape:label="Light String" />
        <g
           inkscape:groupmode="layer"
           id="g2940"
           inkscape:label="Lights"
           transform="matrix(-0.99985639,0.01694668,0.01694668,0.99985639,62.690932,-0.36150192)">
          <ellipse
             style="fill:#00ffff;stroke-width:0.295265"
             id="ellipse2924"
             cx="24.746126"
             cy="47.4566"
             rx="0.39729473"
             ry="0.75143659"
             transform="matrix(0.99732583,0.07308339,-0.07288972,0.99734001,0,0)"
             inkscape:label="Light Blue Light" />
          <ellipse
             style="fill:#800080;stroke-width:0.281551"
             id="ellipse2926"
             cx="40.215107"
             cy="31.627193"
             rx="0.35056031"
             ry="0.77434325"
             transform="matrix(0.86568454,0.50058993,-0.33652043,0.94167616,0,0)"
             inkscape:label="Purple Light" />
          <ellipse
             style="fill:#ffcc00;stroke-width:0.295925"
             id="ellipse2928"
             cx="28.28108"
             cy="49.825432"
             rx="0.39977151"
             ry="0.75012183"
             transform="matrix(0.99978141,0.0209077,-0.0211876,0.99977552,0,0)"
             inkscape:label="Yellow Light" />
          <ellipse
             style="fill:#ff0000;stroke-width:0.293132"
             id="ellipse2930"
             cx="22.590149"
             cy="54.699486"
             rx="0.38945177"
             ry="0.75553113"
             transform="matrix(0.98836971,-0.1520701,0.14398859,0.98957935,0,0)"
             inkscape:label="Red Light" />
          <ellipse
             style="fill:#0000ff;stroke-width:0.292715"
             id="ellipse2932"
             cx="40.626228"
             cy="44.618431"
             rx="0.38794827"
             ry="0.75630426"
             transform="matrix(0.98641562,0.16426877,-0.15395407,0.988078,0,0)"
             inkscape:label="Blue Light" />
          <ellipse
             style="fill:#ff5555;stroke-width:0.290784"
             id="ellipse2934"
             cx="25.755882"
             cy="57.170189"
             rx="0.38109413"
             ry="0.75978106"
             transform="matrix(0.97630334,-0.21640652,0.19329666,0.98114036,0,0)"
             inkscape:label="Pink Light" />
          <ellipse
             style="fill:#00ff00;stroke-width:0.295307"
             id="ellipse2936"
             cx="42.62962"
             cy="46.964848"
             rx="0.39745313"
             ry="0.75135279"
             transform="matrix(0.99748775,0.07083912,-0.07072396,0.99749593,0,0)"
             inkscape:label="Green Light" />
          <ellipse
             style="fill:#ff7f2a;stroke-width:0.284143"
             id="ellipse2938"
             cx="26.026945"
             cy="62.00116"
             rx="0.35879895"
             ry="0.77056038"
             transform="matrix(0.91820661,-0.39610178,0.29439825,0.95568283,0,0)"
             inkscape:label="Orange Light 2" />
        </g>
      </g>
      <g
         id="g2962"
         inkscape:label="Light with String"
         transform="matrix(-1.0829737,-0.13691583,-0.12613276,0.99768203,72.979066,-4.7079362)">
        <path
           id="path2944"
           style="fill:#c8ab37;stroke-width:0.159638"
           d="m 41.195091,48.081356 c -1.9e-5,0.05842 -2.945771,1.755103 -9.318249,1.755103 -6.372477,0 -11.121503,-1.894929 -11.121522,-1.953353 1.9e-5,-0.05842 4.768238,1.63329 11.140716,1.63329 6.372477,0 9.299036,-1.493464 9.299055,-1.43504 z"
           sodipodi:nodetypes="cscsc"
           inkscape:label="Light String" />
        <g
           inkscape:groupmode="layer"
           id="g2960"
           inkscape:label="Lights"
           transform="matrix(-0.99609774,-0.09580208,-0.08130614,0.99609774,64.449064,3.1180005)">
          <ellipse
             style="fill:#00ffff;stroke-width:0.283937"
             id="ellipse2946"
             cx="24.842186"
             cy="47.597885"
             rx="0.36815193"
             ry="0.74988723"
             transform="matrix(0.99768424,0.06801584,-0.07610539,0.99709978,0,0)"
             inkscape:label="Light Blue Light" />
          <ellipse
             style="fill:#800080;stroke-width:0.274274"
             id="ellipse2948"
             cx="40.843239"
             cy="32.950649"
             rx="0.33874467"
             ry="0.76046437"
             transform="matrix(0.88280183,0.46974559,-0.36187732,0.93222572,0,0)"
             inkscape:label="Purple Light" />
          <ellipse
             style="fill:#ffcc00;stroke-width:0.283149"
             id="ellipse2950"
             cx="28.612057"
             cy="50.139381"
             rx="0.365143"
             ry="0.75187588"
             transform="matrix(0.99994499,0.01048858,-0.02900368,0.9995793,0,0)"
             inkscape:label="Yellow Light" />
          <ellipse
             style="fill:#ff0000;stroke-width:0.277467"
             id="ellipse2952"
             cx="24.692209"
             cy="55.979897"
             rx="0.34577781"
             ry="0.76243877"
             transform="matrix(0.97968667,-0.20053434,0.10604563,0.99436126,0,0)"
             inkscape:label="Red Light" />
          <ellipse
             style="fill:#0000ff;stroke-width:0.283743"
             id="ellipse2954"
             cx="40.66394"
             cy="44.774582"
             rx="0.368063"
             ry="0.74904573"
             transform="matrix(0.98698428,0.16081674,-0.15592214,0.98776935,0,0)"
             inkscape:label="Blue Light" />
          <ellipse
             style="fill:#ff5555;stroke-width:0.275388"
             id="ellipse2956"
             cx="28.79114"
             cy="59.259342"
             rx="0.33911294"
             ry="0.76581979"
             transform="matrix(0.9595075,-0.28168309,0.14327849,0.98968241,0,0)"
             inkscape:label="Pink Light" />
          <ellipse
             style="fill:#00ff00;stroke-width:0.283917"
             id="ellipse2958"
             cx="42.730888"
             cy="47.203793"
             rx="0.36806828"
             ry="0.74995071"
             transform="matrix(0.99784517,0.06561267,-0.07407574,0.99725262,0,0)"
             inkscape:label="Green Light" />
        </g>
      </g>
      <g
         id="g2980"
         inkscape:label="Light with String"
         transform="matrix(1.2287709,0.09690243,-0.07905928,1.0025111,0.04851153,-22.325009)">
        <path
           id="path2964"
           style="fill:#c8ab37;stroke-width:0.159638"
           d="m 39.043164,48.613686 c -1.9e-5,0.05842 -0.819188,1.162541 -7.191666,1.162541 -6.372477,0 -9.774886,-1.650134 -9.774905,-1.708558 1.9e-5,-0.05842 3.407163,1.50154 9.779641,1.50154 6.372477,0 7.186911,-1.013947 7.18693,-0.955523 z"
           sodipodi:nodetypes="cscsc"
           inkscape:label="Light String" />
        <g
           inkscape:groupmode="layer"
           id="g2978"
           inkscape:label="Lights"
           transform="matrix(-0.99982526,-0.02291315,-0.01525183,0.99982526,63.426572,0.62190432)">
          <ellipse
             style="fill:#800080;stroke-width:0.263318"
             id="ellipse2966"
             cx="39.150303"
             cy="26.122633"
             rx="0.31227314"
             ry="0.76033556"
             transform="matrix(0.77808692,0.62815662,-0.24350819,0.96989884,0,0)"
             inkscape:label="Purple Light" />
          <ellipse
             style="fill:#ffcc00;stroke-width:0.266832"
             id="ellipse2968"
             cx="27.442799"
             cy="49.086636"
             rx="0.32454467"
             ry="0.75124925"
             transform="matrix(0.99885099,0.04792389,-0.00514084,0.99998679,0,0)"
             inkscape:label="Yellow Light" />
          <ellipse
             style="fill:#ff0000;stroke-width:0.266259"
             id="ellipse2970"
             cx="23.170431"
             cy="54.865597"
             rx="0.32409513"
             ry="0.74905592"
             transform="matrix(0.98718849,-0.1595584,0.13263112,0.99116547,0,0)"
             inkscape:label="Red Light" />
          <ellipse
             style="fill:#0000ff;stroke-width:0.263626"
             id="ellipse2972"
             cx="38.700611"
             cy="41.916763"
             rx="0.31423426"
             ry="0.75736326"
             transform="matrix(0.97205497,0.23475333,-0.10685933,0.99427415,0,0)"
             inkscape:label="Blue Light" />
          <ellipse
             style="fill:#ff5555;stroke-width:0.264735"
             id="ellipse2974"
             cx="26.680265"
             cy="57.573811"
             rx="0.31996658"
             ry="0.75005937"
             transform="matrix(0.97298825,-0.23085465,0.17692249,0.98422479,0,0)"
             inkscape:label="Pink Light" />
          <ellipse
             style="fill:#00ff00;stroke-width:0.265903"
             id="ellipse2976"
             cx="41.382519"
             cy="45.262733"
             rx="0.32142925"
             ry="0.75325441"
             transform="matrix(0.99367918,0.11225724,-0.0437933,0.99904061,0,0)"
             inkscape:label="Green Light" />
        </g>
      </g>
      <g
         id="g2994"
         inkscape:label="Light with String"
         transform="matrix(1.2489146,-0.13817754,0.11495228,0.99928469,-14.443178,-27.079907)">
        <path
           id="path2982"
           style="fill:#c8ab37;stroke-width:0.121511"
           d="m 38.098725,49.125343 c -0.0053,0.05787 -2.98551,0.756961 -6.707344,0.702904 -3.721835,-0.05406 -4.967933,-0.473967 -4.962702,-0.531848 0.0053,-0.05787 1.79924,0.329536 5.521075,0.383594 3.721835,0.05406 6.154204,-0.612531 6.148971,-0.55465 z"
           sodipodi:nodetypes="cscsc"
           inkscape:label="Light String" />
        <g
           inkscape:groupmode="layer"
           id="g2992"
           inkscape:label="Lights"
           transform="matrix(-0.99992839,0.02132483,0.0067156,0.99992839,63.805388,-0.70758105)">
          <ellipse
             style="fill:#ffcc00;stroke-width:0.264542"
             id="ellipse2984"
             cx="28.891439"
             cy="50.66354"
             rx="0.3194671"
             ry="0.75014347"
             transform="matrix(0.99997079,-0.00764309,-0.03503106,0.99938622,0,0)"
             inkscape:label="Yellow Light" />
          <ellipse
             style="fill:#ff0000;stroke-width:0.261212"
             id="ellipse2986"
             cx="25.893454"
             cy="57.195557"
             rx="0.30835044"
             ry="0.75774151"
             transform="matrix(0.97020883,-0.24227014,0.08684554,0.99622179,0,0)"
             inkscape:label="Red Light" />
          <ellipse
             style="fill:#0000ff;stroke-width:0.263889"
             id="ellipse2988"
             cx="40.17194"
             cy="44.63541"
             rx="0.31896448"
             ry="0.74762255"
             transform="matrix(0.98640351,0.16434145,-0.14596476,0.98928979,0,0)"
             inkscape:label="Blue Light" />
          <ellipse
             style="fill:#ff5555;stroke-width:0.260147"
             id="ellipse2990"
             cx="30.384987"
             cy="61.002666"
             rx="0.30496141"
             ry="0.75992543"
             transform="matrix(0.94404811,-0.32980778,0.12120691,0.99262726,0,0)"
             inkscape:label="Pink Light" />
        </g>
      </g>
      <g
         id="g3002"
         inkscape:label="Left Eye"
         transform="matrix(1.0056236,0,0,1.0056236,-0.04373882,-0.36100815)">
        <path
           id="path2996"
           style="stroke-width:0.2"
           d="m 30.90071,26.320085 c 1.273507,-0.08995 -0.833574,1.481009 -1.861839,1.481009 -1.028265,0 -2.369613,-0.970612 -2.369613,-2.115726 0,-1.145114 0.956109,-3.822098 1.227121,-3.046646 0.647562,1.852878 0.939473,3.827204 3.004331,3.681363 z"
           sodipodi:nodetypes="sssss"
           inkscape:label="Eye" />
        <ellipse
           style="fill:#f2f2f2;stroke-width:0.153846"
           id="ellipse2998"
           cx="29.016087"
           cy="26.870174"
           rx="0.78119123"
           ry="0.84629053"
           inkscape:label="Pupil" />
        <path
           id="path3000"
           style="fill:#112b00;stroke-width:0.0672452"
           d="m 31.397875,25.402244 c -0.02359,0.01609 -0.359002,1.147473 -1.596004,-0.836956 -1.242487,-1.993227 -0.220016,-1.535572 -0.388927,-1.421651 0.02359,-0.01609 -1.37985,-0.179095 0.205616,1.539749 1.585469,1.718844 1.802879,0.702737 1.779315,0.718858 z"
           sodipodi:nodetypes="cscsc"
           inkscape:label="Eye Brow" />
      </g>
      <g
         id="g3010"
         inkscape:label="Right Eye"
         transform="matrix(1.0056236,0,0,1.0056236,-0.04373882,-0.36100815)">
        <path
           id="path3004"
           style="stroke-width:0.2"
           d="m 33.066396,26.320085 c -1.273507,-0.08995 0.833574,1.481009 1.861839,1.481009 1.028265,0 2.369613,-0.970612 2.369613,-2.115726 0,-1.145114 -0.956109,-3.822098 -1.227121,-3.046646 -0.647562,1.852878 -0.939473,3.827204 -3.004331,3.681363 z"
           sodipodi:nodetypes="sssss"
           inkscape:label="Eye" />
        <ellipse
           style="fill:#f2f2f2;stroke-width:0.153846"
           id="ellipse3006"
           cx="-34.951019"
           cy="26.870174"
           rx="0.78119123"
           ry="0.84629053"
           transform="scale(-1,1)"
           inkscape:label="Pupil" />
        <path
           id="path3008"
           style="fill:#112b00;stroke-width:0.0672452"
           d="m 32.874815,25.402244 c 0.02359,0.01609 0.359002,1.147473 1.596004,-0.836956 1.242487,-1.993227 0.220016,-1.535572 0.388927,-1.421651 -0.02359,-0.01609 1.37985,-0.179095 -0.205616,1.539749 -1.585469,1.718844 -1.802879,0.702737 -1.779315,0.718858 z"
           sodipodi:nodetypes="cscsc"
           inkscape:label="Eye Brow" />
      </g>
      <g
         id="g3020"
         inkscape:label="Mouth"
         transform="matrix(1.0056236,0,0,1.0056236,-0.04373882,-0.36100815)">
        <path
           id="path3012"
           style="stroke-width:0.355664"
           d="m 27.470447,34.662328 c -1.090328,-1.726932 -1.991316,2.098996 -0.972809,3.443902 1.018503,1.344905 4.193292,2.438207 6.371376,1.658254 2.178087,-0.77995 6.322859,-3.853809 4.579455,-3.680104 -4.165717,0.415048 -8.210159,1.377986 -9.978022,-1.422052 z"
           sodipodi:nodetypes="sssss"
           inkscape:label="Mouth" />
        <path
           id="path3014"
           style="fill:#f2f2f2;stroke-width:0.238831"
           d="m 28.445476,35.737146 0.847988,0.449018 0.699596,0.227031 -0.823726,0.86484 -0.46248,-1.131672 -0.650317,0.639744 -0.08528,-1.050787 -0.915429,0.388278 0.296205,-1.036848 -0.809383,0.251778 0.684583,-0.974764 0.574057,0.794504 z"
           sodipodi:nodetypes="ccccccccccccc"
           inkscape:label="teeth 1" />
        <path
           id="path3016"
           style="fill:#f2f2f2;stroke-width:0.238831"
           d="m 32.223748,36.607014 0.916351,-0.03636 0.762278,-0.0602 -0.283284,1.060996 -0.907022,-0.66165 -0.296512,0.840028 -0.589015,-0.874508 -0.61076,0.848749 -0.482157,-0.909187 -0.550793,0.740426 -0.474355,-0.890857 0.241027,-0.252797 1.440154,0.194033 z"
           sodipodi:nodetypes="cccccccccccccc"
           inkscape:label="teeth 2" />
        <path
           id="path3018"
           style="fill:#f2f2f2;stroke-width:0.238831"
           d="m 36.186982,36.260881 0.812512,-0.08828 0.554555,-0.09289 -0.239976,0.349495 -0.640693,-0.0396 -0.389772,0.417009 -0.576492,-0.275523 -0.32907,0.691085 -0.624418,-0.517862 -0.222939,0.74231 -0.827415,-0.62909 0.123554,-0.304696 1.465494,-0.14079 z"
           sodipodi:nodetypes="cccccccccccccc"
           inkscape:label="teeth 3" />
      </g>
    </g>
  </g>
</svg>
